<svg width="9" height="16" viewBox="0 0 9 16" fill="none" xmlns="http://www.w3.org/2000/svg">
<path d="M3.95702 8.35401C3.91045 8.30756 3.87351 8.25238 3.8483 8.19164C3.8231 8.13089 3.81012 8.06577 3.81012 8.00001C3.81012 7.93424 3.8231 7.86912 3.8483 7.80837C3.87351 7.74763 3.91045 7.69245 3.95702 7.64601L8.54301 3.061C8.8244 2.77974 8.98254 2.39822 8.98263 2.00036C8.98273 1.6025 8.82477 1.2209 8.54351 0.939505C8.26225 0.65811 7.88072 0.499972 7.48286 0.499878C7.08501 0.499784 6.70341 0.657743 6.42201 0.939005L1.83602 5.525C1.18079 6.18204 0.812836 7.07209 0.812836 8.00001C0.812836 8.92792 1.18079 9.81797 1.83602 10.475L6.42201 15.061C6.70341 15.3423 7.08501 15.5002 7.48286 15.5001C7.88072 15.5 8.26225 15.3419 8.54351 15.0605C8.82477 14.7791 8.98273 14.3975 8.98263 13.9997C8.98254 13.6018 8.8244 13.2203 8.54301 12.939L3.95702 8.35401Z" fill="#B4B5CF"/>
</svg>
