<svg width="24" height="24" viewBox="0 0 24 24" fill="none" xmlns="http://www.w3.org/2000/svg">
<g clip-path="url(#clip0_2666_42356)">
<path d="M4.06756 18H19.7236C20.2054 18 20.6801 17.884 21.1076 17.6617C21.5351 17.4394 21.9028 17.1174 22.1795 16.723C22.4563 16.3285 22.6339 15.8732 22.6974 15.3956C22.761 14.918 22.7085 14.4321 22.5446 13.979L19.6926 6.094C19.2055 4.34171 18.1578 2.79719 16.7099 1.69667C15.2619 0.59615 13.4933 0.000212078 11.6746 1.01731e-09V1.01731e-09C9.78129 -2.95923e-05 7.94461 0.645588 6.46777 1.83026C4.99094 3.01493 3.96225 4.66781 3.55156 6.516L1.20156 14.116C1.0632 14.5647 1.03209 15.0396 1.11075 15.5025C1.1894 15.9654 1.37562 16.4034 1.65441 16.7812C1.93321 17.1591 2.29679 17.4662 2.71592 17.6779C3.13505 17.8895 3.59801 17.9999 4.06756 18Z" fill="#B4B5CF"/>
<path d="M7.09961 19.9999C7.32912 21.1302 7.94234 22.1464 8.83535 22.8763C9.72836 23.6062 10.8463 24.005 11.9996 24.005C13.153 24.005 14.2709 23.6062 15.1639 22.8763C16.0569 22.1464 16.6701 21.1302 16.8996 19.9999H7.09961Z" fill="#B4B5CF"/>
</g>
<defs>
<clipPath id="clip0_2666_42356">
<rect width="24" height="24" fill="white"/>
</clipPath>
</defs>
</svg>
