<svg width="24" height="24" viewBox="0 0 24 24" fill="none" xmlns="http://www.w3.org/2000/svg">
<g clip-path="url(#clip0_26_256)">
<path d="M13.0645 5.39918C13.2955 5.39918 13.517 5.30436 13.6804 5.13558C13.8437 4.96679 13.9355 4.73787 13.9355 4.49918C13.9355 4.26048 13.8437 4.03157 13.6804 3.86278C13.517 3.694 13.2955 3.59918 13.0645 3.59918H10.9579L11.3139 1.02638C11.33 0.909372 11.3237 0.790219 11.2953 0.675726C11.2669 0.561232 11.217 0.45364 11.1484 0.359091C11.0797 0.264543 10.9937 0.18489 10.8953 0.12468C10.7969 0.0644705 10.6879 0.0248835 10.5747 0.00817933C10.4615 -0.00852481 10.3462 -0.00201899 10.2354 0.0273253C10.1246 0.0566697 10.0204 0.108278 9.92895 0.179203C9.83745 0.250129 9.76036 0.338982 9.7021 0.440691C9.64383 0.5424 9.60552 0.654972 9.58935 0.771979L9.19858 3.59918H5.73213L6.08806 1.02638C6.10423 0.909372 6.09793 0.790219 6.06954 0.675726C6.04114 0.561232 5.99119 0.45364 5.92256 0.359091C5.85392 0.264543 5.76793 0.18489 5.6695 0.12468C5.57108 0.0644705 5.46214 0.0248835 5.3489 0.00817933C5.23567 -0.00852481 5.12036 -0.00201899 5.00956 0.0273253C4.89876 0.0566697 4.79464 0.108278 4.70314 0.179203C4.61164 0.250129 4.53456 0.338982 4.47629 0.440691C4.41802 0.5424 4.37971 0.654972 4.36355 0.771979L3.97277 3.59918H1.45161C1.22062 3.59918 0.999084 3.694 0.835746 3.86278C0.672408 4.03157 0.580645 4.26048 0.580645 4.49918C0.580645 4.73787 0.672408 4.96679 0.835746 5.13558C0.999084 5.30436 1.22062 5.39918 1.45161 5.39918H3.72368L3.22606 8.99918H0.870968C0.639973 8.99918 0.418439 9.094 0.255101 9.26278C0.0917624 9.43157 0 9.66049 0 9.89918C0 10.1379 0.0917624 10.3668 0.255101 10.5356C0.418439 10.7044 0.639973 10.7992 0.870968 10.7992H2.97755L2.62161 13.372C2.60545 13.489 2.61174 13.6081 2.64014 13.7226C2.66854 13.8371 2.71848 13.9447 2.78712 14.0393C2.92574 14.2302 3.13209 14.3564 3.36077 14.3902C3.58946 14.4239 3.82175 14.3624 4.00654 14.2192C4.09804 14.1482 4.17512 14.0594 4.23339 13.9577C4.29165 13.856 4.32996 13.7434 4.34613 13.6264L4.7369 10.7992H8.20335L7.84742 13.372C7.81477 13.6083 7.87431 13.8483 8.01293 14.0393C8.15155 14.2302 8.3579 14.3564 8.58658 14.3902C8.81527 14.4239 9.04755 14.3624 9.23234 14.2192C9.41713 14.0759 9.53929 13.8627 9.57194 13.6264L9.96271 10.7992H12.4839C12.7149 10.7992 12.9364 10.7044 13.0997 10.5356C13.2631 10.3668 13.3548 10.1379 13.3548 9.89918C13.3548 9.66049 13.2631 9.43157 13.0997 9.26278C12.9364 9.094 12.7149 8.99918 12.4839 8.99918H10.2118L10.7094 5.39918H13.0645ZM8.45187 8.99918H4.986L5.48361 5.39918H8.94948L8.45187 8.99918Z" fill="#808193"/>
</g>
<path d="M18.5807 6.74402H10.8387C8.51616 6.74402 6.96777 8.34402 6.96777 10.744V15.544C6.96777 17.944 8.51616 19.544 10.8387 19.544H13.9355L17.3807 21.912C17.4969 21.9921 17.6321 22.0381 17.7716 22.045C17.9112 22.052 18.05 22.0197 18.1732 21.9515C18.2964 21.8833 18.3993 21.7819 18.4711 21.658C18.5429 21.5341 18.5807 21.3924 18.5807 21.248V19.544C20.9033 19.544 22.4516 17.944 22.4516 15.544V10.744C22.4516 8.34402 20.9033 6.74402 18.5807 6.74402ZM17.4194 13.8H12C11.6826 13.8 11.4194 13.528 11.4194 13.2C11.4194 12.872 11.6826 12.6 12 12.6H17.4194C17.7368 12.6 18 12.872 18 13.2C18 13.528 17.7368 13.8 17.4194 13.8Z" fill="#808193"/>
<defs>
<clipPath id="clip0_26_256">
<rect width="13.9355" height="14.4" fill="white"/>
</clipPath>
</defs>
</svg>
