<svg width="17" height="16" viewBox="0 0 17 16" fill="none" xmlns="http://www.w3.org/2000/svg">
<g clip-path="url(#clip0_3303_42378)">
<path d="M1.95158 9.09782C2.66949 9.09782 3.25146 8.51584 3.25146 7.79793C3.25146 7.08003 2.66949 6.49805 1.95158 6.49805C1.23368 6.49805 0.651699 7.08003 0.651699 7.79793C0.651699 8.51584 1.23368 9.09782 1.95158 9.09782Z" fill="#B4B5CF"/>
<path d="M8.45093 9.09782C9.16883 9.09782 9.75081 8.51584 9.75081 7.79793C9.75081 7.08003 9.16883 6.49805 8.45093 6.49805C7.73302 6.49805 7.15104 7.08003 7.15104 7.79793C7.15104 8.51584 7.73302 9.09782 8.45093 9.09782Z" fill="#B4B5CF"/>
<path d="M14.9503 9.09782C15.6682 9.09782 16.2502 8.51584 16.2502 7.79793C16.2502 7.08003 15.6682 6.49805 14.9503 6.49805C14.2324 6.49805 13.6504 7.08003 13.6504 7.79793C13.6504 8.51584 14.2324 9.09782 14.9503 9.09782Z" fill="#B4B5CF"/>
</g>
<defs>
<clipPath id="clip0_3303_42378">
<rect width="15.5985" height="15.5985" fill="white" transform="translate(0.651703 -0.0012207)"/>
</clipPath>
</defs>
</svg>
