<svg width="21" height="21" viewBox="0 0 21 21" fill="none" xmlns="http://www.w3.org/2000/svg">
<g clip-path="url(#clip0_25_213)">
<path opacity="0.987" fill-rule="evenodd" clip-rule="evenodd" d="M7.22512 1.56641C7.60759 1.56641 7.99006 1.56641 8.37253 1.56641C8.24698 1.84838 8.24698 2.13007 8.37253 2.41148C8.06139 2.72579 7.76655 3.05577 7.48806 3.40142C7.36343 3.63707 7.25189 3.87852 7.1534 4.12576C6.94548 5.21127 6.9375 6.29779 7.1295 7.38532C7.03326 7.57143 6.92966 7.75652 6.81874 7.94065C6.77198 8.76472 6.99511 9.50514 7.48806 10.162C8.09323 10.7732 8.58723 11.4654 8.97014 12.2384C9.21745 12.8923 9.31307 13.5684 9.25699 14.2666C9.05586 14.4854 8.80883 14.6383 8.51595 14.7254C7.67084 14.9898 6.81028 15.183 5.93428 15.3048C4.60787 15.5752 3.62779 16.3076 2.99404 17.502C2.81027 18.0657 2.73059 18.6451 2.755 19.2405C0.968745 18.5594 0.634084 17.4326 1.75101 15.8602C2.47723 15.006 3.39358 14.4668 4.50002 14.2425C5.35847 14.1464 6.18714 13.9371 6.98607 13.6147C7.14566 12.8241 6.99425 12.0918 6.53189 11.4175C6.09931 10.9002 5.685 10.369 5.28886 9.82395C4.94899 9.22357 4.80556 8.57972 4.85858 7.89236C4.94774 7.7064 5.03538 7.5213 5.12153 7.33703C4.96821 6.29035 5.00808 5.25212 5.24105 4.22234C5.456 3.70656 5.77474 3.27197 6.19723 2.91852C6.08148 2.11008 6.42413 1.65937 7.22512 1.56641Z" fill="#808193"/>
<path opacity="0.993" fill-rule="evenodd" clip-rule="evenodd" d="M9.3287 1.66302C11.1602 1.54207 12.8973 1.88814 14.5399 2.70125C15.2508 3.12973 15.6572 3.76555 15.759 4.60869C15.8584 5.52702 15.8504 6.44452 15.7351 7.36121C15.7621 7.60893 15.8656 7.81817 16.0458 7.98897C16.0615 8.55353 15.934 9.08472 15.6634 9.58253C15.249 10.0976 14.8347 10.6127 14.4203 11.1278C13.7087 12.1301 13.4537 13.2407 13.6554 14.4598C13.9318 14.7404 14.2585 14.9416 14.6355 15.0634C15.5505 15.314 16.4749 15.5233 17.4084 15.6912C18.1923 15.9058 18.8696 16.3001 19.4403 16.8743C20.0111 17.5378 20.2422 18.3105 20.1335 19.1922C14.508 19.1922 8.88251 19.1922 3.25699 19.1922C3.17301 17.6599 3.82639 16.5895 5.21715 15.9809C6.0178 15.6661 6.84647 15.4568 7.70321 15.3532C8.36426 15.2326 8.98577 15.0073 9.56775 14.6771C9.66896 14.5935 9.74067 14.4889 9.78289 14.3632C9.92273 13.1736 9.6518 12.0951 8.97014 11.1278C8.51959 10.6407 8.10523 10.1256 7.72711 9.58253C7.42396 9.06864 7.31242 8.52137 7.39245 7.94068C7.5495 7.82464 7.65306 7.67176 7.70321 7.48193C7.54104 6.4805 7.51713 5.47448 7.63149 4.46382C7.71334 4.07326 7.87269 3.7191 8.10958 3.40145C8.38204 3.14238 8.63706 2.86874 8.87452 2.58052C8.89374 2.51426 8.91764 2.44988 8.94623 2.38736C8.8608 2.21782 8.82093 2.04076 8.82671 1.85618C8.86988 1.79816 8.92563 1.75792 8.99404 1.73545C9.11529 1.72646 9.22682 1.70232 9.3287 1.66302Z" fill="#808193"/>
</g>
<defs>
<clipPath id="clip0_25_213">
<rect width="21" height="21" rx="4" fill="white"/>
</clipPath>
</defs>
</svg>
