<svg  viewBox="0 0 24 24" fill="none" xmlns="http://www.w3.org/2000/svg">
<g id="fi-sr-gamepad">
<path id="Vector" d="M22.1014 5.0333C21.2058 3.44105 19.6136 2.54541 17.8222 2.54541H5.97977C4.18849 2.54541 2.5962 3.44105 1.70055 5.0333C0.605883 7.02361 0.00878906 9.213 0.00878906 11.5019C0.00878906 16.9753 2.19813 21.4535 4.98462 21.4535C6.47735 21.4535 7.67159 20.0603 8.56723 17.1743C8.66674 16.7762 9.06481 16.4777 9.56238 16.4777H14.4387C14.8368 16.4777 15.2348 16.7762 15.4339 17.1743C16.3295 20.0603 17.5237 21.4535 19.0165 21.4535C21.8029 21.4535 23.9923 16.9753 23.9923 11.5019C23.7933 9.21296 23.1962 7.02361 22.1014 5.0333ZM8.96529 10.5067H7.97013V11.5019C7.97013 12.099 7.57207 12.497 6.97498 12.497C6.37788 12.497 5.97982 12.099 5.97982 11.5019V10.5067H4.98466C4.38757 10.5067 3.98951 10.1086 3.98951 9.51155C3.98951 8.91446 4.38757 8.5164 4.98466 8.5164H5.97982V7.52124C5.97982 6.92414 6.37788 6.52608 6.97498 6.52608C7.57207 6.52608 7.97013 6.92414 7.97013 7.52124V8.5164H8.96529C9.56238 8.5164 9.96045 8.91446 9.96045 9.51155C9.96045 10.1086 9.56238 10.5067 8.96529 10.5067ZM15.5334 12.497C14.7372 12.497 14.0406 11.8004 14.0406 11.0043C14.0406 10.2082 14.7372 9.51155 15.5334 9.51155C16.3295 9.51155 17.0261 10.2082 17.0261 11.0043C17.0261 11.8004 16.23 12.497 15.5334 12.497ZM18.4194 9.51155C17.7228 9.51155 16.9266 8.81494 16.9266 8.01882C16.9266 7.22269 17.7228 6.52608 18.4194 6.52608C19.116 6.52608 19.9121 7.22269 19.9121 8.01882C19.9121 8.81494 19.2155 9.51155 18.4194 9.51155Z" fill="#B4B5CF"/>
</g>
</svg>
