<svg  viewBox="0 0 24 15" xmlns="http://www.w3.org/2000/svg">
<path opacity="0.997" fill-rule="evenodd" clip-rule="evenodd" d="M24 8.085C24 10.32 24 12.555 24 14.79C16 14.79 7.99999 14.79 0 14.79C0 11.94 0 9.09 0 6.24C0.177289 5.31525 0.73229 4.77774 1.665 4.6275C3.57 4.62 5.475 4.6175 7.38 4.62C7.37749 3.62999 7.38 2.63999 7.3875 1.65C7.47859 1.01429 7.80109 0.536794 8.355 0.217504C8.59047 0.0961388 8.84046 0.0261337 9.105 0.00750375C11.035 -0.00250125 12.965 -0.00250125 14.895 0.00750375C15.787 0.114484 16.3495 0.601984 16.5825 1.47C16.5952 1.52954 16.6053 1.58954 16.6125 1.65C16.62 3.25499 16.6225 4.85999 16.62 6.465C18.52 6.4625 20.4199 6.465 22.32 6.4725C23.2608 6.61592 23.8209 7.15341 24 8.085ZM11.91 1.86C12.185 1.86 12.46 1.86 12.735 1.86C12.735 3.395 12.735 4.93001 12.735 6.465C12.43 6.465 12.125 6.465 11.82 6.465C11.825 5.20496 11.82 3.94496 11.805 2.685C11.5649 2.81256 11.3199 2.92755 11.07 3.03C11.0149 2.79464 10.9624 2.55963 10.9125 2.325C11.2469 2.17118 11.5794 2.01618 11.91 1.86ZM3.885 6.48C4.28145 6.44288 4.64644 6.53037 4.98 6.7425C5.28768 7.00962 5.44267 7.34961 5.445 7.7625C5.42451 8.18397 5.30701 8.57646 5.0925 8.94C4.98123 9.11757 4.86622 9.29256 4.7475 9.465C4.50358 9.74886 4.27108 10.0414 4.05 10.3425C4.51497 10.35 4.97997 10.3525 5.445 10.35C5.445 10.595 5.445 10.8401 5.445 11.085C4.585 11.085 3.72499 11.085 2.865 11.085C2.86249 10.8699 2.865 10.655 2.8725 10.44C3.30156 9.94164 3.70156 9.42164 4.0725 8.88C4.23264 8.63471 4.34764 8.36972 4.4175 8.085C4.47081 7.83302 4.43082 7.59801 4.2975 7.38C4.20673 7.28087 4.09423 7.22337 3.96 7.2075C3.76045 7.191 3.57046 7.22601 3.39 7.3125C3.33301 7.35446 3.28051 7.40196 3.2325 7.455C3.1701 7.22049 3.11511 6.9855 3.0675 6.75C3.17302 6.65634 3.29553 6.59385 3.435 6.5625C3.58522 6.52434 3.73522 6.49685 3.885 6.48ZM19.68 8.145C20.037 8.108 20.362 8.1905 20.655 8.3925C21.0223 8.74418 21.1248 9.16169 20.9625 9.645C20.8399 9.91008 20.6524 10.1151 20.4 10.26C20.9857 10.5114 21.2583 10.9565 21.2175 11.595C21.1167 12.4308 20.6491 12.9033 19.815 13.0125C19.4515 13.0338 19.1016 12.9764 18.765 12.84C18.76 12.825 18.7549 12.81 18.75 12.795C18.7764 12.5685 18.8089 12.3435 18.8475 12.12C19.1916 12.2954 19.549 12.3329 19.92 12.2325C20.2351 12.0785 20.3626 11.8259 20.3025 11.475C20.2633 11.2008 20.1108 11.0234 19.845 10.9425C19.6971 10.907 19.5471 10.8894 19.395 10.89C19.395 10.65 19.395 10.41 19.395 10.17C19.6231 10.1732 19.8207 10.0982 19.9875 9.945C20.1339 9.73349 20.169 9.50349 20.0925 9.255C20.0139 9.07661 19.8763 8.97911 19.68 8.9625C19.4472 8.94354 19.2322 8.99604 19.035 9.12C18.9933 8.894 18.9583 8.66651 18.93 8.4375C18.9321 8.42592 18.9372 8.41592 18.945 8.4075C19.1805 8.28819 19.4256 8.2007 19.68 8.145Z"/>
</svg>
