<svg width="20" height="20" viewBox="0 0 20 20"  xmlns="http://www.w3.org/2000/svg">
  <path fill-rule="evenodd" clip-rule="evenodd" d="M4.59991 5.4C4.59991 2.41766 7.01758 0 9.99991 0C12.9823 0 15.3999 2.41766 15.3999 5.4V7.04C16.3128 7.2253 16.9999 8.03241 16.9999 9V17C16.9999 18.1046 16.1045 19 14.9999 19H4.99994C3.89537 19 2.99994 18.1046 2.99994 17V9C2.99994 8.03243 3.68703 7.22533 4.59991 7.04001V5.4ZM13.5999 5.4V7H6.39991V5.4C6.39991 3.41177 8.01169 1.8 9.99991 1.8C11.9881 1.8 13.5999 3.41178 13.5999 5.4ZM10.9999 11C10.9999 10.4477 10.5522 10 9.99994 10C9.44765 10 8.99994 10.4477 8.99994 11V15C8.99994 15.5523 9.44765 16 9.99994 16C10.5522 16 10.9999 15.5523 10.9999 15V11Z" />
</svg>