<svg width="24" height="24" viewBox="0 0 24 24" fill="none" xmlns="http://www.w3.org/2000/svg">
<g clip-path="url(#clip0_7_108)">
<path d="M16 21H20.591C20.6994 20.9997 20.8033 20.9566 20.8799 20.8799C20.9566 20.8033 20.9997 20.6994 21 20.591V3.409C20.9997 3.30061 20.9566 3.19673 20.8799 3.12009C20.8033 3.04344 20.6994 3.00026 20.591 3H16C15.6022 3 15.2206 2.84196 14.9393 2.56066C14.658 2.27936 14.5 1.89782 14.5 1.5C14.5 1.10218 14.658 0.720644 14.9393 0.43934C15.2206 0.158035 15.6022 0 16 0L20.591 0C21.4948 0.00105862 22.3613 0.36056 23.0004 0.999642C23.6394 1.63872 23.9989 2.5052 24 3.409V20.591C23.9989 21.4948 23.6394 22.3613 23.0004 23.0004C22.3613 23.6394 21.4948 23.9989 20.591 24H16C15.6022 24 15.2206 23.842 14.9393 23.5607C14.658 23.2794 14.5 22.8978 14.5 22.5C14.5 22.1022 14.658 21.7206 14.9393 21.4393C15.2206 21.158 15.6022 21 16 21Z" fill="#B4B5CF"/>
<path d="M1.31785 8.81727L5.19985 4.93827C5.33918 4.79901 5.50458 4.68855 5.6866 4.6132C5.86862 4.53785 6.0637 4.4991 6.2607 4.49915C6.4577 4.49919 6.65276 4.53804 6.83475 4.61347C7.01673 4.6889 7.18208 4.79944 7.32135 4.93877C7.46062 5.0781 7.57107 5.2435 7.64642 5.42553C7.72177 5.60755 7.76052 5.80263 7.76048 5.99963C7.76038 6.39748 7.60224 6.77901 7.32085 7.06027L3.90885 10.4713L17.4998 10.4993C17.8977 10.4993 18.2792 10.6573 18.5605 10.9386C18.8418 11.2199 18.9998 11.6014 18.9998 11.9993C18.9998 12.3971 18.8418 12.7786 18.5605 13.0599C18.2792 13.3412 17.8977 13.4993 17.4998 13.4993V13.4993L3.85385 13.4743L7.32085 16.9413C7.58567 17.2257 7.72974 17.6019 7.72271 17.9905C7.71567 18.3791 7.55807 18.7498 7.28311 19.0245C7.00816 19.2992 6.63731 19.4564 6.2487 19.4631C5.8601 19.4698 5.48407 19.3254 5.19985 19.0603L1.32085 15.1813C0.902977 14.7634 0.571506 14.2673 0.345356 13.7214C0.119206 13.1754 0.00280762 12.5902 0.00280762 11.9993C0.00280762 11.4083 0.119206 10.8232 0.345356 10.2772C0.571506 9.73122 0.902977 9.23514 1.32085 8.81727H1.31785Z" fill="#B4B5CF"/>
</g>
<defs>
<clipPath id="clip0_7_108">
<rect width="24" height="24" fill="white" transform="matrix(-1 0 0 1 24 0)"/>
</clipPath>
</defs>
</svg>
