<svg width="24" height="24" viewBox="0 0 24 24" fill="none" xmlns="http://www.w3.org/2000/svg">
<g clip-path="url(#clip0_3398_4049)">
<path d="M23 10.999H21V8.99901C21 8.44673 20.5523 7.99902 20 7.99902C19.4477 7.99902 19 8.44673 19 8.99901V10.999H17C16.4477 10.999 16 11.4467 16 11.999C16 12.5513 16.4477 12.999 17 12.999H19V14.999C19 15.5513 19.4477 15.999 20 15.999C20.5523 15.999 21 15.5513 21 14.999V12.999H23C23.5523 12.999 24 12.5513 24 11.999C24 11.4467 23.5523 10.999 23 10.999Z" fill="#B4B5CF"/>
<path d="M9 12C12.3137 12 15 9.31371 15 6C15 2.68629 12.3137 0 9 0C5.68629 0 3 2.68629 3 6C3 9.31371 5.68629 12 9 12Z" fill="#B4B5CF"/>
<path d="M9 13.999C4.03172 14.0046 0.00553125 18.0307 0 22.999C0 23.5513 0.447703 23.999 0.999984 23.999H17C17.5522 23.999 18 23.5513 18 22.999C17.9945 18.0307 13.9683 14.0045 9 13.999Z" fill="#B4B5CF"/>
</g>
<defs>
<clipPath id="clip0_3398_4049">
<rect width="24" height="24" fill="white"/>
</clipPath>
</defs>
</svg>
