<svg width="102" height="102" viewBox="0 0 102 102" fill="none" xmlns="http://www.w3.org/2000/svg">
<g filter="url(#filter0_d_7_113)">
<rect x="18.2269" y="3.99994" width="49.0385" height="49.0385" rx="10.2163" fill="url(#paint0_linear_7_113)"/>
<rect x="18.9932" y="4.76616" width="47.506" height="47.506" rx="9.45012" stroke="black" stroke-width="1.53245"/>
</g>
<circle cx="29.4643" cy="14.7273" r="3.57572" fill="black"/>
<circle cx="29.4643" cy="41.8003" r="3.57572" fill="black"/>
<circle cx="56.027" cy="14.7273" r="3.57572" fill="black"/>
<circle cx="56.027" cy="41.8003" r="3.57572" fill="black"/>
<circle cx="42.7456" cy="28.5193" r="3.57572" fill="black"/>
<rect x="13" y="8.35529" width="49.0385" height="49.0385" rx="10.2163" fill="#C3C4D9"/>
<circle cx="24.2369" cy="19.0826" r="3.57572" fill="black"/>
<circle cx="24.2369" cy="46.1557" r="3.57572" fill="black"/>
<circle cx="50.7996" cy="19.0826" r="3.57572" fill="black"/>
<circle cx="50.7996" cy="46.1557" r="3.57572" fill="black"/>
<circle cx="37.5182" cy="32.8745" r="3.57572" fill="black"/>
<g filter="url(#filter1_d_7_113)">
<rect x="52.9618" y="37.7139" width="49.0385" height="49.0385" rx="10.2163" fill="url(#paint1_linear_7_113)"/>
<rect x="53.728" y="38.4802" width="47.506" height="47.506" rx="9.45012" stroke="black" stroke-width="1.53245"/>
</g>
<rect width="33.7139" height="34.2248" transform="translate(60.6233 44.8653)" fill="url(#paint2_linear_7_113)"/>
<circle cx="64.1994" cy="48.441" r="3.57572" fill="black"/>
<circle cx="90.761" cy="75.5142" r="3.57572" fill="black"/>
<circle cx="77.4808" cy="62.2331" r="3.57572" fill="black"/>
<rect x="47.7353" y="42.0692" width="49.0385" height="49.0385" rx="10.2163" fill="#C3C4D9"/>
<circle cx="58.9725" cy="52.7964" r="3.57572" fill="black"/>
<circle cx="85.5353" cy="79.8697" r="3.57572" fill="black"/>
<circle cx="72.255" cy="66.5885" r="3.57572" fill="black"/>
<defs>
<filter id="filter0_d_7_113" x="0.276929" y="0.00320792" width="66.9885" height="61.1185" filterUnits="userSpaceOnUse" color-interpolation-filters="sRGB">
<feFlood flood-opacity="0" result="BackgroundImageFix"/>
<feColorMatrix in="SourceAlpha" type="matrix" values="0 0 0 0 0 0 0 0 0 0 0 0 0 0 0 0 0 0 127 0" result="hardAlpha"/>
<feOffset dx="-11.91" dy="2.04327"/>
<feGaussianBlur stdDeviation="3.02"/>
<feComposite in2="hardAlpha" operator="out"/>
<feColorMatrix type="matrix" values="0 0 0 0 0 0 0 0 0 0 0 0 0 0 0 0 0 0 0.25 0"/>
<feBlend mode="normal" in2="BackgroundImageFix" result="effect1_dropShadow_7_113"/>
<feBlend mode="normal" in="SourceGraphic" in2="effect1_dropShadow_7_113" result="shape"/>
</filter>
<filter id="filter1_d_7_113" x="36.0118" y="37.7139" width="65.9885" height="64.1185" filterUnits="userSpaceOnUse" color-interpolation-filters="sRGB">
<feFlood flood-opacity="0" result="BackgroundImageFix"/>
<feColorMatrix in="SourceAlpha" type="matrix" values="0 0 0 0 0 0 0 0 0 0 0 0 0 0 0 0 0 0 127 0" result="hardAlpha"/>
<feOffset dx="-9.91" dy="8.04"/>
<feGaussianBlur stdDeviation="3.52"/>
<feComposite in2="hardAlpha" operator="out"/>
<feColorMatrix type="matrix" values="0 0 0 0 0 0 0 0 0 0 0 0 0 0 0 0 0 0 0.25 0"/>
<feBlend mode="normal" in2="BackgroundImageFix" result="effect1_dropShadow_7_113"/>
<feBlend mode="normal" in="SourceGraphic" in2="effect1_dropShadow_7_113" result="shape"/>
</filter>
<linearGradient id="paint0_linear_7_113" x1="61.7808" y1="6.17763" x2="20.4046" y2="52.7803" gradientUnits="userSpaceOnUse">
<stop stop-color="#C3C4D9"/>
<stop offset="0.661458" stop-color="#020212"/>
<stop offset="1" stop-color="#0A0C39"/>
</linearGradient>
<linearGradient id="paint1_linear_7_113" x1="94.0105" y1="41.0208" x2="77.0245" y2="66.7176" gradientUnits="userSpaceOnUse">
<stop stop-color="#C3C4D9"/>
<stop offset="1" stop-color="#080923"/>
</linearGradient>
<linearGradient id="paint2_linear_7_113" x1="28.221" y1="2.3079" x2="16.2972" y2="20.0771" gradientUnits="userSpaceOnUse">
<stop stop-color="#C3C4D9"/>
<stop offset="1" stop-color="#080923"/>
</linearGradient>
</defs>
</svg>
