<svg width="48" height="48" viewBox="0 0 48 48" fill="none" xmlns="http://www.w3.org/2000/svg">
<g clip-path="url(#clip0_925_9777)">
<path d="M23.999 22C28.4173 22 31.999 18.4183 31.999 14C31.999 9.58172 28.4173 6 23.999 6C19.5807 6 15.999 9.58172 15.999 14C15.999 18.4183 19.5807 22 23.999 22Z" fill="#A4A5BC"/>
<path d="M9.99951 32.0006V40.0006H37.9995V32.0006C37.9995 30.4093 37.3674 28.8832 36.2422 27.758C35.1169 26.6328 33.5908 26.0006 31.9995 26.0006H15.9995C14.4082 26.0006 12.8821 26.6328 11.7569 27.758C10.6317 28.8832 9.99951 30.4093 9.99951 32.0006Z" fill="#A4A5BC"/>
<path d="M42.001 48.0006H32.001V44.0006H42.001C42.5314 44.0006 43.0401 43.7899 43.4152 43.4148C43.7902 43.0397 44.001 42.531 44.001 42.0006V32.0006H48.0009V42.0006C48.0009 43.5919 47.3688 45.118 46.2436 46.2432C45.1184 47.3684 43.5923 48.0006 42.001 48.0006Z" fill="#A4A5BC"/>
<path d="M4 16H0V6C0 4.4087 0.632141 2.88258 1.75736 1.75736C2.88258 0.632141 4.4087 0 6 0L16 0V4H6C5.46957 4 4.96086 4.21071 4.58579 4.58579C4.21071 4.96086 4 5.46957 4 6V16Z" fill="#A4A5BC"/>
<path d="M16 48.0006H6C4.4087 48.0006 2.88258 47.3684 1.75736 46.2432C0.632141 45.118 0 43.5919 0 42.0006L0 32.0006H4V42.0006C4 42.531 4.21071 43.0397 4.58579 43.4148C4.96086 43.7899 5.46957 44.0006 6 44.0006H16V48.0006Z" fill="#A4A5BC"/>
<path d="M48.0009 16H44.001V6C44.001 5.46957 43.7902 4.96086 43.4152 4.58579C43.0401 4.21071 42.5314 4 42.001 4H32.001V0H42.001C43.5923 0 45.1184 0.632141 46.2436 1.75736C47.3688 2.88258 48.0009 4.4087 48.0009 6V16Z" fill="#A4A5BC"/>
</g>
<defs>
<clipPath id="clip0_925_9777">
<rect width="48" height="48" fill="white"/>
</clipPath>
</defs>
</svg>
