<svg width="321" height="320" viewBox="0 0 321 320" fill="none" xmlns="http://www.w3.org/2000/svg">
<rect x="0.5" width="320" height="320" rx="16" fill="#1F272E"/>
<g filter="url(#filter0_d_859_5787)">
<circle cx="160.5" cy="112" r="80" fill="#227BC9"/>
</g>
<g clip-path="url(#clip0_859_5787)">
<path d="M161.997 82.2157C156.625 83.1865 152.686 87.8786 152.673 93.3258C152.659 97.5595 154.96 101.429 158.682 103.398C159.399 103.789 159.927 103.991 161.496 104.463C162.525 104.787 165.61 104.773 166.734 104.449C169.197 103.735 170.861 102.751 172.404 101.133C174.393 99.0157 175.435 96.3595 175.435 93.3933C175.435 86.2472 169.061 80.9483 161.997 82.2157Z" fill="#B4B5CF"/>
<path d="M129.017 88.1618C127.799 88.3236 125.959 89.0652 124.958 89.8067C123.266 91.0472 122.197 92.5169 121.439 94.6202C121.087 95.591 120.925 98.1258 121.141 99.2854C121.412 100.715 122.292 102.562 123.225 103.654C123.888 104.436 125.106 105.461 125.35 105.461C125.431 105.461 125.499 105.515 125.499 105.569C125.499 105.69 126.595 106.27 126.839 106.27C126.92 106.27 126.987 106.337 126.987 106.431C126.987 106.512 127.028 106.553 127.069 106.512C127.109 106.458 127.569 106.539 128.084 106.688C129.396 107.052 131.656 107.038 132.983 106.661C133.51 106.512 134.025 106.378 134.106 106.351C134.606 106.256 136.258 105.124 137.083 104.315C138.666 102.764 139.235 101.739 139.83 99.4472C140.033 98.6652 140.02 96.5213 139.79 95.4831C139.478 93.9595 138.572 92.2607 137.421 90.9798C136.447 89.9146 134.877 88.9708 133.145 88.418C132.468 88.1888 129.938 88.027 129.017 88.1618Z" fill="#B4B5CF"/>
<path d="M196.141 88.1618C193.908 88.4585 191.35 89.982 189.997 91.8292C189.401 92.6247 188.671 94.1214 188.44 94.9573C188.007 96.5214 188.062 98.9079 188.535 100.405C189.821 104.409 193.353 106.944 197.629 106.944C200.404 106.944 202.677 106 204.463 104.099C206.304 102.144 207.102 100.148 207.102 97.4787C207.102 95.3483 206.48 93.5281 205.127 91.7483C203.936 90.1708 202.42 89.1326 200.255 88.418C199.551 88.1888 197.088 88.027 196.141 88.1618Z" fill="#B4B5CF"/>
<path d="M154.46 108.103C152.822 108.36 151.361 108.912 150.603 109.56C150.332 109.789 149.994 109.924 149.534 109.964C149.155 110.004 148.18 110.099 147.355 110.18C141.698 110.733 138.288 110.894 134.295 110.8C132.401 110.76 130.33 110.665 129.694 110.598C129.058 110.517 127.515 110.369 126.243 110.247C124.985 110.126 123.334 109.951 122.589 109.843C119.409 109.398 118.272 109.317 117.555 109.492C116.554 109.735 115.634 110.396 115.011 111.326C114.483 112.121 114.483 112.135 114.47 113.483C114.47 114.778 114.483 114.858 114.903 115.506C115.769 116.84 117.745 117.663 121.778 118.391C123.32 118.661 128.409 119.065 131.386 119.146C135.297 119.254 136.745 119.24 141.197 119.065C145.041 118.917 145.338 118.903 146.651 118.742L147.422 118.647V127.263V135.879L147.734 136.822C147.91 137.348 148.207 138.049 148.397 138.373C148.87 139.182 150.021 140.301 150.927 140.84C151.631 141.258 152.051 141.434 153.39 141.852C153.729 141.96 156.868 142 164 142C173.879 142 174.15 141.987 175.084 141.717C177.438 141.029 179.008 139.56 179.929 137.187C180.226 136.404 180.226 136.351 180.28 127.533L180.321 118.674H180.673C180.862 118.674 181.999 118.755 183.203 118.863C185.477 119.065 190.308 119.24 192.758 119.213C201.392 119.092 206.67 118.593 209.715 117.582C212.083 116.8 213.152 115.991 213.517 114.71C213.774 113.82 213.788 113.294 213.544 112.404C213.138 110.867 212.164 109.897 210.567 109.438C209.863 109.236 209.701 109.236 208.564 109.425C207.888 109.546 207.089 109.64 206.791 109.64C206.494 109.64 205.695 109.721 205.019 109.829C202.759 110.18 198.36 110.557 194.788 110.706C191.445 110.854 184.476 110.598 181.728 110.247C181.431 110.207 180.483 110.126 179.604 110.058C178.115 109.937 177.993 109.897 177.371 109.465C176.64 108.926 175.977 108.629 174.894 108.319C174.258 108.144 172.783 108.103 164.474 108.076C159.155 108.063 154.649 108.076 154.46 108.103Z" fill="#B4B5CF"/>
<path d="M115.079 118.027C115.079 118.108 114.97 118.431 114.821 118.728C114.686 119.038 114.28 119.982 113.928 120.831C113.576 121.681 113.238 122.503 113.17 122.652C113.116 122.8 112.9 123.312 112.697 123.798C112.507 124.283 112.237 124.917 112.101 125.213C111.979 125.51 111.763 126.022 111.628 126.36C111.506 126.697 111.343 127.088 111.276 127.236C110.559 128.989 109.747 130.93 109.652 131.146C107.744 135.595 107.419 136.566 107.541 137.47C107.852 139.654 109.408 141.258 111.519 141.528C112.345 141.636 113.671 141.339 114.321 140.894C115.457 140.112 115.796 139.613 116.905 136.971L117.284 136.067L117.69 136.755C118.462 138.13 120.586 139.708 121.628 139.708C121.818 139.708 122.007 139.762 122.048 139.843C122.156 140.018 138.639 139.937 139.37 139.762C141.048 139.33 142.821 137.915 143.552 136.404C144.283 134.894 144.296 134.692 144.31 127.115V120.117L143.471 120.198C140.209 120.535 128.571 120.4 125.364 120.009C124.809 119.942 123.807 119.82 123.131 119.753C120.708 119.497 117.893 118.863 116.229 118.189C115.322 117.825 115.079 117.784 115.079 118.027Z" fill="#B4B5CF"/>
<path d="M212.177 118.067C211.744 118.27 210.12 118.769 208.794 119.119C207.82 119.375 205.736 119.712 204.531 119.807C204.044 119.861 203.232 119.942 202.704 120.009C199.7 120.4 187.926 120.535 184.678 120.211L183.826 120.117V126.98C183.826 130.755 183.88 134.193 183.961 134.625C184.259 136.431 185.761 138.454 187.412 139.222C189.036 139.991 188.765 139.978 197.697 139.937C202.244 139.91 206.169 139.843 206.426 139.789C207.062 139.64 208.604 138.885 208.686 138.67C208.726 138.575 208.807 138.494 208.875 138.494C209.092 138.494 210.066 137.389 210.486 136.674C210.81 136.121 210.892 136.054 210.959 136.27C211.392 137.564 212.38 139.587 212.827 140.072C214.586 141.987 217.441 142.054 219.268 140.234C220.107 139.384 220.419 138.629 220.473 137.267C220.527 136.162 220.5 136.054 219.904 134.571C219.553 133.721 219.214 132.912 219.147 132.764C219.093 132.616 218.565 131.375 217.996 130C217.428 128.625 216.887 127.317 216.778 127.101C216.684 126.872 216.318 125.996 215.98 125.146C215.628 124.297 215.29 123.474 215.236 123.326C215.168 123.178 214.803 122.301 214.41 121.371C214.031 120.44 213.639 119.497 213.53 119.281C213.436 119.052 213.273 118.647 213.179 118.364C212.989 117.825 212.827 117.771 212.177 118.067Z" fill="#B4B5CF"/>
</g>
<path d="M73.9373 234C73.7507 234 73.5827 233.935 73.4333 233.804C73.3027 233.673 73.2373 233.505 73.2373 233.3V215.1C73.2373 214.895 73.3027 214.727 73.4333 214.596C73.5827 214.465 73.7507 214.4 73.9373 214.4H76.9613C77.26 214.4 77.484 214.484 77.6333 214.652C77.8013 214.801 77.904 214.923 77.9413 215.016L82.8693 223.864L87.7973 215.016C87.8533 214.923 87.9467 214.801 88.0773 214.652C88.2267 214.484 88.46 214.4 88.7773 214.4H91.7733C91.9787 214.4 92.1467 214.465 92.2773 214.596C92.4267 214.727 92.5013 214.895 92.5013 215.1V233.3C92.5013 233.505 92.4267 233.673 92.2773 233.804C92.1467 233.935 91.9787 234 91.7733 234H88.4413C88.236 234 88.0587 233.935 87.9093 233.804C87.7787 233.673 87.7133 233.505 87.7133 233.3V222.8L84.5493 228.652C84.4747 228.82 84.3627 228.969 84.2133 229.1C84.064 229.231 83.8587 229.296 83.5973 229.296H82.1413C81.88 229.296 81.6747 229.231 81.5253 229.1C81.376 228.969 81.2547 228.82 81.1613 228.652L77.9973 222.8V233.3C77.9973 233.505 77.932 233.673 77.8013 233.804C77.6707 233.935 77.5027 234 77.2973 234H73.9373ZM100.458 234.28C99.4495 234.28 98.5442 234.093 97.7415 233.72C96.9575 233.328 96.3322 232.805 95.8655 232.152C95.3988 231.499 95.1655 230.761 95.1655 229.94C95.1655 228.615 95.7068 227.569 96.7895 226.804C97.8722 226.02 99.3095 225.488 101.102 225.208L104.602 224.676V224.284C104.602 223.612 104.462 223.099 104.182 222.744C103.902 222.389 103.388 222.212 102.642 222.212C102.119 222.212 101.69 222.315 101.354 222.52C101.036 222.725 100.784 223.005 100.598 223.36C100.43 223.603 100.196 223.724 99.8975 223.724H96.7615C96.5562 223.724 96.3975 223.668 96.2855 223.556C96.1735 223.425 96.1268 223.276 96.1455 223.108C96.1455 222.772 96.2668 222.389 96.5095 221.96C96.7708 221.512 97.1628 221.073 97.6855 220.644C98.2082 220.215 98.8802 219.86 99.7015 219.58C100.523 219.3 101.512 219.16 102.669 219.16C103.883 219.16 104.919 219.3 105.778 219.58C106.636 219.86 107.327 220.252 107.85 220.756C108.391 221.26 108.792 221.857 109.054 222.548C109.315 223.22 109.446 223.967 109.446 224.788V233.3C109.446 233.505 109.371 233.673 109.221 233.804C109.091 233.935 108.932 234 108.746 234H105.498C105.292 234 105.124 233.935 104.994 233.804C104.863 233.673 104.798 233.505 104.798 233.3V232.32C104.555 232.675 104.228 233.001 103.818 233.3C103.407 233.599 102.922 233.832 102.362 234C101.82 234.187 101.186 234.28 100.458 234.28ZM101.774 231.088C102.315 231.088 102.8 230.976 103.23 230.752C103.678 230.509 104.023 230.145 104.266 229.66C104.527 229.156 104.658 228.531 104.658 227.784V227.392L102.278 227.812C101.4 227.961 100.756 228.195 100.346 228.512C99.9535 228.811 99.7575 229.165 99.7575 229.576C99.7575 229.893 99.8508 230.164 100.038 230.388C100.224 230.612 100.467 230.789 100.766 230.92C101.064 231.032 101.4 231.088 101.774 231.088ZM113.305 234C113.1 234 112.932 233.935 112.801 233.804C112.67 233.673 112.605 233.505 112.605 233.3V214.82C112.605 214.615 112.67 214.447 112.801 214.316C112.932 214.185 113.1 214.12 113.305 214.12H116.553C116.74 214.12 116.898 214.185 117.029 214.316C117.178 214.447 117.253 214.615 117.253 214.82V224.2L121.145 219.916C121.257 219.785 121.378 219.673 121.509 219.58C121.64 219.487 121.826 219.44 122.069 219.44H125.821C125.989 219.44 126.129 219.505 126.241 219.636C126.372 219.748 126.437 219.888 126.437 220.056C126.437 220.131 126.418 220.215 126.381 220.308C126.344 220.401 126.288 220.476 126.213 220.532L121.173 225.964L126.913 232.936C127.062 233.085 127.137 233.235 127.137 233.384C127.137 233.552 127.072 233.701 126.941 233.832C126.829 233.944 126.68 234 126.493 234H122.657C122.377 234 122.172 233.953 122.041 233.86C121.91 233.748 121.789 233.636 121.677 233.524L117.253 228.204V233.3C117.253 233.505 117.178 233.673 117.029 233.804C116.898 233.935 116.74 234 116.553 234H113.305ZM135.02 234.28C132.818 234.28 131.063 233.683 129.756 232.488C128.45 231.293 127.768 229.52 127.712 227.168C127.712 227.037 127.712 226.869 127.712 226.664C127.712 226.459 127.712 226.3 127.712 226.188C127.768 224.713 128.095 223.453 128.692 222.408C129.308 221.344 130.148 220.541 131.212 220C132.295 219.44 133.555 219.16 134.992 219.16C136.635 219.16 137.988 219.487 139.052 220.14C140.135 220.793 140.947 221.68 141.488 222.8C142.03 223.92 142.3 225.199 142.3 226.636V227.308C142.3 227.513 142.226 227.681 142.076 227.812C141.946 227.943 141.787 228.008 141.6 228.008H132.64C132.64 228.027 132.64 228.055 132.64 228.092C132.64 228.129 132.64 228.167 132.64 228.204C132.659 228.745 132.752 229.24 132.92 229.688C133.088 230.136 133.35 230.491 133.704 230.752C134.059 231.013 134.488 231.144 134.992 231.144C135.366 231.144 135.674 231.088 135.916 230.976C136.178 230.845 136.392 230.705 136.56 230.556C136.728 230.388 136.859 230.248 136.952 230.136C137.12 229.949 137.251 229.837 137.344 229.8C137.456 229.744 137.624 229.716 137.848 229.716H141.32C141.507 229.716 141.656 229.772 141.768 229.884C141.899 229.977 141.955 230.117 141.936 230.304C141.918 230.621 141.759 231.004 141.46 231.452C141.162 231.9 140.723 232.348 140.144 232.796C139.584 233.225 138.875 233.58 138.016 233.86C137.158 234.14 136.159 234.28 135.02 234.28ZM132.64 225.236H137.372V225.18C137.372 224.583 137.279 224.06 137.092 223.612C136.924 223.164 136.654 222.819 136.28 222.576C135.926 222.333 135.496 222.212 134.992 222.212C134.488 222.212 134.059 222.333 133.704 222.576C133.368 222.819 133.107 223.164 132.92 223.612C132.734 224.06 132.64 224.583 132.64 225.18V225.236ZM152.774 234C152.587 234 152.419 233.935 152.27 233.804C152.139 233.673 152.074 233.505 152.074 233.3V223.108H149.946C149.74 223.108 149.572 223.043 149.442 222.912C149.311 222.781 149.246 222.613 149.246 222.408V220.14C149.246 219.935 149.311 219.767 149.442 219.636C149.572 219.505 149.74 219.44 149.946 219.44H152.074V218.544C152.074 217.275 152.316 216.257 152.802 215.492C153.306 214.708 154.015 214.148 154.93 213.812C155.844 213.457 156.936 213.28 158.206 213.28H160.39C160.576 213.28 160.735 213.345 160.866 213.476C161.015 213.607 161.09 213.775 161.09 213.98V216.248C161.09 216.453 161.015 216.621 160.866 216.752C160.735 216.883 160.576 216.948 160.39 216.948H158.43C157.795 216.948 157.347 217.097 157.086 217.396C156.843 217.695 156.722 218.124 156.722 218.684V219.44H160.11C160.296 219.44 160.455 219.505 160.586 219.636C160.735 219.767 160.81 219.935 160.81 220.14V222.408C160.81 222.613 160.735 222.781 160.586 222.912C160.455 223.043 160.296 223.108 160.11 223.108H156.722V233.3C156.722 233.505 156.656 233.673 156.526 233.804C156.395 233.935 156.227 234 156.022 234H152.774ZM163.508 234C163.303 234 163.135 233.935 163.004 233.804C162.874 233.673 162.808 233.505 162.808 233.3V220.14C162.808 219.953 162.874 219.795 163.004 219.664C163.135 219.515 163.303 219.44 163.508 219.44H166.728C166.934 219.44 167.102 219.515 167.232 219.664C167.363 219.795 167.428 219.953 167.428 220.14V221.26C167.932 220.681 168.53 220.233 169.22 219.916C169.93 219.599 170.723 219.44 171.6 219.44H172.832C173.019 219.44 173.178 219.505 173.308 219.636C173.458 219.767 173.532 219.935 173.532 220.14V223.024C173.532 223.211 173.458 223.379 173.308 223.528C173.178 223.659 173.019 223.724 172.832 223.724H170.116C169.351 223.724 168.754 223.939 168.324 224.368C167.914 224.779 167.708 225.367 167.708 226.132V233.3C167.708 233.505 167.634 233.673 167.484 233.804C167.354 233.935 167.186 234 166.98 234H163.508ZM176.223 234C176.018 234 175.85 233.935 175.719 233.804C175.588 233.673 175.523 233.505 175.523 233.3V220.14C175.523 219.935 175.588 219.767 175.719 219.636C175.85 219.505 176.018 219.44 176.223 219.44H179.527C179.714 219.44 179.872 219.505 180.003 219.636C180.152 219.767 180.227 219.935 180.227 220.14V233.3C180.227 233.505 180.152 233.673 180.003 233.804C179.872 233.935 179.714 234 179.527 234H176.223ZM176.195 217.34C175.99 217.34 175.822 217.275 175.691 217.144C175.56 217.013 175.495 216.845 175.495 216.64V214.148C175.495 213.943 175.56 213.775 175.691 213.644C175.822 213.495 175.99 213.42 176.195 213.42H179.527C179.732 213.42 179.9 213.495 180.031 213.644C180.18 213.775 180.255 213.943 180.255 214.148V216.64C180.255 216.845 180.18 217.013 180.031 217.144C179.9 217.275 179.732 217.34 179.527 217.34H176.195ZM190.364 234.28C188.162 234.28 186.407 233.683 185.1 232.488C183.794 231.293 183.112 229.52 183.056 227.168C183.056 227.037 183.056 226.869 183.056 226.664C183.056 226.459 183.056 226.3 183.056 226.188C183.112 224.713 183.439 223.453 184.036 222.408C184.652 221.344 185.492 220.541 186.556 220C187.639 219.44 188.899 219.16 190.336 219.16C191.979 219.16 193.332 219.487 194.396 220.14C195.479 220.793 196.291 221.68 196.832 222.8C197.374 223.92 197.644 225.199 197.644 226.636V227.308C197.644 227.513 197.57 227.681 197.42 227.812C197.29 227.943 197.131 228.008 196.944 228.008H187.984C187.984 228.027 187.984 228.055 187.984 228.092C187.984 228.129 187.984 228.167 187.984 228.204C188.003 228.745 188.096 229.24 188.264 229.688C188.432 230.136 188.694 230.491 189.048 230.752C189.403 231.013 189.832 231.144 190.336 231.144C190.71 231.144 191.018 231.088 191.26 230.976C191.522 230.845 191.736 230.705 191.904 230.556C192.072 230.388 192.203 230.248 192.296 230.136C192.464 229.949 192.595 229.837 192.688 229.8C192.8 229.744 192.968 229.716 193.192 229.716H196.664C196.851 229.716 197 229.772 197.112 229.884C197.243 229.977 197.299 230.117 197.28 230.304C197.262 230.621 197.103 231.004 196.804 231.452C196.506 231.9 196.067 232.348 195.488 232.796C194.928 233.225 194.219 233.58 193.36 233.86C192.502 234.14 191.503 234.28 190.364 234.28ZM187.984 225.236H192.716V225.18C192.716 224.583 192.623 224.06 192.436 223.612C192.268 223.164 191.998 222.819 191.624 222.576C191.27 222.333 190.84 222.212 190.336 222.212C189.832 222.212 189.403 222.333 189.048 222.576C188.712 222.819 188.451 223.164 188.264 223.612C188.078 224.06 187.984 224.583 187.984 225.18V225.236ZM200.969 234C200.764 234 200.596 233.935 200.465 233.804C200.335 233.673 200.269 233.505 200.269 233.3V220.14C200.269 219.935 200.335 219.767 200.465 219.636C200.596 219.505 200.764 219.44 200.969 219.44H204.189C204.395 219.44 204.563 219.505 204.693 219.636C204.824 219.767 204.889 219.935 204.889 220.14V221.204C205.375 220.625 206.009 220.14 206.793 219.748C207.577 219.356 208.501 219.16 209.565 219.16C210.648 219.16 211.6 219.403 212.421 219.888C213.261 220.373 213.915 221.092 214.381 222.044C214.867 222.977 215.109 224.125 215.109 225.488V233.3C215.109 233.505 215.035 233.673 214.885 233.804C214.755 233.935 214.596 234 214.409 234H210.881C210.695 234 210.527 233.935 210.377 233.804C210.247 233.673 210.181 233.505 210.181 233.3V225.656C210.181 224.779 209.967 224.107 209.537 223.64C209.127 223.155 208.511 222.912 207.689 222.912C206.924 222.912 206.308 223.155 205.841 223.64C205.393 224.107 205.169 224.779 205.169 225.656V233.3C205.169 233.505 205.095 233.673 204.945 233.804C204.815 233.935 204.656 234 204.469 234H200.969ZM223.666 234.28C222.77 234.28 221.958 234.14 221.23 233.86C220.521 233.561 219.905 233.132 219.382 232.572C218.878 231.993 218.486 231.303 218.206 230.5C217.926 229.679 217.767 228.745 217.73 227.7C217.711 227.327 217.702 227 217.702 226.72C217.702 226.421 217.711 226.095 217.73 225.74C217.767 224.732 217.926 223.827 218.206 223.024C218.486 222.221 218.878 221.531 219.382 220.952C219.886 220.373 220.502 219.935 221.23 219.636C221.958 219.319 222.77 219.16 223.666 219.16C224.599 219.16 225.402 219.319 226.074 219.636C226.746 219.935 227.315 220.327 227.782 220.812V214.82C227.782 214.615 227.847 214.447 227.978 214.316C228.109 214.185 228.277 214.12 228.482 214.12H231.898C232.085 214.12 232.243 214.185 232.374 214.316C232.523 214.447 232.598 214.615 232.598 214.82V233.3C232.598 233.505 232.523 233.673 232.374 233.804C232.243 233.935 232.085 234 231.898 234H228.734C228.529 234 228.361 233.935 228.23 233.804C228.099 233.673 228.034 233.505 228.034 233.3V232.404C227.586 232.945 227.007 233.393 226.298 233.748C225.589 234.103 224.711 234.28 223.666 234.28ZM225.178 230.528C225.813 230.528 226.307 230.397 226.662 230.136C227.035 229.856 227.306 229.501 227.474 229.072C227.661 228.643 227.763 228.176 227.782 227.672C227.801 227.299 227.81 226.944 227.81 226.608C227.81 226.272 227.801 225.927 227.782 225.572C227.763 225.105 227.661 224.676 227.474 224.284C227.287 223.873 227.007 223.547 226.634 223.304C226.261 223.043 225.775 222.912 225.178 222.912C224.562 222.912 224.067 223.043 223.694 223.304C223.339 223.565 223.087 223.92 222.938 224.368C222.789 224.816 222.695 225.311 222.658 225.852C222.602 226.431 222.602 227.009 222.658 227.588C222.695 228.129 222.789 228.624 222.938 229.072C223.087 229.52 223.339 229.875 223.694 230.136C224.067 230.397 224.562 230.528 225.178 230.528ZM241.89 234.28C240.677 234.28 239.641 234.149 238.782 233.888C237.942 233.608 237.251 233.272 236.71 232.88C236.187 232.488 235.795 232.087 235.534 231.676C235.273 231.247 235.133 230.883 235.114 230.584C235.095 230.379 235.161 230.211 235.31 230.08C235.459 229.931 235.618 229.856 235.786 229.856H238.978C239.034 229.856 239.081 229.865 239.118 229.884C239.155 229.903 239.211 229.94 239.286 229.996C239.529 230.127 239.771 230.295 240.014 230.5C240.257 230.687 240.537 230.855 240.854 231.004C241.171 231.153 241.554 231.228 242.002 231.228C242.525 231.228 242.963 231.125 243.318 230.92C243.673 230.715 243.85 230.407 243.85 229.996C243.85 229.697 243.766 229.455 243.598 229.268C243.43 229.063 243.085 228.867 242.562 228.68C242.058 228.493 241.293 228.307 240.266 228.12C239.295 227.896 238.446 227.607 237.718 227.252C236.99 226.879 236.43 226.403 236.038 225.824C235.646 225.227 235.45 224.508 235.45 223.668C235.45 222.921 235.693 222.203 236.178 221.512C236.663 220.821 237.373 220.261 238.306 219.832C239.239 219.384 240.387 219.16 241.75 219.16C242.833 219.16 243.766 219.291 244.55 219.552C245.353 219.795 246.025 220.112 246.566 220.504C247.126 220.896 247.546 221.297 247.826 221.708C248.106 222.119 248.255 222.492 248.274 222.828C248.293 223.015 248.237 223.183 248.106 223.332C247.975 223.463 247.826 223.528 247.658 223.528H244.746C244.671 223.528 244.597 223.519 244.522 223.5C244.447 223.463 244.382 223.425 244.326 223.388C244.102 223.276 243.878 223.127 243.654 222.94C243.43 222.753 243.169 222.585 242.87 222.436C242.571 222.287 242.198 222.212 241.75 222.212C241.246 222.212 240.854 222.324 240.574 222.548C240.294 222.772 240.154 223.061 240.154 223.416C240.154 223.659 240.229 223.883 240.378 224.088C240.546 224.293 240.873 224.48 241.358 224.648C241.862 224.816 242.637 225.003 243.682 225.208C244.97 225.413 245.997 225.749 246.762 226.216C247.527 226.664 248.069 227.196 248.386 227.812C248.703 228.409 248.862 229.044 248.862 229.716C248.862 230.612 248.591 231.405 248.05 232.096C247.527 232.787 246.743 233.328 245.698 233.72C244.653 234.093 243.383 234.28 241.89 234.28Z" fill="white"/>
<path d="M72.924 269.16C71.9427 269.16 71.1267 268.979 70.476 268.616C69.836 268.253 69.3507 267.747 69.02 267.096C68.6893 266.445 68.508 265.688 68.476 264.824C68.4653 264.387 68.46 263.917 68.46 263.416C68.46 262.915 68.4653 262.435 68.476 261.976C68.508 261.112 68.6893 260.355 69.02 259.704C69.3507 259.053 69.836 258.547 70.476 258.184C71.1267 257.821 71.9427 257.64 72.924 257.64C73.66 257.64 74.3053 257.741 74.86 257.944C75.4147 258.147 75.8733 258.419 76.236 258.76C76.6093 259.101 76.892 259.485 77.084 259.912C77.276 260.328 77.3827 260.76 77.404 261.208C77.4147 261.304 77.3827 261.384 77.308 261.448C77.244 261.512 77.164 261.544 77.068 261.544H76.188C76.092 261.544 76.0067 261.517 75.932 261.464C75.868 261.411 75.82 261.315 75.788 261.176C75.6067 260.344 75.2653 259.773 74.764 259.464C74.2733 259.155 73.6547 259 72.908 259C72.0547 259 71.3773 259.245 70.876 259.736C70.3747 260.216 70.1027 260.989 70.06 262.056C70.028 262.931 70.028 263.827 70.06 264.744C70.1027 265.811 70.3747 266.589 70.876 267.08C71.3773 267.56 72.0547 267.8 72.908 267.8C73.6547 267.8 74.2733 267.645 74.764 267.336C75.2653 267.027 75.6067 266.456 75.788 265.624C75.82 265.485 75.868 265.389 75.932 265.336C76.0067 265.283 76.092 265.256 76.188 265.256H77.068C77.164 265.256 77.244 265.288 77.308 265.352C77.3827 265.416 77.4147 265.496 77.404 265.592C77.3827 266.04 77.276 266.477 77.084 266.904C76.892 267.32 76.6093 267.699 76.236 268.04C75.8733 268.381 75.4147 268.653 74.86 268.856C74.3053 269.059 73.66 269.16 72.924 269.16ZM82.7483 269.16C81.9376 269.16 81.2603 269.005 80.7163 268.696C80.1723 268.387 79.7563 267.96 79.4683 267.416C79.1803 266.861 79.0203 266.232 78.9883 265.528C78.9776 265.347 78.9723 265.117 78.9723 264.84C78.9723 264.552 78.9776 264.323 78.9883 264.152C79.0203 263.437 79.1803 262.808 79.4683 262.264C79.7669 261.72 80.1883 261.293 80.7323 260.984C81.2763 260.675 81.9483 260.52 82.7483 260.52C83.5483 260.52 84.2203 260.675 84.7643 260.984C85.3083 261.293 85.7243 261.72 86.0123 262.264C86.3109 262.808 86.4763 263.437 86.5083 264.152C86.5189 264.323 86.5243 264.552 86.5243 264.84C86.5243 265.117 86.5189 265.347 86.5083 265.528C86.4763 266.232 86.3163 266.861 86.0283 267.416C85.7403 267.96 85.3243 268.387 84.7803 268.696C84.2363 269.005 83.5589 269.16 82.7483 269.16ZM82.7483 267.928C83.4096 267.928 83.9376 267.72 84.3323 267.304C84.7269 266.877 84.9403 266.259 84.9723 265.448C84.9829 265.288 84.9883 265.085 84.9883 264.84C84.9883 264.595 84.9829 264.392 84.9723 264.232C84.9403 263.421 84.7269 262.808 84.3323 262.392C83.9376 261.965 83.4096 261.752 82.7483 261.752C82.0869 261.752 81.5536 261.965 81.1483 262.392C80.7536 262.808 80.5456 263.421 80.5243 264.232C80.5136 264.392 80.5082 264.595 80.5082 264.84C80.5082 265.085 80.5136 265.288 80.5243 265.448C80.5456 266.259 80.7536 266.877 81.1483 267.304C81.5536 267.72 82.0869 267.928 82.7483 267.928ZM88.8958 269C88.7891 269 88.6984 268.968 88.6238 268.904C88.5598 268.829 88.5278 268.739 88.5278 268.632V261.048C88.5278 260.941 88.5598 260.856 88.6238 260.792C88.6984 260.717 88.7891 260.68 88.8958 260.68H89.6478C89.7544 260.68 89.8398 260.717 89.9038 260.792C89.9784 260.856 90.0158 260.941 90.0158 261.048V261.752C90.2931 261.389 90.6398 261.096 91.0558 260.872C91.4824 260.637 92.0264 260.52 92.6878 260.52C93.3811 260.52 93.9678 260.675 94.4478 260.984C94.9384 261.283 95.3064 261.704 95.5518 262.248C95.7971 262.781 95.9198 263.405 95.9198 264.12V268.632C95.9198 268.739 95.8878 268.829 95.8238 268.904C95.7598 268.968 95.6744 269 95.5677 269H94.7678C94.6611 269 94.5704 268.968 94.4958 268.904C94.4318 268.829 94.3998 268.739 94.3998 268.632V264.2C94.3998 263.453 94.2184 262.872 93.8558 262.456C93.4931 262.029 92.9598 261.816 92.2558 261.816C91.5944 261.816 91.0611 262.029 90.6558 262.456C90.2611 262.872 90.0638 263.453 90.0638 264.2V268.632C90.0638 268.739 90.0264 268.829 89.9518 268.904C89.8878 268.968 89.8024 269 89.6957 269H88.8958ZM98.5989 269C98.4922 269 98.4015 268.968 98.3269 268.904C98.2629 268.829 98.2309 268.739 98.2309 268.632V261.048C98.2309 260.941 98.2629 260.856 98.3269 260.792C98.4015 260.717 98.4922 260.68 98.5989 260.68H99.3509C99.4575 260.68 99.5429 260.717 99.6069 260.792C99.6815 260.856 99.7189 260.941 99.7189 261.048V261.752C99.9962 261.389 100.343 261.096 100.759 260.872C101.186 260.637 101.73 260.52 102.391 260.52C103.084 260.52 103.671 260.675 104.151 260.984C104.642 261.283 105.01 261.704 105.255 262.248C105.5 262.781 105.623 263.405 105.623 264.12V268.632C105.623 268.739 105.591 268.829 105.527 268.904C105.463 268.968 105.378 269 105.271 269H104.471C104.364 269 104.274 268.968 104.199 268.904C104.135 268.829 104.103 268.739 104.103 268.632V264.2C104.103 263.453 103.922 262.872 103.559 262.456C103.196 262.029 102.663 261.816 101.959 261.816C101.298 261.816 100.764 262.029 100.359 262.456C99.9642 262.872 99.7669 263.453 99.7669 264.2V268.632C99.7669 268.739 99.7295 268.829 99.6549 268.904C99.5909 268.968 99.5055 269 99.3989 269H98.5989ZM111.246 269.16C110.147 269.16 109.273 268.824 108.622 268.152C107.971 267.469 107.614 266.541 107.55 265.368C107.539 265.229 107.534 265.053 107.534 264.84C107.534 264.616 107.539 264.435 107.55 264.296C107.593 263.539 107.769 262.877 108.078 262.312C108.387 261.736 108.809 261.293 109.342 260.984C109.886 260.675 110.521 260.52 111.246 260.52C112.057 260.52 112.734 260.691 113.278 261.032C113.833 261.373 114.254 261.859 114.542 262.488C114.83 263.117 114.974 263.853 114.974 264.696V264.968C114.974 265.085 114.937 265.176 114.862 265.24C114.798 265.304 114.713 265.336 114.606 265.336H109.07C109.07 265.347 109.07 265.368 109.07 265.4C109.07 265.432 109.07 265.459 109.07 265.48C109.091 265.917 109.187 266.328 109.358 266.712C109.529 267.085 109.774 267.389 110.094 267.624C110.414 267.859 110.798 267.976 111.246 267.976C111.63 267.976 111.95 267.917 112.206 267.8C112.462 267.683 112.67 267.555 112.83 267.416C112.99 267.267 113.097 267.155 113.15 267.08C113.246 266.941 113.321 266.861 113.374 266.84C113.427 266.808 113.513 266.792 113.63 266.792H114.398C114.505 266.792 114.59 266.824 114.654 266.888C114.729 266.941 114.761 267.021 114.75 267.128C114.739 267.288 114.654 267.485 114.494 267.72C114.334 267.944 114.105 268.168 113.806 268.392C113.507 268.616 113.145 268.803 112.718 268.952C112.291 269.091 111.801 269.16 111.246 269.16ZM109.07 264.232H113.454V264.184C113.454 263.704 113.363 263.277 113.182 262.904C113.011 262.531 112.761 262.237 112.43 262.024C112.099 261.8 111.705 261.688 111.246 261.688C110.787 261.688 110.393 261.8 110.062 262.024C109.742 262.237 109.497 262.531 109.326 262.904C109.155 263.277 109.07 263.704 109.07 264.184V264.232ZM120.247 269.16C119.49 269.16 118.834 269.016 118.279 268.728C117.735 268.429 117.314 268.008 117.015 267.464C116.716 266.909 116.556 266.248 116.535 265.48C116.524 265.32 116.519 265.107 116.519 264.84C116.519 264.573 116.524 264.36 116.535 264.2C116.556 263.432 116.716 262.776 117.015 262.232C117.314 261.677 117.735 261.256 118.279 260.968C118.834 260.669 119.49 260.52 120.247 260.52C120.866 260.52 121.394 260.605 121.831 260.776C122.279 260.947 122.647 261.165 122.935 261.432C123.223 261.699 123.436 261.987 123.575 262.296C123.724 262.605 123.804 262.899 123.815 263.176C123.826 263.283 123.794 263.368 123.719 263.432C123.644 263.496 123.554 263.528 123.447 263.528H122.679C122.572 263.528 122.492 263.507 122.439 263.464C122.386 263.411 122.332 263.325 122.279 263.208C122.087 262.685 121.826 262.317 121.495 262.104C121.164 261.891 120.754 261.784 120.263 261.784C119.623 261.784 119.1 261.981 118.695 262.376C118.3 262.771 118.087 263.405 118.055 264.28C118.044 264.664 118.044 265.037 118.055 265.4C118.087 266.285 118.3 266.925 118.695 267.32C119.1 267.704 119.623 267.896 120.263 267.896C120.754 267.896 121.164 267.789 121.495 267.576C121.826 267.363 122.087 266.995 122.279 266.472C122.332 266.355 122.386 266.275 122.439 266.232C122.492 266.179 122.572 266.152 122.679 266.152H123.447C123.554 266.152 123.644 266.184 123.719 266.248C123.794 266.312 123.826 266.397 123.815 266.504C123.804 266.728 123.756 266.957 123.671 267.192C123.586 267.427 123.447 267.667 123.255 267.912C123.074 268.147 122.844 268.36 122.567 268.552C122.29 268.733 121.954 268.883 121.559 269C121.175 269.107 120.738 269.16 120.247 269.16ZM128.963 269C128.366 269 127.881 268.888 127.507 268.664C127.134 268.429 126.862 268.104 126.691 267.688C126.521 267.261 126.435 266.76 126.435 266.184V261.96H125.187C125.081 261.96 124.99 261.928 124.915 261.864C124.851 261.789 124.819 261.699 124.819 261.592V261.048C124.819 260.941 124.851 260.856 124.915 260.792C124.99 260.717 125.081 260.68 125.187 260.68H126.435V258.008C126.435 257.901 126.467 257.816 126.531 257.752C126.606 257.677 126.697 257.64 126.803 257.64H127.555C127.662 257.64 127.747 257.677 127.811 257.752C127.886 257.816 127.923 257.901 127.923 258.008V260.68H129.907C130.014 260.68 130.099 260.717 130.163 260.792C130.238 260.856 130.275 260.941 130.275 261.048V261.592C130.275 261.699 130.238 261.789 130.163 261.864C130.099 261.928 130.014 261.96 129.907 261.96H127.923V266.072C127.923 266.573 128.009 266.968 128.179 267.256C128.35 267.544 128.654 267.688 129.091 267.688H130.067C130.174 267.688 130.259 267.725 130.323 267.8C130.398 267.864 130.435 267.949 130.435 268.056V268.632C130.435 268.739 130.398 268.829 130.323 268.904C130.259 268.968 130.174 269 130.067 269H128.963ZM137.72 269C137.581 269 137.475 268.968 137.4 268.904C137.325 268.829 137.261 268.728 137.208 268.6L134.936 261.176C134.915 261.123 134.904 261.069 134.904 261.016C134.904 260.92 134.936 260.84 135 260.776C135.075 260.712 135.155 260.68 135.24 260.68H135.944C136.061 260.68 136.152 260.712 136.216 260.776C136.28 260.84 136.323 260.899 136.344 260.952L138.12 266.984L140.024 261.016C140.045 260.941 140.088 260.867 140.152 260.792C140.227 260.717 140.333 260.68 140.472 260.68H141.016C141.155 260.68 141.261 260.717 141.336 260.792C141.411 260.867 141.453 260.941 141.464 261.016L143.368 266.984L145.144 260.952C145.155 260.899 145.192 260.84 145.256 260.776C145.32 260.712 145.411 260.68 145.528 260.68H146.232C146.328 260.68 146.408 260.712 146.472 260.776C146.536 260.84 146.568 260.92 146.568 261.016C146.568 261.069 146.557 261.123 146.536 261.176L144.264 268.6C144.232 268.728 144.173 268.829 144.088 268.904C144.013 268.968 143.901 269 143.752 269H143.128C142.989 269 142.872 268.968 142.776 268.904C142.691 268.829 142.632 268.728 142.6 268.6L140.744 262.872L138.888 268.6C138.845 268.728 138.781 268.829 138.696 268.904C138.611 268.968 138.493 269 138.344 269H137.72ZM148.708 269C148.602 269 148.511 268.968 148.436 268.904C148.372 268.829 148.34 268.739 148.34 268.632V261.048C148.34 260.941 148.372 260.856 148.436 260.792C148.511 260.717 148.602 260.68 148.708 260.68H149.476C149.583 260.68 149.668 260.717 149.732 260.792C149.796 260.856 149.828 260.941 149.828 261.048V268.632C149.828 268.739 149.796 268.829 149.732 268.904C149.668 268.968 149.583 269 149.476 269H148.708ZM148.58 259.128C148.474 259.128 148.383 259.096 148.308 259.032C148.244 258.957 148.212 258.867 148.212 258.76V257.896C148.212 257.789 148.244 257.704 148.308 257.64C148.383 257.565 148.474 257.528 148.58 257.528H149.588C149.695 257.528 149.78 257.565 149.844 257.64C149.919 257.704 149.956 257.789 149.956 257.896V258.76C149.956 258.867 149.919 258.957 149.844 259.032C149.78 259.096 149.695 259.128 149.588 259.128H148.58ZM155.463 269C154.866 269 154.381 268.888 154.007 268.664C153.634 268.429 153.362 268.104 153.191 267.688C153.021 267.261 152.935 266.76 152.935 266.184V261.96H151.687C151.581 261.96 151.49 261.928 151.415 261.864C151.351 261.789 151.319 261.699 151.319 261.592V261.048C151.319 260.941 151.351 260.856 151.415 260.792C151.49 260.717 151.581 260.68 151.687 260.68H152.935V258.008C152.935 257.901 152.967 257.816 153.031 257.752C153.106 257.677 153.197 257.64 153.303 257.64H154.055C154.162 257.64 154.247 257.677 154.311 257.752C154.386 257.816 154.423 257.901 154.423 258.008V260.68H156.407C156.514 260.68 156.599 260.717 156.663 260.792C156.738 260.856 156.775 260.941 156.775 261.048V261.592C156.775 261.699 156.738 261.789 156.663 261.864C156.599 261.928 156.514 261.96 156.407 261.96H154.423V266.072C154.423 266.573 154.509 266.968 154.679 267.256C154.85 267.544 155.154 267.688 155.591 267.688H156.567C156.674 267.688 156.759 267.725 156.823 267.8C156.898 267.864 156.935 267.949 156.935 268.056V268.632C156.935 268.739 156.898 268.829 156.823 268.904C156.759 268.968 156.674 269 156.567 269H155.463ZM158.849 269C158.743 269 158.652 268.968 158.577 268.904C158.513 268.829 158.481 268.739 158.481 268.632V258.008C158.481 257.901 158.513 257.816 158.577 257.752C158.652 257.677 158.743 257.64 158.849 257.64H159.649C159.767 257.64 159.857 257.677 159.921 257.752C159.985 257.816 160.017 257.901 160.017 258.008V261.736C160.305 261.373 160.657 261.08 161.073 260.856C161.489 260.632 162.017 260.52 162.657 260.52C163.351 260.52 163.937 260.675 164.417 260.984C164.908 261.283 165.276 261.704 165.521 262.248C165.777 262.781 165.905 263.405 165.905 264.12V268.632C165.905 268.739 165.873 268.829 165.809 268.904C165.745 268.968 165.655 269 165.537 269H164.737C164.631 269 164.54 268.968 164.465 268.904C164.401 268.829 164.369 268.739 164.369 268.632V264.2C164.369 263.453 164.188 262.872 163.825 262.456C163.463 262.029 162.929 261.816 162.225 261.816C161.564 261.816 161.031 262.029 160.625 262.456C160.22 262.872 160.017 263.453 160.017 264.2V268.632C160.017 268.739 159.985 268.829 159.921 268.904C159.857 268.968 159.767 269 159.649 269H158.849ZM172.521 272.04C172.414 272.04 172.324 272.003 172.249 271.928C172.185 271.864 172.153 271.779 172.153 271.672V261.048C172.153 260.941 172.185 260.856 172.249 260.792C172.324 260.717 172.414 260.68 172.521 260.68H173.257C173.364 260.68 173.449 260.717 173.513 260.792C173.588 260.856 173.625 260.941 173.625 261.048V261.752C173.881 261.4 174.222 261.107 174.649 260.872C175.076 260.637 175.609 260.52 176.249 260.52C176.846 260.52 177.353 260.621 177.769 260.824C178.196 261.027 178.542 261.304 178.809 261.656C179.086 262.008 179.294 262.408 179.433 262.856C179.572 263.304 179.646 263.784 179.657 264.296C179.668 264.467 179.673 264.648 179.673 264.84C179.673 265.032 179.668 265.213 179.657 265.384C179.646 265.885 179.572 266.365 179.433 266.824C179.294 267.272 179.086 267.672 178.809 268.024C178.542 268.365 178.196 268.643 177.769 268.856C177.353 269.059 176.846 269.16 176.249 269.16C175.63 269.16 175.108 269.048 174.681 268.824C174.265 268.589 173.924 268.301 173.657 267.96V271.672C173.657 271.779 173.625 271.864 173.561 271.928C173.497 272.003 173.406 272.04 173.289 272.04H172.521ZM175.913 267.864C176.468 267.864 176.9 267.747 177.209 267.512C177.529 267.267 177.758 266.952 177.897 266.568C178.036 266.173 178.116 265.752 178.137 265.304C178.148 264.995 178.148 264.685 178.137 264.376C178.116 263.928 178.036 263.512 177.897 263.128C177.758 262.733 177.529 262.419 177.209 262.184C176.9 261.939 176.468 261.816 175.913 261.816C175.39 261.816 174.964 261.939 174.633 262.184C174.313 262.429 174.073 262.744 173.913 263.128C173.764 263.501 173.678 263.885 173.657 264.28C173.646 264.451 173.641 264.653 173.641 264.888C173.641 265.123 173.646 265.331 173.657 265.512C173.668 265.885 173.753 266.253 173.913 266.616C174.084 266.979 174.334 267.277 174.665 267.512C174.996 267.747 175.412 267.864 175.913 267.864ZM182.036 269C181.93 269 181.839 268.968 181.764 268.904C181.7 268.829 181.668 268.739 181.668 268.632V261.048C181.668 260.941 181.7 260.856 181.764 260.792C181.839 260.717 181.93 260.68 182.036 260.68H182.804C182.911 260.68 182.996 260.717 183.06 260.792C183.124 260.856 183.156 260.941 183.156 261.048V268.632C183.156 268.739 183.124 268.829 183.06 268.904C182.996 268.968 182.911 269 182.804 269H182.036ZM181.908 259.128C181.802 259.128 181.711 259.096 181.636 259.032C181.572 258.957 181.54 258.867 181.54 258.76V257.896C181.54 257.789 181.572 257.704 181.636 257.64C181.711 257.565 181.802 257.528 181.908 257.528H182.916C183.023 257.528 183.108 257.565 183.172 257.64C183.247 257.704 183.284 257.789 183.284 257.896V258.76C183.284 258.867 183.247 258.957 183.172 259.032C183.108 259.096 183.023 259.128 182.916 259.128H181.908ZM186.068 269C185.961 269 185.87 268.968 185.796 268.904C185.732 268.829 185.7 268.739 185.7 268.632V261.048C185.7 260.941 185.732 260.856 185.796 260.792C185.87 260.717 185.961 260.68 186.068 260.68H186.82C186.926 260.68 187.012 260.717 187.076 260.792C187.15 260.856 187.188 260.941 187.188 261.048V261.752C187.465 261.389 187.812 261.096 188.228 260.872C188.654 260.637 189.198 260.52 189.86 260.52C190.553 260.52 191.14 260.675 191.62 260.984C192.11 261.283 192.478 261.704 192.724 262.248C192.969 262.781 193.092 263.405 193.092 264.12V268.632C193.092 268.739 193.06 268.829 192.996 268.904C192.932 268.968 192.846 269 192.74 269H191.94C191.833 269 191.742 268.968 191.668 268.904C191.604 268.829 191.572 268.739 191.572 268.632V264.2C191.572 263.453 191.39 262.872 191.028 262.456C190.665 262.029 190.132 261.816 189.428 261.816C188.766 261.816 188.233 262.029 187.828 262.456C187.433 262.872 187.236 263.453 187.236 264.2V268.632C187.236 268.739 187.198 268.829 187.124 268.904C187.06 268.968 186.974 269 186.868 269H186.068ZM198.811 272.52C198.085 272.52 197.488 272.424 197.019 272.232C196.56 272.04 196.197 271.805 195.931 271.528C195.675 271.261 195.488 270.989 195.371 270.712C195.264 270.445 195.205 270.232 195.195 270.072C195.184 269.965 195.216 269.875 195.291 269.8C195.376 269.725 195.467 269.688 195.563 269.688H196.331C196.427 269.688 196.507 269.709 196.571 269.752C196.635 269.795 196.688 269.885 196.731 270.024C196.795 270.184 196.891 270.36 197.019 270.552C197.147 270.755 197.344 270.925 197.611 271.064C197.877 271.213 198.251 271.288 198.731 271.288C199.232 271.288 199.653 271.219 199.995 271.08C200.336 270.952 200.592 270.717 200.763 270.376C200.944 270.045 201.035 269.587 201.035 269V267.912C200.779 268.243 200.443 268.52 200.027 268.744C199.611 268.957 199.088 269.064 198.459 269.064C197.861 269.064 197.349 268.963 196.923 268.76C196.496 268.547 196.144 268.264 195.867 267.912C195.6 267.549 195.397 267.139 195.259 266.68C195.131 266.221 195.056 265.741 195.035 265.24C195.024 264.941 195.024 264.648 195.035 264.36C195.056 263.859 195.131 263.379 195.259 262.92C195.397 262.461 195.6 262.051 195.867 261.688C196.144 261.325 196.496 261.043 196.923 260.84C197.349 260.627 197.861 260.52 198.459 260.52C199.099 260.52 199.627 260.643 200.043 260.888C200.469 261.123 200.816 261.411 201.083 261.752V261.064C201.083 260.957 201.115 260.867 201.179 260.792C201.253 260.717 201.344 260.68 201.451 260.68H202.187C202.293 260.68 202.384 260.717 202.459 260.792C202.533 260.867 202.571 260.957 202.571 261.064V268.824C202.571 269.539 202.448 270.173 202.203 270.728C201.968 271.283 201.573 271.72 201.019 272.04C200.475 272.36 199.739 272.52 198.811 272.52ZM198.779 267.784C199.312 267.784 199.739 267.661 200.059 267.416C200.389 267.171 200.629 266.861 200.779 266.488C200.939 266.115 201.024 265.736 201.035 265.352C201.045 265.203 201.051 265.021 201.051 264.808C201.051 264.584 201.045 264.397 201.035 264.248C201.024 263.864 200.939 263.485 200.779 263.112C200.629 262.739 200.389 262.429 200.059 262.184C199.739 261.939 199.312 261.816 198.779 261.816C198.245 261.816 197.819 261.939 197.499 262.184C197.179 262.419 196.949 262.733 196.811 263.128C196.672 263.512 196.592 263.928 196.571 264.376C196.56 264.653 196.56 264.936 196.571 265.224C196.592 265.672 196.672 266.093 196.811 266.488C196.949 266.872 197.179 267.187 197.499 267.432C197.819 267.667 198.245 267.784 198.779 267.784ZM209.256 272.04C209.149 272.04 209.058 272.003 208.984 271.928C208.92 271.864 208.888 271.779 208.888 271.672V261.048C208.888 260.941 208.92 260.856 208.984 260.792C209.058 260.717 209.149 260.68 209.256 260.68H209.992C210.098 260.68 210.184 260.717 210.248 260.792C210.322 260.856 210.36 260.941 210.36 261.048V261.752C210.616 261.4 210.957 261.107 211.384 260.872C211.81 260.637 212.344 260.52 212.984 260.52C213.581 260.52 214.088 260.621 214.504 260.824C214.93 261.027 215.277 261.304 215.544 261.656C215.821 262.008 216.029 262.408 216.168 262.856C216.306 263.304 216.381 263.784 216.392 264.296C216.402 264.467 216.408 264.648 216.408 264.84C216.408 265.032 216.402 265.213 216.392 265.384C216.381 265.885 216.306 266.365 216.168 266.824C216.029 267.272 215.821 267.672 215.544 268.024C215.277 268.365 214.93 268.643 214.504 268.856C214.088 269.059 213.581 269.16 212.984 269.16C212.365 269.16 211.842 269.048 211.416 268.824C211 268.589 210.658 268.301 210.392 267.96V271.672C210.392 271.779 210.36 271.864 210.296 271.928C210.232 272.003 210.141 272.04 210.024 272.04H209.256ZM212.648 267.864C213.202 267.864 213.634 267.747 213.944 267.512C214.264 267.267 214.493 266.952 214.632 266.568C214.77 266.173 214.85 265.752 214.872 265.304C214.882 264.995 214.882 264.685 214.872 264.376C214.85 263.928 214.77 263.512 214.632 263.128C214.493 262.733 214.264 262.419 213.944 262.184C213.634 261.939 213.202 261.816 212.648 261.816C212.125 261.816 211.698 261.939 211.368 262.184C211.048 262.429 210.808 262.744 210.648 263.128C210.498 263.501 210.413 263.885 210.392 264.28C210.381 264.451 210.376 264.653 210.376 264.888C210.376 265.123 210.381 265.331 210.392 265.512C210.402 265.885 210.488 266.253 210.648 266.616C210.818 266.979 211.069 267.277 211.4 267.512C211.73 267.747 212.146 267.864 212.648 267.864ZM221.811 269.16C221 269.16 220.323 269.005 219.779 268.696C219.235 268.387 218.819 267.96 218.531 267.416C218.243 266.861 218.083 266.232 218.051 265.528C218.04 265.347 218.035 265.117 218.035 264.84C218.035 264.552 218.04 264.323 218.051 264.152C218.083 263.437 218.243 262.808 218.531 262.264C218.829 261.72 219.251 261.293 219.795 260.984C220.339 260.675 221.011 260.52 221.811 260.52C222.611 260.52 223.283 260.675 223.827 260.984C224.371 261.293 224.787 261.72 225.075 262.264C225.373 262.808 225.539 263.437 225.571 264.152C225.581 264.323 225.587 264.552 225.587 264.84C225.587 265.117 225.581 265.347 225.571 265.528C225.539 266.232 225.379 266.861 225.091 267.416C224.803 267.96 224.387 268.387 223.843 268.696C223.299 269.005 222.621 269.16 221.811 269.16ZM221.811 267.928C222.472 267.928 223 267.72 223.395 267.304C223.789 266.877 224.003 266.259 224.035 265.448C224.045 265.288 224.051 265.085 224.051 264.84C224.051 264.595 224.045 264.392 224.035 264.232C224.003 263.421 223.789 262.808 223.395 262.392C223 261.965 222.472 261.752 221.811 261.752C221.149 261.752 220.616 261.965 220.211 262.392C219.816 262.808 219.608 263.421 219.587 264.232C219.576 264.392 219.571 264.595 219.571 264.84C219.571 265.085 219.576 265.288 219.587 265.448C219.608 266.259 219.816 266.877 220.211 267.304C220.616 267.72 221.149 267.928 221.811 267.928ZM227.958 269C227.852 269 227.761 268.968 227.686 268.904C227.622 268.829 227.59 268.739 227.59 268.632V261.048C227.59 260.941 227.622 260.856 227.686 260.792C227.761 260.717 227.852 260.68 227.958 260.68H228.71C228.817 260.68 228.902 260.717 228.966 260.792C229.041 260.856 229.078 260.941 229.078 261.048V261.752C229.356 261.389 229.702 261.096 230.118 260.872C230.545 260.637 231.089 260.52 231.75 260.52C232.444 260.52 233.03 260.675 233.51 260.984C234.001 261.283 234.369 261.704 234.614 262.248C234.86 262.781 234.982 263.405 234.982 264.12V268.632C234.982 268.739 234.95 268.829 234.886 268.904C234.822 268.968 234.737 269 234.63 269H233.83C233.724 269 233.633 268.968 233.558 268.904C233.494 268.829 233.462 268.739 233.462 268.632V264.2C233.462 263.453 233.281 262.872 232.918 262.456C232.556 262.029 232.022 261.816 231.318 261.816C230.657 261.816 230.124 262.029 229.718 262.456C229.324 262.872 229.126 263.453 229.126 264.2V268.632C229.126 268.739 229.089 268.829 229.014 268.904C228.95 268.968 228.865 269 228.758 269H227.958ZM240.701 272.52C239.976 272.52 239.379 272.424 238.909 272.232C238.451 272.04 238.088 271.805 237.821 271.528C237.565 271.261 237.379 270.989 237.261 270.712C237.155 270.445 237.096 270.232 237.085 270.072C237.075 269.965 237.107 269.875 237.181 269.8C237.267 269.725 237.357 269.688 237.453 269.688H238.221C238.317 269.688 238.397 269.709 238.461 269.752C238.525 269.795 238.579 269.885 238.621 270.024C238.685 270.184 238.781 270.36 238.909 270.552C239.037 270.755 239.235 270.925 239.501 271.064C239.768 271.213 240.141 271.288 240.621 271.288C241.123 271.288 241.544 271.219 241.885 271.08C242.227 270.952 242.483 270.717 242.653 270.376C242.835 270.045 242.925 269.587 242.925 269V267.912C242.669 268.243 242.333 268.52 241.917 268.744C241.501 268.957 240.979 269.064 240.349 269.064C239.752 269.064 239.24 268.963 238.813 268.76C238.387 268.547 238.035 268.264 237.757 267.912C237.491 267.549 237.288 267.139 237.149 266.68C237.021 266.221 236.947 265.741 236.925 265.24C236.915 264.941 236.915 264.648 236.925 264.36C236.947 263.859 237.021 263.379 237.149 262.92C237.288 262.461 237.491 262.051 237.757 261.688C238.035 261.325 238.387 261.043 238.813 260.84C239.24 260.627 239.752 260.52 240.349 260.52C240.989 260.52 241.517 260.643 241.933 260.888C242.36 261.123 242.707 261.411 242.973 261.752V261.064C242.973 260.957 243.005 260.867 243.069 260.792C243.144 260.717 243.235 260.68 243.341 260.68H244.077C244.184 260.68 244.275 260.717 244.349 260.792C244.424 260.867 244.461 260.957 244.461 261.064V268.824C244.461 269.539 244.339 270.173 244.093 270.728C243.859 271.283 243.464 271.72 242.909 272.04C242.365 272.36 241.629 272.52 240.701 272.52ZM240.669 267.784C241.203 267.784 241.629 267.661 241.949 267.416C242.28 267.171 242.52 266.861 242.669 266.488C242.829 266.115 242.915 265.736 242.925 265.352C242.936 265.203 242.941 265.021 242.941 264.808C242.941 264.584 242.936 264.397 242.925 264.248C242.915 263.864 242.829 263.485 242.669 263.112C242.52 262.739 242.28 262.429 241.949 262.184C241.629 261.939 241.203 261.816 240.669 261.816C240.136 261.816 239.709 261.939 239.389 262.184C239.069 262.419 238.84 262.733 238.701 263.128C238.563 263.512 238.483 263.928 238.461 264.376C238.451 264.653 238.451 264.936 238.461 265.224C238.483 265.672 238.563 266.093 238.701 266.488C238.84 266.872 239.069 267.187 239.389 267.432C239.709 267.667 240.136 267.784 240.669 267.784ZM51.621 285.16C50.5223 285.16 49.6477 284.824 48.997 284.152C48.3463 283.469 47.989 282.541 47.925 281.368C47.9143 281.229 47.909 281.053 47.909 280.84C47.909 280.616 47.9143 280.435 47.925 280.296C47.9677 279.539 48.1437 278.877 48.453 278.312C48.7623 277.736 49.1837 277.293 49.717 276.984C50.261 276.675 50.8957 276.52 51.621 276.52C52.4317 276.52 53.109 276.691 53.653 277.032C54.2077 277.373 54.629 277.859 54.917 278.488C55.205 279.117 55.349 279.853 55.349 280.696V280.968C55.349 281.085 55.3117 281.176 55.237 281.24C55.173 281.304 55.0877 281.336 54.981 281.336H49.445C49.445 281.347 49.445 281.368 49.445 281.4C49.445 281.432 49.445 281.459 49.445 281.48C49.4663 281.917 49.5623 282.328 49.733 282.712C49.9037 283.085 50.149 283.389 50.469 283.624C50.789 283.859 51.173 283.976 51.621 283.976C52.005 283.976 52.325 283.917 52.581 283.8C52.837 283.683 53.045 283.555 53.205 283.416C53.365 283.267 53.4717 283.155 53.525 283.08C53.621 282.941 53.6957 282.861 53.749 282.84C53.8023 282.808 53.8877 282.792 54.005 282.792H54.773C54.8797 282.792 54.965 282.824 55.029 282.888C55.1037 282.941 55.1357 283.021 55.125 283.128C55.1143 283.288 55.029 283.485 54.869 283.72C54.709 283.944 54.4797 284.168 54.181 284.392C53.8823 284.616 53.5197 284.803 53.093 284.952C52.6663 285.091 52.1757 285.16 51.621 285.16ZM49.445 280.232H53.829V280.184C53.829 279.704 53.7383 279.277 53.557 278.904C53.3863 278.531 53.1357 278.237 52.805 278.024C52.4743 277.8 52.0797 277.688 51.621 277.688C51.1623 277.688 50.7677 277.8 50.437 278.024C50.117 278.237 49.8717 278.531 49.701 278.904C49.5303 279.277 49.445 279.704 49.445 280.184V280.232ZM57.6301 285C57.5235 285 57.4328 284.968 57.3581 284.904C57.2941 284.829 57.2621 284.739 57.2621 284.632V277.048C57.2621 276.941 57.2941 276.856 57.3581 276.792C57.4328 276.717 57.5235 276.68 57.6301 276.68H58.3821C58.4888 276.68 58.5741 276.717 58.6381 276.792C58.7128 276.856 58.7501 276.941 58.7501 277.048V277.752C59.0275 277.389 59.3741 277.096 59.7901 276.872C60.2168 276.637 60.7608 276.52 61.4221 276.52C62.1155 276.52 62.7021 276.675 63.1821 276.984C63.6728 277.283 64.0408 277.704 64.2861 278.248C64.5315 278.781 64.6541 279.405 64.6541 280.12V284.632C64.6541 284.739 64.6221 284.829 64.5581 284.904C64.4941 284.968 64.4088 285 64.3021 285H63.5021C63.3955 285 63.3048 284.968 63.2301 284.904C63.1661 284.829 63.1341 284.739 63.1341 284.632V280.2C63.1341 279.453 62.9528 278.872 62.5901 278.456C62.2275 278.029 61.6941 277.816 60.9901 277.816C60.3288 277.816 59.7955 278.029 59.3901 278.456C58.9955 278.872 58.7981 279.453 58.7981 280.2V284.632C58.7981 284.739 58.7608 284.829 58.6861 284.904C58.6221 284.968 58.5368 285 58.4301 285H57.6301ZM70.1039 285C69.5065 285 69.0212 284.888 68.6479 284.664C68.2745 284.429 68.0025 284.104 67.8319 283.688C67.6612 283.261 67.5759 282.76 67.5759 282.184V277.96H66.3279C66.2212 277.96 66.1305 277.928 66.0559 277.864C65.9919 277.789 65.9599 277.699 65.9599 277.592V277.048C65.9599 276.941 65.9919 276.856 66.0559 276.792C66.1305 276.717 66.2212 276.68 66.3279 276.68H67.5759V274.008C67.5759 273.901 67.6079 273.816 67.6719 273.752C67.7465 273.677 67.8372 273.64 67.9439 273.64H68.6959C68.8025 273.64 68.8879 273.677 68.9519 273.752C69.0265 273.816 69.0639 273.901 69.0639 274.008V276.68H71.0479C71.1545 276.68 71.2399 276.717 71.3039 276.792C71.3785 276.856 71.4159 276.941 71.4159 277.048V277.592C71.4159 277.699 71.3785 277.789 71.3039 277.864C71.2399 277.928 71.1545 277.96 71.0479 277.96H69.0639V282.072C69.0639 282.573 69.1492 282.968 69.3199 283.256C69.4905 283.544 69.7945 283.688 70.2319 283.688H71.2079C71.3145 283.688 71.3999 283.725 71.4639 283.8C71.5385 283.864 71.5759 283.949 71.5759 284.056V284.632C71.5759 284.739 71.5385 284.829 71.4639 284.904C71.3999 284.968 71.3145 285 71.2079 285H70.1039ZM73.4899 285C73.3832 285 73.2925 284.968 73.2179 284.904C73.1539 284.829 73.1219 284.739 73.1219 284.632V274.008C73.1219 273.901 73.1539 273.816 73.2179 273.752C73.2925 273.677 73.3832 273.64 73.4899 273.64H74.2899C74.4072 273.64 74.4979 273.677 74.5619 273.752C74.6259 273.816 74.6579 273.901 74.6579 274.008V277.736C74.9459 277.373 75.2979 277.08 75.7139 276.856C76.1299 276.632 76.6579 276.52 77.2979 276.52C77.9912 276.52 78.5779 276.675 79.0579 276.984C79.5485 277.283 79.9165 277.704 80.1619 278.248C80.4179 278.781 80.5459 279.405 80.5459 280.12V284.632C80.5459 284.739 80.5139 284.829 80.4499 284.904C80.3859 284.968 80.2952 285 80.1779 285H79.3779C79.2712 285 79.1805 284.968 79.1059 284.904C79.0419 284.829 79.0099 284.739 79.0099 284.632V280.2C79.0099 279.453 78.8285 278.872 78.4659 278.456C78.1032 278.029 77.5699 277.816 76.8659 277.816C76.2045 277.816 75.6712 278.029 75.2659 278.456C74.8605 278.872 74.6579 279.453 74.6579 280.2V284.632C74.6579 284.739 74.6259 284.829 74.5619 284.904C74.4979 284.968 74.4072 285 74.2899 285H73.4899ZM85.9599 285.16C85.2772 285.16 84.6959 285.011 84.2159 284.712C83.7465 284.403 83.3892 283.976 83.1439 283.432C82.8985 282.888 82.7759 282.264 82.7759 281.56V277.048C82.7759 276.941 82.8079 276.856 82.8719 276.792C82.9465 276.717 83.0372 276.68 83.1439 276.68H83.9439C84.0505 276.68 84.1359 276.717 84.1999 276.792C84.2745 276.856 84.3119 276.941 84.3119 277.048V281.48C84.3119 283.069 85.0052 283.864 86.3919 283.864C87.0532 283.864 87.5812 283.656 87.9759 283.24C88.3812 282.813 88.5839 282.227 88.5839 281.48V277.048C88.5839 276.941 88.6159 276.856 88.6799 276.792C88.7545 276.717 88.8452 276.68 88.9519 276.68H89.7359C89.8532 276.68 89.9439 276.717 90.0079 276.792C90.0719 276.856 90.1039 276.941 90.1039 277.048V284.632C90.1039 284.739 90.0719 284.829 90.0079 284.904C89.9439 284.968 89.8532 285 89.7359 285H88.9999C88.8932 285 88.8025 284.968 88.7279 284.904C88.6639 284.829 88.6319 284.739 88.6319 284.632V283.928C88.3439 284.301 87.9919 284.6 87.5759 284.824C87.1705 285.048 86.6319 285.16 85.9599 285.16ZM95.3609 285.16C94.7635 285.16 94.2515 285.085 93.8249 284.936C93.3982 284.787 93.0515 284.605 92.7849 284.392C92.5182 284.179 92.3155 283.965 92.1769 283.752C92.0489 283.539 91.9795 283.368 91.9689 283.24C91.9582 283.123 91.9955 283.032 92.0809 282.968C92.1662 282.904 92.2515 282.872 92.3369 282.872H93.0409C93.1049 282.872 93.1529 282.883 93.1849 282.904C93.2275 282.915 93.2809 282.957 93.3449 283.032C93.4835 283.181 93.6382 283.331 93.8089 283.48C93.9795 283.629 94.1875 283.752 94.4329 283.848C94.6889 283.944 95.0035 283.992 95.3769 283.992C95.9209 283.992 96.3689 283.891 96.7209 283.688C97.0729 283.475 97.2489 283.165 97.2489 282.76C97.2489 282.493 97.1742 282.28 97.0249 282.12C96.8862 281.96 96.6302 281.816 96.2569 281.688C95.8942 281.56 95.3929 281.427 94.7529 281.288C94.1129 281.139 93.6062 280.957 93.2329 280.744C92.8595 280.52 92.5929 280.259 92.4329 279.96C92.2729 279.651 92.1929 279.304 92.1929 278.92C92.1929 278.525 92.3102 278.147 92.5449 277.784C92.7795 277.411 93.1209 277.107 93.5689 276.872C94.0275 276.637 94.5982 276.52 95.2809 276.52C95.8355 276.52 96.3102 276.589 96.7049 276.728C97.0995 276.867 97.4249 277.043 97.6809 277.256C97.9369 277.459 98.1289 277.661 98.2569 277.864C98.3849 278.067 98.4542 278.237 98.4649 278.376C98.4755 278.483 98.4435 278.573 98.3689 278.648C98.2942 278.712 98.2089 278.744 98.1129 278.744H97.4409C97.3662 278.744 97.3022 278.728 97.2489 278.696C97.2062 278.664 97.1635 278.627 97.1209 278.584C97.0142 278.445 96.8862 278.307 96.7369 278.168C96.5982 278.029 96.4115 277.917 96.1769 277.832C95.9529 277.736 95.6542 277.688 95.2809 277.688C94.7475 277.688 94.3475 277.8 94.0809 278.024C93.8142 278.248 93.6809 278.531 93.6809 278.872C93.6809 279.075 93.7395 279.256 93.8569 279.416C93.9742 279.576 94.1982 279.72 94.5289 279.848C94.8595 279.976 95.3502 280.115 96.0009 280.264C96.7049 280.403 97.2595 280.589 97.6649 280.824C98.0702 281.059 98.3582 281.331 98.5289 281.64C98.6995 281.949 98.7849 282.307 98.7849 282.712C98.7849 283.16 98.6515 283.571 98.3849 283.944C98.1289 284.317 97.7449 284.616 97.2329 284.84C96.7315 285.053 96.1075 285.16 95.3609 285.16ZM101.005 285C100.898 285 100.808 284.968 100.733 284.904C100.669 284.829 100.637 284.739 100.637 284.632V277.048C100.637 276.941 100.669 276.856 100.733 276.792C100.808 276.717 100.898 276.68 101.005 276.68H101.773C101.88 276.68 101.965 276.717 102.029 276.792C102.093 276.856 102.125 276.941 102.125 277.048V284.632C102.125 284.739 102.093 284.829 102.029 284.904C101.965 284.968 101.88 285 101.773 285H101.005ZM100.877 275.128C100.77 275.128 100.68 275.096 100.605 275.032C100.541 274.957 100.509 274.867 100.509 274.76V273.896C100.509 273.789 100.541 273.704 100.605 273.64C100.68 273.565 100.77 273.528 100.877 273.528H101.885C101.992 273.528 102.077 273.565 102.141 273.64C102.216 273.704 102.253 273.789 102.253 273.896V274.76C102.253 274.867 102.216 274.957 102.141 275.032C102.077 275.096 101.992 275.128 101.885 275.128H100.877ZM106.832 285.16C106.299 285.16 105.813 285.053 105.376 284.84C104.939 284.627 104.587 284.339 104.32 283.976C104.053 283.613 103.92 283.203 103.92 282.744C103.92 282.008 104.219 281.421 104.816 280.984C105.413 280.547 106.192 280.259 107.152 280.12L109.536 279.784V279.32C109.536 278.808 109.387 278.408 109.088 278.12C108.8 277.832 108.325 277.688 107.664 277.688C107.184 277.688 106.795 277.784 106.496 277.976C106.208 278.168 106.005 278.413 105.888 278.712C105.824 278.872 105.712 278.952 105.552 278.952H104.832C104.715 278.952 104.624 278.92 104.56 278.856C104.507 278.781 104.48 278.696 104.48 278.6C104.48 278.44 104.539 278.243 104.656 278.008C104.784 277.773 104.976 277.544 105.232 277.32C105.488 277.096 105.813 276.909 106.208 276.76C106.613 276.6 107.104 276.52 107.68 276.52C108.32 276.52 108.859 276.605 109.296 276.776C109.733 276.936 110.075 277.155 110.32 277.432C110.576 277.709 110.757 278.024 110.864 278.376C110.981 278.728 111.04 279.085 111.04 279.448V284.632C111.04 284.739 111.003 284.829 110.928 284.904C110.864 284.968 110.779 285 110.672 285H109.936C109.819 285 109.728 284.968 109.664 284.904C109.6 284.829 109.568 284.739 109.568 284.632V283.944C109.429 284.136 109.243 284.328 109.008 284.52C108.773 284.701 108.48 284.856 108.128 284.984C107.776 285.101 107.344 285.16 106.832 285.16ZM107.168 283.96C107.605 283.96 108.005 283.869 108.368 283.688C108.731 283.496 109.013 283.203 109.216 282.808C109.429 282.413 109.536 281.917 109.536 281.32V280.872L107.68 281.144C106.923 281.251 106.352 281.432 105.968 281.688C105.584 281.933 105.392 282.248 105.392 282.632C105.392 282.931 105.477 283.181 105.648 283.384C105.829 283.576 106.053 283.72 106.32 283.816C106.597 283.912 106.88 283.96 107.168 283.96ZM116.22 285.16C115.623 285.16 115.111 285.085 114.684 284.936C114.258 284.787 113.911 284.605 113.644 284.392C113.378 284.179 113.175 283.965 113.036 283.752C112.908 283.539 112.839 283.368 112.828 283.24C112.818 283.123 112.855 283.032 112.94 282.968C113.026 282.904 113.111 282.872 113.196 282.872H113.9C113.964 282.872 114.012 282.883 114.044 282.904C114.087 282.915 114.14 282.957 114.204 283.032C114.343 283.181 114.498 283.331 114.668 283.48C114.839 283.629 115.047 283.752 115.292 283.848C115.548 283.944 115.863 283.992 116.236 283.992C116.78 283.992 117.228 283.891 117.58 283.688C117.932 283.475 118.108 283.165 118.108 282.76C118.108 282.493 118.034 282.28 117.884 282.12C117.746 281.96 117.49 281.816 117.116 281.688C116.754 281.56 116.252 281.427 115.612 281.288C114.972 281.139 114.466 280.957 114.092 280.744C113.719 280.52 113.452 280.259 113.292 279.96C113.132 279.651 113.052 279.304 113.052 278.92C113.052 278.525 113.17 278.147 113.404 277.784C113.639 277.411 113.98 277.107 114.428 276.872C114.887 276.637 115.458 276.52 116.14 276.52C116.695 276.52 117.17 276.589 117.564 276.728C117.959 276.867 118.284 277.043 118.54 277.256C118.796 277.459 118.988 277.661 119.116 277.864C119.244 278.067 119.314 278.237 119.324 278.376C119.335 278.483 119.303 278.573 119.228 278.648C119.154 278.712 119.068 278.744 118.972 278.744H118.3C118.226 278.744 118.162 278.728 118.108 278.696C118.066 278.664 118.023 278.627 117.98 278.584C117.874 278.445 117.746 278.307 117.596 278.168C117.458 278.029 117.271 277.917 117.036 277.832C116.812 277.736 116.514 277.688 116.14 277.688C115.607 277.688 115.207 277.8 114.94 278.024C114.674 278.248 114.54 278.531 114.54 278.872C114.54 279.075 114.599 279.256 114.716 279.416C114.834 279.576 115.058 279.72 115.388 279.848C115.719 279.976 116.21 280.115 116.86 280.264C117.564 280.403 118.119 280.589 118.524 280.824C118.93 281.059 119.218 281.331 119.388 281.64C119.559 281.949 119.644 282.307 119.644 282.712C119.644 283.16 119.511 283.571 119.244 283.944C118.988 284.317 118.604 284.616 118.092 284.84C117.591 285.053 116.967 285.16 116.22 285.16ZM124.729 285C124.132 285 123.646 284.888 123.273 284.664C122.9 284.429 122.628 284.104 122.457 283.688C122.286 283.261 122.201 282.76 122.201 282.184V277.96H120.953C120.846 277.96 120.756 277.928 120.681 277.864C120.617 277.789 120.585 277.699 120.585 277.592V277.048C120.585 276.941 120.617 276.856 120.681 276.792C120.756 276.717 120.846 276.68 120.953 276.68H122.201V274.008C122.201 273.901 122.233 273.816 122.297 273.752C122.372 273.677 122.462 273.64 122.569 273.64H123.321C123.428 273.64 123.513 273.677 123.577 273.752C123.652 273.816 123.689 273.901 123.689 274.008V276.68H125.673C125.78 276.68 125.865 276.717 125.929 276.792C126.004 276.856 126.041 276.941 126.041 277.048V277.592C126.041 277.699 126.004 277.789 125.929 277.864C125.865 277.928 125.78 277.96 125.673 277.96H123.689V282.072C123.689 282.573 123.774 282.968 123.945 283.256C124.116 283.544 124.42 283.688 124.857 283.688H125.833C125.94 283.688 126.025 283.725 126.089 283.8C126.164 283.864 126.201 283.949 126.201 284.056V284.632C126.201 284.739 126.164 284.829 126.089 284.904C126.025 284.968 125.94 285 125.833 285H124.729ZM130.611 285.16C130.014 285.16 129.502 285.085 129.075 284.936C128.648 284.787 128.302 284.605 128.035 284.392C127.768 284.179 127.566 283.965 127.427 283.752C127.299 283.539 127.23 283.368 127.219 283.24C127.208 283.123 127.246 283.032 127.331 282.968C127.416 282.904 127.502 282.872 127.587 282.872H128.291C128.355 282.872 128.403 282.883 128.435 282.904C128.478 282.915 128.531 282.957 128.595 283.032C128.734 283.181 128.888 283.331 129.059 283.48C129.23 283.629 129.438 283.752 129.683 283.848C129.939 283.944 130.254 283.992 130.627 283.992C131.171 283.992 131.619 283.891 131.971 283.688C132.323 283.475 132.499 283.165 132.499 282.76C132.499 282.493 132.424 282.28 132.275 282.12C132.136 281.96 131.88 281.816 131.507 281.688C131.144 281.56 130.643 281.427 130.003 281.288C129.363 281.139 128.856 280.957 128.483 280.744C128.11 280.52 127.843 280.259 127.683 279.96C127.523 279.651 127.443 279.304 127.443 278.92C127.443 278.525 127.56 278.147 127.795 277.784C128.03 277.411 128.371 277.107 128.819 276.872C129.278 276.637 129.848 276.52 130.531 276.52C131.086 276.52 131.56 276.589 131.955 276.728C132.35 276.867 132.675 277.043 132.931 277.256C133.187 277.459 133.379 277.661 133.507 277.864C133.635 278.067 133.704 278.237 133.715 278.376C133.726 278.483 133.694 278.573 133.619 278.648C133.544 278.712 133.459 278.744 133.363 278.744H132.691C132.616 278.744 132.552 278.728 132.499 278.696C132.456 278.664 132.414 278.627 132.371 278.584C132.264 278.445 132.136 278.307 131.987 278.168C131.848 278.029 131.662 277.917 131.427 277.832C131.203 277.736 130.904 277.688 130.531 277.688C129.998 277.688 129.598 277.8 129.331 278.024C129.064 278.248 128.931 278.531 128.931 278.872C128.931 279.075 128.99 279.256 129.107 279.416C129.224 279.576 129.448 279.72 129.779 279.848C130.11 279.976 130.6 280.115 131.251 280.264C131.955 280.403 132.51 280.589 132.915 280.824C133.32 281.059 133.608 281.331 133.779 281.64C133.95 281.949 134.035 282.307 134.035 282.712C134.035 283.16 133.902 283.571 133.635 283.944C133.379 284.317 132.995 284.616 132.483 284.84C131.982 285.053 131.358 285.16 130.611 285.16ZM142.129 285.16C141.596 285.16 141.11 285.053 140.673 284.84C140.236 284.627 139.884 284.339 139.617 283.976C139.35 283.613 139.217 283.203 139.217 282.744C139.217 282.008 139.516 281.421 140.113 280.984C140.71 280.547 141.489 280.259 142.449 280.12L144.833 279.784V279.32C144.833 278.808 144.684 278.408 144.385 278.12C144.097 277.832 143.622 277.688 142.961 277.688C142.481 277.688 142.092 277.784 141.793 277.976C141.505 278.168 141.302 278.413 141.185 278.712C141.121 278.872 141.009 278.952 140.849 278.952H140.129C140.012 278.952 139.921 278.92 139.857 278.856C139.804 278.781 139.777 278.696 139.777 278.6C139.777 278.44 139.836 278.243 139.953 278.008C140.081 277.773 140.273 277.544 140.529 277.32C140.785 277.096 141.11 276.909 141.505 276.76C141.91 276.6 142.401 276.52 142.977 276.52C143.617 276.52 144.156 276.605 144.593 276.776C145.03 276.936 145.372 277.155 145.617 277.432C145.873 277.709 146.054 278.024 146.161 278.376C146.278 278.728 146.337 279.085 146.337 279.448V284.632C146.337 284.739 146.3 284.829 146.225 284.904C146.161 284.968 146.076 285 145.969 285H145.233C145.116 285 145.025 284.968 144.961 284.904C144.897 284.829 144.865 284.739 144.865 284.632V283.944C144.726 284.136 144.54 284.328 144.305 284.52C144.07 284.701 143.777 284.856 143.425 284.984C143.073 285.101 142.641 285.16 142.129 285.16ZM142.465 283.96C142.902 283.96 143.302 283.869 143.665 283.688C144.028 283.496 144.31 283.203 144.513 282.808C144.726 282.413 144.833 281.917 144.833 281.32V280.872L142.977 281.144C142.22 281.251 141.649 281.432 141.265 281.688C140.881 281.933 140.689 282.248 140.689 282.632C140.689 282.931 140.774 283.181 140.945 283.384C141.126 283.576 141.35 283.72 141.617 283.816C141.894 283.912 142.177 283.96 142.465 283.96ZM149.005 285C148.898 285 148.808 284.968 148.733 284.904C148.669 284.829 148.637 284.739 148.637 284.632V277.048C148.637 276.941 148.669 276.856 148.733 276.792C148.808 276.717 148.898 276.68 149.005 276.68H149.757C149.864 276.68 149.949 276.717 150.013 276.792C150.088 276.856 150.125 276.941 150.125 277.048V277.752C150.402 277.389 150.749 277.096 151.165 276.872C151.592 276.637 152.136 276.52 152.797 276.52C153.49 276.52 154.077 276.675 154.557 276.984C155.048 277.283 155.416 277.704 155.661 278.248C155.906 278.781 156.029 279.405 156.029 280.12V284.632C156.029 284.739 155.997 284.829 155.933 284.904C155.869 284.968 155.784 285 155.677 285H154.877C154.77 285 154.68 284.968 154.605 284.904C154.541 284.829 154.509 284.739 154.509 284.632V280.2C154.509 279.453 154.328 278.872 153.965 278.456C153.602 278.029 153.069 277.816 152.365 277.816C151.704 277.816 151.17 278.029 150.765 278.456C150.37 278.872 150.173 279.453 150.173 280.2V284.632C150.173 284.739 150.136 284.829 150.061 284.904C149.997 284.968 149.912 285 149.805 285H149.005ZM161.38 285.16C160.794 285.16 160.287 285.059 159.86 284.856C159.434 284.643 159.082 284.36 158.804 284.008C158.538 283.645 158.335 283.235 158.196 282.776C158.068 282.317 157.994 281.832 157.972 281.32C157.962 281.149 157.956 280.989 157.956 280.84C157.956 280.691 157.962 280.531 157.972 280.36C157.994 279.859 158.068 279.379 158.196 278.92C158.335 278.461 158.538 278.051 158.804 277.688C159.082 277.325 159.434 277.043 159.86 276.84C160.287 276.627 160.794 276.52 161.38 276.52C162.01 276.52 162.532 276.632 162.948 276.856C163.364 277.08 163.706 277.357 163.972 277.688V274.008C163.972 273.901 164.004 273.816 164.068 273.752C164.143 273.677 164.234 273.64 164.34 273.64H165.108C165.215 273.64 165.3 273.677 165.364 273.752C165.439 273.816 165.476 273.901 165.476 274.008V284.632C165.476 284.739 165.439 284.829 165.364 284.904C165.3 284.968 165.215 285 165.108 285H164.388C164.271 285 164.18 284.968 164.116 284.904C164.052 284.829 164.02 284.739 164.02 284.632V283.96C163.754 284.301 163.407 284.589 162.98 284.824C162.554 285.048 162.02 285.16 161.38 285.16ZM161.716 283.864C162.25 283.864 162.676 283.741 162.996 283.496C163.316 283.251 163.556 282.941 163.716 282.568C163.876 282.184 163.962 281.795 163.972 281.4C163.983 281.229 163.988 281.027 163.988 280.792C163.988 280.547 163.983 280.339 163.972 280.168C163.962 279.795 163.871 279.427 163.7 279.064C163.54 278.701 163.295 278.403 162.964 278.168C162.644 277.933 162.228 277.816 161.716 277.816C161.172 277.816 160.74 277.939 160.42 278.184C160.1 278.419 159.871 278.733 159.732 279.128C159.594 279.512 159.514 279.928 159.492 280.376C159.482 280.685 159.482 280.995 159.492 281.304C159.514 281.752 159.594 282.173 159.732 282.568C159.871 282.952 160.1 283.267 160.42 283.512C160.74 283.747 161.172 283.864 161.716 283.864ZM174.658 285.16C174.06 285.16 173.548 285.085 173.122 284.936C172.695 284.787 172.348 284.605 172.082 284.392C171.815 284.179 171.612 283.965 171.474 283.752C171.346 283.539 171.276 283.368 171.266 283.24C171.255 283.123 171.292 283.032 171.378 282.968C171.463 282.904 171.548 282.872 171.634 282.872H172.338C172.402 282.872 172.45 282.883 172.482 282.904C172.524 282.915 172.578 282.957 172.642 283.032C172.78 283.181 172.935 283.331 173.106 283.48C173.276 283.629 173.484 283.752 173.73 283.848C173.986 283.944 174.3 283.992 174.674 283.992C175.218 283.992 175.666 283.891 176.018 283.688C176.37 283.475 176.546 283.165 176.546 282.76C176.546 282.493 176.471 282.28 176.322 282.12C176.183 281.96 175.927 281.816 175.554 281.688C175.191 281.56 174.69 281.427 174.05 281.288C173.41 281.139 172.903 280.957 172.53 280.744C172.156 280.52 171.89 280.259 171.73 279.96C171.57 279.651 171.49 279.304 171.49 278.92C171.49 278.525 171.607 278.147 171.842 277.784C172.076 277.411 172.418 277.107 172.866 276.872C173.324 276.637 173.895 276.52 174.578 276.52C175.132 276.52 175.607 276.589 176.002 276.728C176.396 276.867 176.722 277.043 176.978 277.256C177.234 277.459 177.426 277.661 177.554 277.864C177.682 278.067 177.751 278.237 177.762 278.376C177.772 278.483 177.74 278.573 177.666 278.648C177.591 278.712 177.506 278.744 177.41 278.744H176.738C176.663 278.744 176.599 278.728 176.546 278.696C176.503 278.664 176.46 278.627 176.418 278.584C176.311 278.445 176.183 278.307 176.034 278.168C175.895 278.029 175.708 277.917 175.474 277.832C175.25 277.736 174.951 277.688 174.578 277.688C174.044 277.688 173.644 277.8 173.378 278.024C173.111 278.248 172.978 278.531 172.978 278.872C172.978 279.075 173.036 279.256 173.154 279.416C173.271 279.576 173.495 279.72 173.826 279.848C174.156 279.976 174.647 280.115 175.298 280.264C176.002 280.403 176.556 280.589 176.962 280.824C177.367 281.059 177.655 281.331 177.826 281.64C177.996 281.949 178.082 282.307 178.082 282.712C178.082 283.16 177.948 283.571 177.682 283.944C177.426 284.317 177.042 284.616 176.53 284.84C176.028 285.053 175.404 285.16 174.658 285.16ZM180.318 285C180.211 285 180.121 284.968 180.046 284.904C179.982 284.829 179.95 284.739 179.95 284.632V274.008C179.95 273.901 179.982 273.816 180.046 273.752C180.121 273.677 180.211 273.64 180.318 273.64H181.118C181.235 273.64 181.326 273.677 181.39 273.752C181.454 273.816 181.486 273.901 181.486 274.008V277.736C181.774 277.373 182.126 277.08 182.542 276.856C182.958 276.632 183.486 276.52 184.126 276.52C184.819 276.52 185.406 276.675 185.886 276.984C186.377 277.283 186.745 277.704 186.99 278.248C187.246 278.781 187.374 279.405 187.374 280.12V284.632C187.374 284.739 187.342 284.829 187.278 284.904C187.214 284.968 187.123 285 187.006 285H186.206C186.099 285 186.009 284.968 185.934 284.904C185.87 284.829 185.838 284.739 185.838 284.632V280.2C185.838 279.453 185.657 278.872 185.294 278.456C184.931 278.029 184.398 277.816 183.694 277.816C183.033 277.816 182.499 278.029 182.094 278.456C181.689 278.872 181.486 279.453 181.486 280.2V284.632C181.486 284.739 181.454 284.829 181.39 284.904C181.326 284.968 181.235 285 181.118 285H180.318ZM192.004 285.16C191.471 285.16 190.985 285.053 190.548 284.84C190.111 284.627 189.759 284.339 189.492 283.976C189.225 283.613 189.092 283.203 189.092 282.744C189.092 282.008 189.391 281.421 189.988 280.984C190.585 280.547 191.364 280.259 192.324 280.12L194.708 279.784V279.32C194.708 278.808 194.559 278.408 194.26 278.12C193.972 277.832 193.497 277.688 192.836 277.688C192.356 277.688 191.967 277.784 191.668 277.976C191.38 278.168 191.177 278.413 191.06 278.712C190.996 278.872 190.884 278.952 190.724 278.952H190.004C189.887 278.952 189.796 278.92 189.732 278.856C189.679 278.781 189.652 278.696 189.652 278.6C189.652 278.44 189.711 278.243 189.828 278.008C189.956 277.773 190.148 277.544 190.404 277.32C190.66 277.096 190.985 276.909 191.38 276.76C191.785 276.6 192.276 276.52 192.852 276.52C193.492 276.52 194.031 276.605 194.468 276.776C194.905 276.936 195.247 277.155 195.492 277.432C195.748 277.709 195.929 278.024 196.036 278.376C196.153 278.728 196.212 279.085 196.212 279.448V284.632C196.212 284.739 196.175 284.829 196.1 284.904C196.036 284.968 195.951 285 195.844 285H195.108C194.991 285 194.9 284.968 194.836 284.904C194.772 284.829 194.74 284.739 194.74 284.632V283.944C194.601 284.136 194.415 284.328 194.18 284.52C193.945 284.701 193.652 284.856 193.3 284.984C192.948 285.101 192.516 285.16 192.004 285.16ZM192.34 283.96C192.777 283.96 193.177 283.869 193.54 283.688C193.903 283.496 194.185 283.203 194.388 282.808C194.601 282.413 194.708 281.917 194.708 281.32V280.872L192.852 281.144C192.095 281.251 191.524 281.432 191.14 281.688C190.756 281.933 190.564 282.248 190.564 282.632C190.564 282.931 190.649 283.181 190.82 283.384C191.001 283.576 191.225 283.72 191.492 283.816C191.769 283.912 192.052 283.96 192.34 283.96ZM198.88 285C198.773 285 198.683 284.968 198.608 284.904C198.544 284.829 198.512 284.739 198.512 284.632V277.064C198.512 276.957 198.544 276.867 198.608 276.792C198.683 276.717 198.773 276.68 198.88 276.68H199.616C199.723 276.68 199.813 276.717 199.888 276.792C199.963 276.867 200 276.957 200 277.064V277.768C200.213 277.405 200.507 277.133 200.88 276.952C201.253 276.771 201.701 276.68 202.224 276.68H202.864C202.971 276.68 203.056 276.717 203.12 276.792C203.184 276.856 203.216 276.941 203.216 277.048V277.704C203.216 277.811 203.184 277.896 203.12 277.96C203.056 278.024 202.971 278.056 202.864 278.056H201.904C201.328 278.056 200.875 278.227 200.544 278.568C200.213 278.899 200.048 279.352 200.048 279.928V284.632C200.048 284.739 200.011 284.829 199.936 284.904C199.861 284.968 199.771 285 199.664 285H198.88ZM207.746 285.16C206.647 285.16 205.773 284.824 205.122 284.152C204.471 283.469 204.114 282.541 204.05 281.368C204.039 281.229 204.034 281.053 204.034 280.84C204.034 280.616 204.039 280.435 204.05 280.296C204.093 279.539 204.269 278.877 204.578 278.312C204.887 277.736 205.309 277.293 205.842 276.984C206.386 276.675 207.021 276.52 207.746 276.52C208.557 276.52 209.234 276.691 209.778 277.032C210.333 277.373 210.754 277.859 211.042 278.488C211.33 279.117 211.474 279.853 211.474 280.696V280.968C211.474 281.085 211.437 281.176 211.362 281.24C211.298 281.304 211.213 281.336 211.106 281.336H205.57C205.57 281.347 205.57 281.368 205.57 281.4C205.57 281.432 205.57 281.459 205.57 281.48C205.591 281.917 205.687 282.328 205.858 282.712C206.029 283.085 206.274 283.389 206.594 283.624C206.914 283.859 207.298 283.976 207.746 283.976C208.13 283.976 208.45 283.917 208.706 283.8C208.962 283.683 209.17 283.555 209.33 283.416C209.49 283.267 209.597 283.155 209.65 283.08C209.746 282.941 209.821 282.861 209.874 282.84C209.927 282.808 210.013 282.792 210.13 282.792H210.898C211.005 282.792 211.09 282.824 211.154 282.888C211.229 282.941 211.261 283.021 211.25 283.128C211.239 283.288 211.154 283.485 210.994 283.72C210.834 283.944 210.605 284.168 210.306 284.392C210.007 284.616 209.645 284.803 209.218 284.952C208.791 285.091 208.301 285.16 207.746 285.16ZM205.57 280.232H209.954V280.184C209.954 279.704 209.863 279.277 209.682 278.904C209.511 278.531 209.261 278.237 208.93 278.024C208.599 277.8 208.205 277.688 207.746 277.688C207.287 277.688 206.893 277.8 206.562 278.024C206.242 278.237 205.997 278.531 205.826 278.904C205.655 279.277 205.57 279.704 205.57 280.184V280.232ZM220.213 285C219.616 285 219.131 284.888 218.757 284.664C218.384 284.429 218.112 284.104 217.941 283.688C217.771 283.261 217.685 282.76 217.685 282.184V277.96H216.437C216.331 277.96 216.24 277.928 216.165 277.864C216.101 277.789 216.069 277.699 216.069 277.592V277.048C216.069 276.941 216.101 276.856 216.165 276.792C216.24 276.717 216.331 276.68 216.437 276.68H217.685V274.008C217.685 273.901 217.717 273.816 217.781 273.752C217.856 273.677 217.947 273.64 218.053 273.64H218.805C218.912 273.64 218.997 273.677 219.061 273.752C219.136 273.816 219.173 273.901 219.173 274.008V276.68H221.157C221.264 276.68 221.349 276.717 221.413 276.792C221.488 276.856 221.525 276.941 221.525 277.048V277.592C221.525 277.699 221.488 277.789 221.413 277.864C221.349 277.928 221.264 277.96 221.157 277.96H219.173V282.072C219.173 282.573 219.259 282.968 219.429 283.256C219.6 283.544 219.904 283.688 220.341 283.688H221.317C221.424 283.688 221.509 283.725 221.573 283.8C221.648 283.864 221.685 283.949 221.685 284.056V284.632C221.685 284.739 221.648 284.829 221.573 284.904C221.509 284.968 221.424 285 221.317 285H220.213ZM223.599 285C223.493 285 223.402 284.968 223.327 284.904C223.263 284.829 223.231 284.739 223.231 284.632V274.008C223.231 273.901 223.263 273.816 223.327 273.752C223.402 273.677 223.493 273.64 223.599 273.64H224.399C224.517 273.64 224.607 273.677 224.671 273.752C224.735 273.816 224.767 273.901 224.767 274.008V277.736C225.055 277.373 225.407 277.08 225.823 276.856C226.239 276.632 226.767 276.52 227.407 276.52C228.101 276.52 228.687 276.675 229.167 276.984C229.658 277.283 230.026 277.704 230.271 278.248C230.527 278.781 230.655 279.405 230.655 280.12V284.632C230.655 284.739 230.623 284.829 230.559 284.904C230.495 284.968 230.405 285 230.287 285H229.487C229.381 285 229.29 284.968 229.215 284.904C229.151 284.829 229.119 284.739 229.119 284.632V280.2C229.119 279.453 228.938 278.872 228.575 278.456C228.213 278.029 227.679 277.816 226.975 277.816C226.314 277.816 225.781 278.029 225.375 278.456C224.97 278.872 224.767 279.453 224.767 280.2V284.632C224.767 284.739 224.735 284.829 224.671 284.904C224.607 284.968 224.517 285 224.399 285H223.599ZM236.277 285.16C235.179 285.16 234.304 284.824 233.653 284.152C233.003 283.469 232.645 282.541 232.581 281.368C232.571 281.229 232.565 281.053 232.565 280.84C232.565 280.616 232.571 280.435 232.581 280.296C232.624 279.539 232.8 278.877 233.109 278.312C233.419 277.736 233.84 277.293 234.373 276.984C234.917 276.675 235.552 276.52 236.277 276.52C237.088 276.52 237.765 276.691 238.309 277.032C238.864 277.373 239.285 277.859 239.573 278.488C239.861 279.117 240.005 279.853 240.005 280.696V280.968C240.005 281.085 239.968 281.176 239.893 281.24C239.829 281.304 239.744 281.336 239.637 281.336H234.101C234.101 281.347 234.101 281.368 234.101 281.4C234.101 281.432 234.101 281.459 234.101 281.48C234.123 281.917 234.219 282.328 234.389 282.712C234.56 283.085 234.805 283.389 235.125 283.624C235.445 283.859 235.829 283.976 236.277 283.976C236.661 283.976 236.981 283.917 237.237 283.8C237.493 283.683 237.701 283.555 237.861 283.416C238.021 283.267 238.128 283.155 238.181 283.08C238.277 282.941 238.352 282.861 238.405 282.84C238.459 282.808 238.544 282.792 238.661 282.792H239.429C239.536 282.792 239.621 282.824 239.685 282.888C239.76 282.941 239.792 283.021 239.781 283.128C239.771 283.288 239.685 283.485 239.525 283.72C239.365 283.944 239.136 284.168 238.837 284.392C238.539 284.616 238.176 284.803 237.749 284.952C237.323 285.091 236.832 285.16 236.277 285.16ZM234.101 280.232H238.485V280.184C238.485 279.704 238.395 279.277 238.213 278.904C238.043 278.531 237.792 278.237 237.461 278.024C237.131 277.8 236.736 277.688 236.277 277.688C235.819 277.688 235.424 277.8 235.093 278.024C234.773 278.237 234.528 278.531 234.357 278.904C234.187 279.277 234.101 279.704 234.101 280.184V280.232ZM246.743 285C246.637 285 246.546 284.968 246.471 284.904C246.407 284.829 246.375 284.739 246.375 284.632V277.96H245.015C244.909 277.96 244.818 277.928 244.743 277.864C244.679 277.789 244.647 277.699 244.647 277.592V277.048C244.647 276.941 244.679 276.856 244.743 276.792C244.818 276.717 244.909 276.68 245.015 276.68H246.375V275.88C246.375 275.336 246.466 274.861 246.647 274.456C246.829 274.04 247.117 273.72 247.511 273.496C247.917 273.272 248.455 273.16 249.127 273.16H250.087C250.194 273.16 250.279 273.197 250.343 273.272C250.407 273.336 250.439 273.421 250.439 273.528V274.072C250.439 274.179 250.407 274.269 250.343 274.344C250.279 274.408 250.194 274.44 250.087 274.44H249.159C248.658 274.44 248.317 274.573 248.135 274.84C247.954 275.096 247.863 275.469 247.863 275.96V276.68H249.927C250.034 276.68 250.119 276.717 250.183 276.792C250.247 276.856 250.279 276.941 250.279 277.048V277.592C250.279 277.699 250.247 277.789 250.183 277.864C250.119 277.928 250.034 277.96 249.927 277.96H247.863V284.632C247.863 284.739 247.826 284.829 247.751 284.904C247.687 284.968 247.602 285 247.495 285H246.743ZM254.804 285.16C254.121 285.16 253.54 285.011 253.06 284.712C252.59 284.403 252.233 283.976 251.988 283.432C251.742 282.888 251.62 282.264 251.62 281.56V277.048C251.62 276.941 251.652 276.856 251.716 276.792C251.79 276.717 251.881 276.68 251.988 276.68H252.788C252.894 276.68 252.98 276.717 253.044 276.792C253.118 276.856 253.156 276.941 253.156 277.048V281.48C253.156 283.069 253.849 283.864 255.236 283.864C255.897 283.864 256.425 283.656 256.82 283.24C257.225 282.813 257.428 282.227 257.428 281.48V277.048C257.428 276.941 257.46 276.856 257.524 276.792C257.598 276.717 257.689 276.68 257.796 276.68H258.58C258.697 276.68 258.788 276.717 258.852 276.792C258.916 276.856 258.948 276.941 258.948 277.048V284.632C258.948 284.739 258.916 284.829 258.852 284.904C258.788 284.968 258.697 285 258.58 285H257.844C257.737 285 257.646 284.968 257.572 284.904C257.508 284.829 257.476 284.739 257.476 284.632V283.928C257.188 284.301 256.836 284.6 256.42 284.824C256.014 285.048 255.476 285.16 254.804 285.16ZM261.693 285C261.586 285 261.495 284.968 261.421 284.904C261.357 284.829 261.325 284.739 261.325 284.632V277.048C261.325 276.941 261.357 276.856 261.421 276.792C261.495 276.717 261.586 276.68 261.693 276.68H262.445C262.551 276.68 262.637 276.717 262.701 276.792C262.775 276.856 262.813 276.941 262.813 277.048V277.752C263.09 277.389 263.437 277.096 263.853 276.872C264.279 276.637 264.823 276.52 265.485 276.52C266.178 276.52 266.765 276.675 267.245 276.984C267.735 277.283 268.103 277.704 268.349 278.248C268.594 278.781 268.717 279.405 268.717 280.12V284.632C268.717 284.739 268.685 284.829 268.621 284.904C268.557 284.968 268.471 285 268.365 285H267.565C267.458 285 267.367 284.968 267.293 284.904C267.229 284.829 267.197 284.739 267.197 284.632V280.2C267.197 279.453 267.015 278.872 266.653 278.456C266.29 278.029 265.757 277.816 265.053 277.816C264.391 277.816 263.858 278.029 263.453 278.456C263.058 278.872 262.861 279.453 262.861 280.2V284.632C262.861 284.739 262.823 284.829 262.749 284.904C262.685 284.968 262.599 285 262.493 285H261.693ZM271.284 285C271.177 285 271.086 284.968 271.012 284.904C270.948 284.829 270.916 284.739 270.916 284.632V283.48C270.916 283.373 270.948 283.288 271.012 283.224C271.086 283.149 271.177 283.112 271.284 283.112H272.436C272.542 283.112 272.628 283.149 272.692 283.224C272.766 283.288 272.804 283.373 272.804 283.48V284.632C272.804 284.739 272.766 284.829 272.692 284.904C272.628 284.968 272.542 285 272.436 285H271.284Z" fill="#C3C4D9"/>
<defs>
<filter id="filter0_d_859_5787" x="48.5" y="16" width="224" height="224" filterUnits="userSpaceOnUse" color-interpolation-filters="sRGB">
<feFlood flood-opacity="0" result="BackgroundImageFix"/>
<feColorMatrix in="SourceAlpha" type="matrix" values="0 0 0 0 0 0 0 0 0 0 0 0 0 0 0 0 0 0 127 0" result="hardAlpha"/>
<feOffset dy="16"/>
<feGaussianBlur stdDeviation="16"/>
<feComposite in2="hardAlpha" operator="out"/>
<feColorMatrix type="matrix" values="0 0 0 0 0 0 0 0 0 0 0 0 0 0 0 0 0 0 0.25 0"/>
<feBlend mode="normal" in2="BackgroundImageFix" result="effect1_dropShadow_859_5787"/>
<feBlend mode="normal" in="SourceGraphic" in2="effect1_dropShadow_859_5787" result="shape"/>
</filter>
<clipPath id="clip0_859_5787">
<rect width="113" height="60" fill="white" transform="translate(107.5 82)"/>
</clipPath>
</defs>
</svg>
