<svg width="225" height="224" viewBox="0 0 225 224" fill="none" xmlns="http://www.w3.org/2000/svg">
<g filter="url(#filter0_d_1_23)">
<circle cx="112.5" cy="96" r="80" fill="#227BC9"/>
</g>
<g clip-path="url(#clip0_1_23)">
<path d="M113.997 66.2157C108.625 67.1865 104.686 71.8786 104.673 77.3258C104.659 81.5595 106.96 85.4292 110.682 87.3977C111.399 87.7888 111.927 87.991 113.496 88.4629C114.525 88.7865 117.61 88.773 118.734 88.4494C121.197 87.7348 122.861 86.7506 124.404 85.1326C126.393 83.0157 127.435 80.3595 127.435 77.3933C127.435 70.2472 121.061 64.9483 113.997 66.2157Z" fill="#B4B5CF"/>
<path d="M81.0174 72.1618C79.7994 72.3236 77.9589 73.0652 76.9575 73.8067C75.2659 75.0472 74.1968 76.5169 73.4389 78.6202C73.0871 79.591 72.9247 82.1258 73.1412 83.2854C73.4119 84.7146 74.2915 86.5618 75.2253 87.6539C75.8884 88.436 77.1063 89.4607 77.3499 89.4607C77.4311 89.4607 77.4988 89.5146 77.4988 89.5685C77.4988 89.6899 78.595 90.2697 78.8386 90.2697C78.9198 90.2697 78.9874 90.3371 78.9874 90.4315C78.9874 90.5124 79.028 90.5528 79.0686 90.5124C79.1092 90.4584 79.5693 90.5393 80.0836 90.6876C81.3963 91.0517 83.6563 91.0382 84.9825 90.6607C85.5103 90.5124 86.0246 90.3775 86.1057 90.3506C86.6065 90.2562 88.2575 89.1236 89.083 88.3146C90.6663 86.764 91.2347 85.7393 91.8302 83.4472C92.0332 82.6652 92.0196 80.5213 91.7896 79.4831C91.4783 77.9595 90.5716 76.2607 89.4213 74.9798C88.4469 73.9146 86.8771 72.9708 85.1449 72.418C84.4683 72.1888 81.9376 72.027 81.0174 72.1618Z" fill="#B4B5CF"/>
<path d="M148.141 72.1618C145.908 72.4584 143.35 73.982 141.997 75.8292C141.401 76.6247 140.671 78.1213 140.44 78.9573C140.007 80.5213 140.062 82.9079 140.535 84.4045C141.821 88.409 145.353 90.9438 149.629 90.9438C152.404 90.9438 154.677 90 156.463 88.0989C158.304 86.1438 159.102 84.1483 159.102 81.4787C159.102 79.3483 158.48 77.5281 157.127 75.7483C155.936 74.1708 154.42 73.1326 152.255 72.418C151.551 72.1888 149.088 72.027 148.141 72.1618Z" fill="#B4B5CF"/>
<path d="M106.459 92.1034C104.822 92.3596 103.36 92.9124 102.602 93.5596C102.332 93.7888 101.993 93.9236 101.533 93.964C101.154 94.0045 100.18 94.0989 99.3545 94.1798C93.6977 94.7326 90.2874 94.8944 86.2952 94.8C84.4006 94.7596 82.3301 94.6652 81.694 94.5978C81.058 94.5169 79.5152 94.3685 78.2431 94.2472C76.9845 94.1258 75.3335 93.9506 74.5892 93.8427C71.409 93.3978 70.2722 93.3169 69.555 93.4921C68.5535 93.7348 67.6333 94.3955 67.0108 95.3258C66.483 96.1213 66.483 96.1348 66.4695 97.4831C66.4695 98.7775 66.483 98.8584 66.9025 99.5056C67.7686 100.84 69.7444 101.663 73.7772 102.391C75.32 102.661 80.4084 103.065 83.3856 103.146C87.2966 103.254 88.7447 103.24 93.197 103.065C97.0404 102.917 97.3381 102.903 98.6508 102.742L99.4222 102.647V111.263V119.879L99.7334 120.822C99.9093 121.348 100.207 122.049 100.397 122.373C100.87 123.182 102.02 124.301 102.927 124.84C103.631 125.258 104.05 125.434 105.39 125.852C105.729 125.96 108.868 126 116 126C125.879 126 126.15 125.987 127.083 125.717C129.438 125.029 131.008 123.56 131.928 121.187C132.226 120.404 132.226 120.351 132.28 111.533L132.321 102.674H132.673C132.862 102.674 133.999 102.755 135.203 102.863C137.477 103.065 142.308 103.24 144.757 103.213C153.391 103.092 158.669 102.593 161.714 101.582C164.083 100.8 165.152 99.991 165.517 98.7101C165.774 97.8202 165.788 97.2944 165.544 96.4045C165.138 94.8674 164.164 93.8966 162.567 93.4382C161.863 93.236 161.701 93.236 160.564 93.4247C159.887 93.5461 159.089 93.6404 158.791 93.6404C158.493 93.6404 157.695 93.7213 157.018 93.8292C154.758 94.1798 150.36 94.5573 146.787 94.7056C143.445 94.8539 136.475 94.5978 133.728 94.2472C133.43 94.2067 132.483 94.1258 131.603 94.0584C130.115 93.9371 129.993 93.8966 129.371 93.4652C128.64 92.9258 127.977 92.6292 126.894 92.3191C126.258 92.1438 124.783 92.1034 116.474 92.0764C111.155 92.0629 106.649 92.0764 106.459 92.1034Z" fill="#B4B5CF"/>
<path d="M67.0784 102.027C67.0784 102.108 66.9702 102.431 66.8213 102.728C66.686 103.038 66.28 103.982 65.9281 104.831C65.5763 105.681 65.238 106.503 65.1703 106.652C65.1162 106.8 64.8996 107.312 64.6966 107.798C64.5072 108.283 64.2365 108.917 64.1012 109.213C63.9794 109.51 63.7629 110.022 63.6275 110.36C63.5057 110.697 63.3434 111.088 63.2757 111.236C62.5584 112.989 61.7465 114.93 61.6517 115.146C59.7436 119.596 59.4188 120.566 59.5406 121.47C59.8519 123.654 61.4081 125.258 63.5193 125.528C64.3448 125.636 65.671 125.339 66.3206 124.894C67.4574 124.112 67.7957 123.613 68.9054 120.971L69.2843 120.067L69.6903 120.755C70.4617 122.13 72.5863 123.708 73.6284 123.708C73.8178 123.708 74.0073 123.762 74.0479 123.843C74.1562 124.018 90.6393 123.937 91.3701 123.762C93.0481 123.33 94.821 121.915 95.5517 120.404C96.2825 118.894 96.296 118.692 96.3096 111.115V104.117L95.4705 104.198C92.2091 104.535 80.5708 104.4 77.3635 104.009C76.8086 103.942 75.8072 103.82 75.1305 103.753C72.7081 103.497 69.8933 102.863 68.2287 102.189C67.322 101.825 67.0784 101.784 67.0784 102.027Z" fill="#B4B5CF"/>
<path d="M164.177 102.067C163.744 102.27 162.12 102.769 160.794 103.119C159.82 103.375 157.736 103.712 156.531 103.807C156.044 103.861 155.232 103.942 154.704 104.009C151.7 104.4 139.926 104.535 136.678 104.211L135.826 104.117V110.98C135.826 114.755 135.88 118.193 135.961 118.625C136.259 120.431 137.761 122.454 139.412 123.222C141.036 123.991 140.765 123.978 149.697 123.937C154.244 123.91 158.169 123.843 158.426 123.789C159.062 123.64 160.605 122.885 160.686 122.67C160.726 122.575 160.808 122.494 160.875 122.494C161.092 122.494 162.066 121.389 162.486 120.674C162.81 120.121 162.892 120.054 162.959 120.27C163.392 121.564 164.38 123.587 164.827 124.072C166.586 125.987 169.442 126.054 171.269 124.234C172.108 123.384 172.419 122.629 172.473 121.267C172.527 120.162 172.5 120.054 171.905 118.571C171.553 117.721 171.214 116.912 171.147 116.764C171.093 116.616 170.565 115.375 169.996 114C169.428 112.625 168.887 111.317 168.778 111.101C168.684 110.872 168.318 109.996 167.98 109.146C167.628 108.297 167.29 107.474 167.236 107.326C167.168 107.178 166.803 106.301 166.41 105.371C166.031 104.44 165.639 103.497 165.531 103.281C165.436 103.052 165.273 102.647 165.179 102.364C164.989 101.825 164.827 101.771 164.177 102.067Z" fill="#B4B5CF"/>
</g>
<defs>
<filter id="filter0_d_1_23" x="0.5" y="0" width="224" height="224" filterUnits="userSpaceOnUse" color-interpolation-filters="sRGB">
<feFlood flood-opacity="0" result="BackgroundImageFix"/>
<feColorMatrix in="SourceAlpha" type="matrix" values="0 0 0 0 0 0 0 0 0 0 0 0 0 0 0 0 0 0 127 0" result="hardAlpha"/>
<feOffset dy="16"/>
<feGaussianBlur stdDeviation="16"/>
<feComposite in2="hardAlpha" operator="out"/>
<feColorMatrix type="matrix" values="0 0 0 0 0 0 0 0 0 0 0 0 0 0 0 0 0 0 0.25 0"/>
<feBlend mode="normal" in2="BackgroundImageFix" result="effect1_dropShadow_1_23"/>
<feBlend mode="normal" in="SourceGraphic" in2="effect1_dropShadow_1_23" result="shape"/>
</filter>
<clipPath id="clip0_1_23">
<rect width="113" height="60" fill="white" transform="translate(59.5 66)"/>
</clipPath>
</defs>
</svg>
