<svg width="225" height="224" viewBox="0 0 225 224" fill="none" xmlns="http://www.w3.org/2000/svg">
<g filter="url(#filter0_d_2559_1900)">
<circle cx="112.5" cy="96" r="80" fill="#227BC9"/>
</g>
<path fill-rule="evenodd" clip-rule="evenodd" d="M103.778 66.9072C97.4238 61.4633 82.6114 59.2749 74.2665 67.101C66.0983 74.7333 59.5 93.1364 59.5 110.494C59.5 131.435 79.5592 134.341 90.4944 124.054C96.8251 118.087 97.424 117.156 101.564 112.431H123.703C127.865 117.156 128.44 118.087 134.772 124.054C145.709 134.341 165.767 131.435 165.767 110.494C165.767 93.1366 159.169 74.7333 151.001 67.101C142.656 59.2747 127.865 61.4633 121.489 66.9072C119.031 68.9992 112.634 69.8127 112.634 69.8127C112.634 69.8127 106.234 68.9992 103.778 66.9072ZM94.9224 79.6923V85.3103H101.344C103.912 85.3103 105.992 87.0531 105.992 89.1844C105.992 91.3155 103.912 93.0586 101.344 93.0586H94.9224V98.6768C94.9224 100.924 92.9289 102.744 90.4944 102.744C88.06 102.744 86.0668 100.924 86.0668 98.6768V93.0586H79.6457C77.0768 93.0586 74.9975 91.3155 74.9975 89.1844C74.9975 87.0531 77.0771 85.3103 79.6457 85.3103H86.0668V79.6923C86.0668 77.445 88.06 75.6241 90.4944 75.6241C92.9289 75.6241 94.9224 77.445 94.9224 79.6923ZM134.772 82.4042C134.772 79.7313 137.253 77.5614 140.308 77.5614C143.362 77.5614 145.843 79.7313 145.843 82.4042C145.843 85.077 143.362 87.2469 140.308 87.2469C137.253 87.2469 134.772 85.0773 134.772 82.4042ZM123.703 94.0272C123.703 91.3543 126.183 89.1844 129.238 89.1844C132.293 89.1844 134.772 91.3543 134.772 94.0272C134.772 96.7001 132.293 98.8706 129.238 98.8706C126.183 98.8706 123.703 96.7001 123.703 94.0272Z" fill="#B4B5CF"/>
<defs>
<filter id="filter0_d_2559_1900" x="0.5" y="0" width="224" height="224" filterUnits="userSpaceOnUse" color-interpolation-filters="sRGB">
<feFlood flood-opacity="0" result="BackgroundImageFix"/>
<feColorMatrix in="SourceAlpha" type="matrix" values="0 0 0 0 0 0 0 0 0 0 0 0 0 0 0 0 0 0 127 0" result="hardAlpha"/>
<feOffset dy="16"/>
<feGaussianBlur stdDeviation="16"/>
<feComposite in2="hardAlpha" operator="out"/>
<feColorMatrix type="matrix" values="0 0 0 0 0 0 0 0 0 0 0 0 0 0 0 0 0 0 0.25 0"/>
<feBlend mode="normal" in2="BackgroundImageFix" result="effect1_dropShadow_2559_1900"/>
<feBlend mode="normal" in="SourceGraphic" in2="effect1_dropShadow_2559_1900" result="shape"/>
</filter>
</defs>
</svg>
