<svg  viewBox="0 0 49 48" fill="none" xmlns="http://www.w3.org/2000/svg">
<g id="Campfire-icon 1" clip-path="url(#clip0_1366_11925)">
<path id="Vector" d="M18.7309 3.13311e-06C18.3277 0.000334864 17.9188 0.00877237 17.5193 0.0576954C20.8683 3.76293 20.2179 10.6966 15.6155 14.3077C12.981 16.3772 14.0426 10.8554 10.7693 12.2308C12.381 12.9637 12.1706 16.3611 11.2309 18.2885C10.4592 19.8706 7.88471 20.3862 7.88471 24.8077C7.88471 32.4674 16.4601 38.7692 23.577 38.7692C32.1284 38.7692 37.4232 34.2688 37.4232 29.1346C37.4232 23.934 32.961 22.4691 33.0386 19.3269C33.1309 15.714 37.5303 13.9209 29.8078 8.42308C30.2823 11.4877 29.6223 13.8065 27.3847 13.5C23.7053 12.996 27.9423 9.12185 26.0001 4.84616C24.3831 1.28585 21.5532 -0.00231898 18.7309 3.13311e-06ZM21.6732 15.5769C23.835 18.2151 24.8495 19.1114 22.0193 24.4615C21.3861 25.6763 22.7472 27.75 24.3847 27.75C26.3619 27.75 27.3843 25.536 26.6347 23.3077C29.9153 26.6178 26.6601 28.0509 27.2693 28.9039C27.7327 29.55 29.0135 28.5415 29.0578 27.6923C30.987 34.0283 26.2863 36.2308 23.0001 36.2308C19.7121 36.2308 16.0193 32.7088 16.0193 28.2115C16.0193 22.1026 22.9415 21.4994 21.6732 15.5769ZM11.2309 38.8269C10.524 38.9627 9.94917 39.4638 9.78856 40.2115C9.5744 41.2085 10.1763 42.1897 11.1732 42.4039L14.3463 43.0962L7.53856 44.3654C6.5361 44.5537 5.90979 45.4994 6.09625 46.5C6.2624 47.388 7.01333 48 7.88471 48C7.99733 48 8.1164 47.9645 8.23087 47.9423L37.7693 42.4039C38.7718 42.2155 39.3981 41.2699 39.2116 40.2692C39.0233 39.2668 38.0795 38.6368 37.077 38.8269L23.7501 41.3077L11.9809 38.8269C11.7316 38.7738 11.4665 38.7817 11.2309 38.8269ZM38.0578 44.4808L28.7693 46.2115L37.0193 47.9423C37.1504 47.97 37.2958 48 37.4232 48C38.2743 48 39.0252 47.4254 39.2116 46.5577C39.4055 45.6512 38.9033 44.7946 38.0578 44.4808Z" fill="#0E3454"/>
</g>
<defs>
<clipPath id="clip0_1366_11925">
<rect width="48" height="48" fill="white" transform="translate(0.5)"/>
</clipPath>
</defs>
</svg>
