<svg width="49" height="48" viewBox="0 0 49 48" fill="none" xmlns="http://www.w3.org/2000/svg">
<g id="fi-sr-gamepad" clip-path="url(#clip0_3398_5870)">
<path id="Vector" d="M44.7019 10.0671C42.9106 6.88259 39.7261 5.09131 36.1435 5.09131H12.4586C8.87601 5.09131 5.69141 6.88259 3.90013 10.0671C1.71079 14.0477 0.516602 18.4265 0.516602 23.0042C0.516602 33.951 4.89529 42.9075 10.4683 42.9075C13.4537 42.9075 15.8422 40.1211 17.6335 34.3491C17.8325 33.553 18.6286 32.9559 19.6238 32.9559H29.3764C30.1725 32.9559 30.9687 33.553 31.3667 34.3491C33.158 40.1211 35.5464 42.9075 38.5319 42.9075C44.1049 42.9075 48.4836 33.951 48.4836 23.0042C48.0855 18.4264 46.8914 14.0477 44.7019 10.0671ZM18.4296 21.0139H16.4393V23.0042C16.4393 24.1984 15.6432 24.9945 14.449 24.9945C13.2548 24.9945 12.4587 24.1984 12.4587 23.0042V21.0139H10.4684C9.27417 21.0139 8.47804 20.2178 8.47804 19.0236C8.47804 17.8294 9.27417 17.0333 10.4684 17.0333H12.4587V15.043C12.4587 13.8488 13.2548 13.0527 14.449 13.0527C15.6432 13.0527 16.4393 13.8488 16.4393 15.043V17.0333H18.4296C19.6238 17.0333 20.4199 17.8294 20.4199 19.0236C20.4199 20.2178 19.6238 21.0139 18.4296 21.0139ZM31.5658 24.9945C29.9735 24.9945 28.5803 23.6013 28.5803 22.0091C28.5803 20.4168 29.9735 19.0236 31.5658 19.0236C33.158 19.0236 34.5512 20.4168 34.5512 22.0091C34.5512 23.6013 32.959 24.9945 31.5658 24.9945ZM37.3378 19.0236C35.9445 19.0236 34.3523 17.6304 34.3523 16.0381C34.3523 14.4459 35.9445 13.0527 37.3378 13.0527C38.731 13.0527 40.3232 14.4459 40.3232 16.0381C40.3232 17.6304 38.93 19.0236 37.3378 19.0236Z" fill="#0E3454"/>
</g>
<defs>
<clipPath id="clip0_3398_5870">
<rect width="48" height="48" fill="white" transform="translate(0.5)"/>
</clipPath>
</defs>
</svg>
