<svg width="49" height="48" viewBox="0 0 49 48" fill="none" xmlns="http://www.w3.org/2000/svg">
<g id="Group">
<path id="Vector" opacity="0.991" fill-rule="evenodd" clip-rule="evenodd" d="M10.0156 -0.046875C19.6407 -0.046875 29.2656 -0.046875 38.8906 -0.046875C38.8906 0.734375 38.8906 1.51563 38.8906 2.29688C41.4221 2.28126 43.9533 2.29688 46.4844 2.34375C47.4838 2.49716 48.1401 3.04403 48.4531 3.98438C48.4531 6.60938 48.4531 9.23438 48.4531 11.8594C47.4491 17.2072 44.2616 20.3633 38.8906 21.3281C38.8382 26.8253 36.5257 31.0597 31.9531 34.0312C30.5968 34.827 29.1593 35.4207 27.6406 35.8125C28.2031 37.4375 28.7656 39.0625 29.3281 40.6875C31.3281 40.7187 33.3282 40.75 35.3281 40.7812C36.1472 41.0066 36.6942 41.5223 36.9688 42.3281C37.6194 44.2018 38.26 46.0768 38.8906 47.9531C29.2656 47.9531 19.6407 47.9531 10.0156 47.9531C10.6463 46.0768 11.2869 44.2018 11.9375 42.3281C12.2121 41.5223 12.759 41.0066 13.5781 40.7812C15.5781 40.75 17.5782 40.7187 19.5781 40.6875C20.1406 39.0625 20.7031 37.4375 21.2656 35.8125C15.2888 34.1481 11.6169 30.2887 10.25 24.2344C10.0747 23.2733 9.99659 22.3045 10.0156 21.3281C4.64469 20.3633 1.45719 17.2072 0.453125 11.8594C0.453125 9.23438 0.453125 6.60938 0.453125 3.98438C0.766198 3.04403 1.42245 2.49716 2.42188 2.34375C4.95293 2.29688 7.48418 2.28126 10.0156 2.29688C10.0156 1.51563 10.0156 0.734375 10.0156 -0.046875ZM5.32812 7.17188C6.89063 7.17188 8.45312 7.17188 10.0156 7.17188C10.0313 10.2658 10.0156 13.3596 9.96875 16.4531C7.48565 15.6264 5.9544 13.9389 5.375 11.3906C5.32813 9.98475 5.31251 8.57847 5.32812 7.17188ZM38.8906 7.17188C40.4532 7.17188 42.0156 7.17188 43.5781 7.17188C43.5938 8.57847 43.5781 9.98475 43.5312 11.3906C43.0189 13.981 41.5033 15.6685 38.9844 16.4531C38.8906 13.36 38.8594 10.2663 38.8906 7.17188ZM24.3594 9.79688C24.5314 9.85519 24.6408 9.98025 24.6875 10.1719C25.2878 11.5507 25.8972 12.9258 26.5156 14.2969C28.1719 14.3594 29.8281 14.4218 31.4844 14.4844C30.3437 16.0156 29.2032 17.5469 28.0625 19.0781C28.3465 20.6207 28.7059 22.1519 29.1406 23.6719C29.1094 23.7031 29.0781 23.7344 29.0469 23.7656C27.5006 22.9457 25.9693 22.1019 24.4531 21.2344C22.9369 22.1019 21.4057 22.9457 19.8594 23.7656C19.8282 23.7344 19.7968 23.7031 19.7656 23.6719C20.2003 22.1519 20.5598 20.6207 20.8438 19.0781C19.7031 17.5469 18.5625 16.0156 17.4219 14.4844C19.0782 14.4218 20.7343 14.3594 22.3906 14.2969C23.048 12.7949 23.7043 11.2949 24.3594 9.79688Z" fill="#0E3454"/>
</g>
</svg>
