<svg width="225" height="224" viewBox="0 0 225 224" fill="none" xmlns="http://www.w3.org/2000/svg">
<g filter="url(#filter0_d_2575_2150)">
<circle cx="112.5" cy="96" r="80" fill="#227BC9"/>
</g>
<path d="M112.632 37.7082C111.819 39.2537 111.656 39.3757 110.07 39.3757H108.362L109.704 40.7585C111.005 42.1007 111.046 42.2633 110.639 43.8088C110.436 44.7442 110.314 45.4763 110.395 45.4763C110.477 45.4763 111.168 45.151 111.982 44.7849C113.324 44.1342 113.486 44.1342 114.828 44.7849C115.642 45.151 116.374 45.4763 116.455 45.4763C116.577 45.4763 116.537 44.7442 116.415 43.8088C116.171 42.3447 116.293 42.0193 117.472 40.7992L118.814 39.4164L117.025 39.2944C115.439 39.1724 115.154 39.0097 114.381 37.5862L113.486 36L112.632 37.7082Z" fill="#B4B5CF"/>
<path d="M122.19 39.5791C121.824 40.1485 121.174 40.5958 120.726 40.5958C119.75 40.5958 119.71 40.8399 120.564 41.694C120.97 42.1007 121.092 42.7107 120.93 43.3615C120.726 44.2155 120.808 44.2969 121.418 44.0529C121.824 43.8902 122.434 43.7275 122.76 43.7275C123.085 43.7275 123.695 43.8902 124.102 44.0529C124.712 44.2969 124.793 44.2155 124.59 43.3615C124.427 42.7107 124.549 42.1007 124.956 41.694C125.81 40.8399 125.769 40.6772 124.712 40.5145C124.224 40.4332 123.573 39.9858 123.329 39.4571L122.882 38.5216L122.19 39.5791Z" fill="#B4B5CF"/>
<path d="M103.726 39.9451C103.401 40.7179 102.953 41.0026 102.14 41.0026H101.083L101.937 41.938C102.547 42.5887 102.709 43.1581 102.547 43.8089C102.343 44.6629 102.384 44.7443 103.075 44.4596C104.051 44.0529 104.865 44.0529 105.76 44.4189C106.288 44.6629 106.37 44.5409 106.207 43.8902C106.085 43.4022 106.288 42.5887 106.654 42.0193C107.305 41.0433 107.305 41.0026 106.288 41.0026C105.719 41.0026 105.272 40.8399 105.272 40.6772C105.272 40.4739 105.028 40.0265 104.743 39.6198C104.255 38.9284 104.173 38.969 103.726 39.9451Z" fill="#B4B5CF"/>
<path d="M134.147 46.3304C134.147 47.6319 135.693 49.5434 136.75 49.5434C137.645 49.5434 137.971 47.9979 137.238 46.9405C136.913 46.4118 136.059 45.8017 135.408 45.5577C134.188 45.1103 134.147 45.151 134.147 46.3304ZM136.588 48.4453C136.547 48.73 136.1 48.3639 135.571 47.7132C134.269 46.1271 134.269 45.3543 135.571 46.8185C136.14 47.4285 136.588 48.1606 136.588 48.4453Z" fill="#B4B5CF"/>
<path d="M89.1249 46.0864C88.4741 46.5745 88.1895 47.1438 88.1895 48.1606C88.1895 49.8688 89.0029 49.9908 90.467 48.5266C92.2972 46.6965 91.1584 44.6629 89.1249 46.0864ZM90.223 47.4692C89.7349 48.1606 89.1655 48.73 88.9215 48.73C88.5148 48.73 88.7588 48.2826 90.1823 46.5745C91.1584 45.4357 91.1991 46.1271 90.223 47.4692Z" fill="#B4B5CF"/>
<path d="M84.3666 47.4691C83.2685 49.5433 83.7565 51.1702 85.3834 51.1702C86.7255 51.1702 86.8475 47.7945 85.5461 46.6964C85.0987 46.3304 84.8547 46.493 84.3666 47.4691ZM85.7087 49.5433C85.7494 50.6008 85.6274 50.8041 85.3427 50.3568C85.1393 50.0314 84.9767 49.0146 84.9767 48.1199C84.9767 46.8591 85.058 46.6557 85.3427 47.3065C85.5461 47.7538 85.7087 48.7706 85.7087 49.5433Z" fill="#B4B5CF"/>
<path d="M86.563 47.0625C86.563 47.5506 86.807 47.9166 87.2137 47.9166C87.5798 47.9166 87.7831 47.6319 87.7018 47.2252C87.4984 46.2085 86.563 46.0864 86.563 47.0625Z" fill="#B4B5CF"/>
<path d="M138.011 46.6965C137.726 47.1846 138.092 47.9166 138.662 47.9166C138.865 47.9166 139.028 47.5506 139.028 47.1032C139.028 46.2491 138.418 46.0051 138.011 46.6965Z" fill="#B4B5CF"/>
<path d="M139.597 47.6318C138.743 49.3807 139.069 51.1702 140.248 51.1702C141.875 51.1702 142.322 47.8758 140.858 46.6964C140.37 46.2897 140.126 46.493 139.597 47.6318ZM140.289 50.4788C139.76 51.0075 139.679 49.9094 140.167 47.8758L140.451 46.493L140.573 48.2825C140.655 49.2586 140.492 50.2754 140.289 50.4788Z" fill="#B4B5CF"/>
<path d="M91.0366 49.1367C91.0366 49.34 91.4027 49.5434 91.85 49.5434C92.2974 49.5434 92.6634 49.34 92.6634 49.1367C92.6634 48.8927 92.2974 48.73 91.85 48.73C91.4027 48.73 91.0366 48.8927 91.0366 49.1367Z" fill="#B4B5CF"/>
<path d="M132.928 49.1367C132.928 49.34 133.294 49.5434 133.741 49.5434C134.189 49.5434 134.555 49.34 134.555 49.1367C134.555 48.8927 134.189 48.73 133.741 48.73C133.294 48.73 132.928 48.8927 132.928 49.1367Z" fill="#B4B5CF"/>
<path d="M81.0321 50.1128C80.5847 51.9429 81.6015 54.0172 82.9843 54.0172C83.9604 54.0172 84.5705 52.4717 84.0417 51.3736C83.5944 50.5195 82.0896 49.1773 81.6015 49.1367C81.4388 49.1367 81.1948 49.584 81.0321 50.1128ZM83.147 52.187C83.4724 52.9597 83.635 53.6104 83.513 53.6104C83.0656 53.6104 81.6828 50.9668 81.6828 50.1534C81.7235 49.4214 81.7235 49.3807 82.1302 50.0721C82.3336 50.4381 82.8216 51.4142 83.147 52.187Z" fill="#B4B5CF"/>
<path d="M142.567 50.1128C141.794 50.8042 141.468 51.5363 141.468 52.4311V53.7325L140.574 52.9598L139.638 52.187L140.411 53.1225C141.387 54.2612 141.143 54.5459 139.557 53.9359C138.54 53.5698 137.971 53.6105 136.425 54.1799C135.409 54.5866 134.554 55.0746 134.554 55.2373C134.554 55.9287 137.605 57.6776 138.744 57.6776C140.696 57.6776 141.59 56.9455 141.306 55.6034C141.184 54.9526 141.143 54.4239 141.224 54.4239C141.631 54.4239 145.658 60.8092 147.284 63.9815C152.368 74.1899 152.897 83.4221 148.871 92.2477C146.634 97.1281 141.184 104.123 136.466 108.15L134.066 110.143H136.303H138.54L141.794 106.686C151.88 96.03 155.541 84.3982 152.287 73.1324C150.619 67.3165 147.447 61.3786 143.38 56.3761C142.323 55.0746 141.468 53.9765 141.468 53.8952C141.468 53.7732 141.916 53.8139 142.445 53.8952C143.746 54.1392 144.844 52.5531 144.641 50.7229C144.478 49.0147 143.909 48.852 142.567 50.1128ZM143.746 50.9669C143.421 51.7397 142.933 52.7157 142.689 53.0818C142.323 53.6918 142.282 53.6105 142.485 52.5937C142.729 51.4143 143.746 49.5434 144.112 49.5434C144.234 49.5434 144.071 50.1942 143.746 50.9669ZM139.842 55.644C140.655 55.9287 140.533 55.9694 139.028 55.9694C138.011 55.9694 136.751 55.8067 136.181 55.644C135.368 55.3593 135.49 55.3187 136.995 55.3187C138.011 55.3187 139.272 55.4814 139.842 55.644Z" fill="#B4B5CF"/>
<path d="M78.8354 50.0721C78.8354 50.8042 79.9742 51.7803 80.3403 51.4142C80.7063 51.0889 79.9742 49.8688 79.3235 49.6247C79.0388 49.5434 78.8354 49.7467 78.8354 50.0721Z" fill="#B4B5CF"/>
<path d="M145.616 50.0314C145.047 50.6008 144.966 51.5769 145.454 51.5769C145.942 51.5769 146.755 50.6415 146.755 50.0721C146.755 49.4214 146.267 49.3807 145.616 50.0314Z" fill="#B4B5CF"/>
<path d="M88.3118 50.4381C86.6849 51.2109 86.6849 53.1631 88.3524 53.2444C89.8979 53.3258 90.4266 53.1631 91.5654 52.065L92.7042 50.9669L91.5654 50.4788C90.1826 49.8687 89.4912 49.8687 88.3118 50.4381ZM91.8501 51.1295C91.8501 51.4142 88.8812 52.3903 87.9457 52.3903C87.051 52.3903 88.7591 51.4142 90.1013 51.1702C90.9554 51.0075 91.6874 50.8448 91.7688 50.8042C91.8094 50.8042 91.8501 50.9262 91.8501 51.1295Z" fill="#B4B5CF"/>
<path d="M134.026 50.4788L132.887 50.9669L134.067 52.1056C135.043 53.0411 135.571 53.2444 136.832 53.1224C138.54 53.0004 139.028 52.2683 138.134 51.0482C137.442 50.1128 135.449 49.8281 134.026 50.4788ZM137.524 51.9836C137.93 52.3903 137.768 52.431 136.914 52.2276C135.49 51.9023 133.741 51.2515 133.741 51.0482C133.741 50.6822 137.076 51.5362 137.524 51.9836Z" fill="#B4B5CF"/>
<path d="M77.7776 52.5936C77.4522 54.3831 78.1436 56.1727 79.4451 56.8641C80.2585 57.3114 80.5432 57.3114 81.0719 56.8641C82.17 55.9693 81.804 54.0578 80.2992 52.553C79.5264 51.7802 78.713 51.1702 78.469 51.1702C78.2656 51.1702 77.9403 51.8209 77.7776 52.5936ZM80.1365 54.3018C80.5839 55.3186 80.8279 56.2133 80.7466 56.3353C80.5432 56.5387 78.4283 52.7156 78.4283 52.1869C78.4283 51.4549 79.4451 52.7156 80.1365 54.3018Z" fill="#B4B5CF"/>
<path d="M146.308 51.7803C144.274 52.8377 143.217 55.6034 144.396 56.7828C145.128 57.5149 145.739 57.3929 146.918 56.2134C147.65 55.4407 147.975 54.7086 147.975 53.6512C147.975 51.5363 147.609 51.1296 146.308 51.7803ZM146.308 54.1799C145.372 56.2134 144.478 57.1488 145.128 55.4813C145.779 53.6918 146.796 51.9023 146.999 52.1057C147.121 52.2277 146.796 53.1631 146.308 54.1799Z" fill="#B4B5CF"/>
<path d="M102.588 52.8377C102.465 53.0817 102.547 53.4884 102.791 53.7325C103.604 54.5459 103.279 54.7086 101.652 54.3018C98.3578 53.4071 96.3242 55.4 96.3242 59.467C96.3242 65.3643 100.554 71.3429 105.882 72.9697C106.939 73.2544 108.322 73.9865 109.013 74.5558C109.664 75.1252 110.681 75.6946 111.25 75.8166C112.226 76.0607 112.267 76.1827 112.104 78.5822C111.901 81.5919 110.722 84.1948 108.281 86.9197C106.492 88.9126 105.272 91.4749 105.272 93.305C105.272 93.7931 105.109 94.3625 104.865 94.4845C104.662 94.6065 104.458 95.0132 104.458 95.3386C104.458 95.8266 105.923 95.908 113.609 95.908C121.296 95.908 122.76 95.8266 122.76 95.3386C122.76 95.0132 122.597 94.6065 122.353 94.4845C122.15 94.3625 121.947 93.6304 121.947 92.8577C121.947 92.0849 121.743 90.9868 121.499 90.3361C121.011 88.9939 118.368 86.147 117.595 86.147C117.31 86.147 117.066 85.9436 117.066 85.6996C117.066 85.4963 117.27 85.4149 117.554 85.5776C117.839 85.7403 117.88 85.6996 117.717 85.3743C117.554 85.1302 117.27 85.0082 117.066 85.1302C116.7 85.3336 115.521 83.7474 114.748 81.9986C114.057 80.4124 113.609 76.386 114.138 76.386C114.382 76.386 114.667 76.9961 114.748 77.6875L114.911 79.0296L114.951 77.5655C115.033 76.3454 115.236 76.02 115.968 75.8166C116.497 75.6946 117.636 75.0439 118.49 74.3525C119.344 73.7018 120.442 73.1324 120.93 73.1324C122.394 73.1324 126.624 70.1227 128.047 68.0079C130.894 63.9001 131.789 58.5316 130.081 55.766C129.186 54.2612 126.99 53.6104 125.322 54.3832C124.224 54.9119 123.411 54.6272 124.346 54.0172C124.672 53.8545 124.794 53.4071 124.672 53.0411C124.428 52.4717 123.126 52.3903 113.65 52.3903C106.329 52.3903 102.791 52.5123 102.588 52.8377ZM121.296 53.0411L123.167 53.3258V57.0268C123.167 61.8259 122.313 65.7303 120.523 69.2687C118.978 72.3596 117.839 73.8238 116.09 74.9626C115.073 75.6133 115.155 75.4099 116.782 73.0917C119.913 68.6179 121.093 63.6561 120.523 57.1081L120.239 53.6104L112.064 53.5698C107.387 53.5291 104.458 53.3664 105.272 53.2037C107.102 52.8377 118.774 52.7157 121.296 53.0411ZM102.262 56.0914C102.547 56.2947 102.872 57.8809 102.994 59.6297C103.36 63.4528 104.621 68.3739 105.76 70.2041L106.614 71.5869L105.638 71.3022C101.571 70.0414 97.585 64.0628 97.5443 59.1823C97.5443 57.6775 98.5611 55.766 99.4559 55.522C100.31 55.3186 101.611 55.6033 102.262 56.0914ZM128.088 55.644C128.942 55.644 129.756 58.2469 129.552 60.3618C129.145 64.3475 126.909 68.1299 123.614 70.2854C121.174 71.9123 120.523 71.8716 121.499 70.1634C122.638 68.2519 123.574 64.8356 124.021 60.9312C124.224 59.0196 124.509 57.1488 124.631 56.7421C124.875 55.9287 126.339 55.1966 127.153 55.4813C127.478 55.5626 127.885 55.644 128.088 55.644ZM120.686 90.8648C121.743 93.6304 121.784 94.6878 120.849 94.7285C120.239 94.7285 120.239 94.8099 120.93 95.0945C121.418 95.2979 118.49 95.4606 113.609 95.4606C108.729 95.4606 105.8 95.2979 106.289 95.0945C106.736 94.8912 109.908 94.7285 113.365 94.7285L119.588 94.6878L119.466 91.4749C119.384 89.6853 119.425 88.3432 119.588 88.4246C119.751 88.5059 120.239 89.604 120.686 90.8648Z" fill="#B4B5CF"/>
<path d="M83.1865 55.1966C78.7534 60.1177 74.4423 68.3332 72.9375 74.6778C72.2054 77.8501 72.1647 84.7642 72.8968 87.7738C74.0763 92.6543 76.9639 98.4702 80.3396 102.619C82.2104 104.937 82.4138 105.059 84.3253 105.181L86.3181 105.303L84.0406 102.903C79.1194 97.7788 75.5404 90.7834 74.4423 84.2761C73.8729 81.0225 73.8729 80.0464 74.3203 76.752C75.3371 69.6753 78.7534 61.6632 83.5119 55.4813C85.2607 53.2037 85.098 53.0817 83.1865 55.1966Z" fill="#B4B5CF"/>
<path d="M84.8135 54.8712L83.5527 56.1727L84.4882 56.9048C85.749 57.9215 87.7825 57.8809 89.4093 56.7421C91.3208 55.4813 91.3208 55.0339 89.4093 54.2612C87.0911 53.3257 86.2777 53.4477 84.8135 54.8712ZM89.4093 55.644C88.8399 55.8066 87.5791 55.9693 86.5624 55.9693C84.9355 55.9693 84.8542 55.9287 85.9523 55.644C86.6437 55.4813 87.9045 55.3186 88.7993 55.3186C90.1821 55.3186 90.2634 55.3593 89.4093 55.644Z" fill="#B4B5CF"/>
<path d="M74.2399 54.7086C73.8332 55.1153 73.9145 57.8809 74.3619 59.0603C74.6466 59.8737 76.5581 61.3379 77.3715 61.3379C77.9816 61.3379 78.8357 59.8737 78.8357 58.8163C78.8357 56.8641 75.2566 53.6918 74.2399 54.7086ZM76.9648 57.9622C77.9409 59.9144 77.8189 61.0532 76.8021 59.5077C75.8667 58.1656 74.7686 55.766 74.7686 55.1153C74.7686 54.5866 76.1107 56.3354 76.9648 57.9622Z" fill="#B4B5CF"/>
<path d="M148.545 55.8067C147.203 56.9861 146.958 57.3928 146.958 58.857C146.958 60.7278 147.65 61.4599 148.992 61.0939C150.66 60.6058 151.351 59.4264 151.554 56.8641C151.717 54.6679 151.676 54.4239 150.944 54.4239C150.497 54.4239 149.439 55.0339 148.545 55.8067ZM150.619 56.3354C149.887 58.0842 148.26 60.5651 148.016 60.3211C147.609 59.8737 150.293 54.8306 150.944 54.8306C151.107 54.8306 150.944 55.522 150.619 56.3354Z" fill="#B4B5CF"/>
<path d="M71.5966 57.9215C71.7593 58.7349 72.9794 59.589 73.4268 59.1823C73.8335 58.7349 72.9794 57.5148 72.166 57.3521C71.6779 57.2301 71.4746 57.4335 71.5966 57.9215Z" fill="#B4B5CF"/>
<path d="M152.531 57.7589C152.246 58.0436 152.042 58.491 152.042 58.7757C152.042 59.4264 152.937 59.4671 153.588 58.8164C154.239 58.1656 154.198 57.2709 153.547 57.2709C153.263 57.2709 152.815 57.4742 152.531 57.7589Z" fill="#B4B5CF"/>
<path d="M88.8808 57.9623C88.3114 58.491 88.6367 58.8977 89.6128 58.8977C90.2636 58.8977 90.6296 58.6537 90.6296 58.2876C90.6296 57.6776 89.3688 57.4336 88.8808 57.9623Z" fill="#B4B5CF"/>
<path d="M134.961 58.247C134.961 58.6944 135.327 58.8977 136.018 58.8977C137.279 58.8977 137.157 57.9623 135.856 57.7589C135.246 57.6776 134.961 57.8403 134.961 58.247Z" fill="#B4B5CF"/>
<path d="M82.0485 59.2636C80.9098 60.1177 80.381 61.3785 80.8284 62.0292C80.9504 62.2733 81.5198 62.68 82.0485 62.924C83.5534 63.7374 85.5869 63.1273 87.4577 61.2565C88.9219 59.7923 89.0439 59.5483 88.3932 59.223C88.0271 58.9789 86.685 58.7349 85.4242 58.6129C83.5127 58.4502 82.9433 58.5316 82.0485 59.2636ZM86.3596 60.5244C84.4481 61.3785 80.8691 62.0292 81.4792 61.4192C82.0079 60.8498 85.7089 59.7517 86.9697 59.7923C87.8238 59.7923 87.7424 59.8737 86.3596 60.5244Z" fill="#B4B5CF"/>
<path d="M137.889 58.9383L136.588 59.345L137.442 60.5244C139.394 63.1274 142.811 63.9814 144.478 62.3139C145.373 61.4192 145.291 61.0531 143.949 59.6703C142.973 58.6942 142.404 58.4909 140.98 58.5316C140.004 58.5316 138.621 58.7349 137.889 58.9383ZM141.509 60.3617C144.397 61.2158 145.088 61.8666 142.688 61.5005C140.492 61.1345 137.198 59.7924 138.459 59.7517C138.906 59.711 140.289 59.9957 141.509 60.3617Z" fill="#B4B5CF"/>
<path d="M69.8877 60.3618C69.8877 63.6968 71.6772 66.2184 73.9954 66.2184C77.7371 66.2184 75.2969 60.2805 71.1892 59.467C69.969 59.223 69.8877 59.2637 69.8877 60.3618ZM71.9619 61.0125C73.7921 62.9241 75.3376 64.9983 75.0935 65.2016C74.8088 65.4863 72.0839 62.6394 71.1078 61.0125C70.6604 60.3211 70.3757 59.7111 70.4978 59.7111C70.6198 59.7111 71.2705 60.3211 71.9619 61.0125Z" fill="#B4B5CF"/>
<path d="M153.059 60.0772C150.619 61.1753 149.928 62.1514 150.09 64.2256C150.212 65.8524 150.334 66.0151 151.351 66.1371C153.669 66.4218 155.703 63.9002 155.703 60.7279C155.703 59.1011 155.378 59.0197 153.059 60.0772ZM154.605 60.8906C153.669 62.3954 151.595 64.7543 150.904 65.161C149.887 65.7711 151.188 63.7782 153.181 61.6633C155.256 59.4264 155.703 59.1824 154.605 60.8906Z" fill="#B4B5CF"/>
<path d="M79.6078 64.3475C79.0384 64.6729 78.3876 65.405 78.103 65.9744C77.6962 66.9098 77.7369 67.1538 78.4283 67.8452C79.9738 69.3907 82.7801 68.6993 85.0983 66.2997C86.2371 65.0796 86.2371 65.0796 85.383 64.5916C83.9189 63.8188 80.7872 63.6968 79.6078 64.3475ZM85.139 65.3643C84.5696 65.893 80.5025 67.0318 79.2824 67.0318C78.3876 66.9911 78.347 66.9505 78.9164 66.6251C80.5025 65.6897 85.9524 64.5916 85.139 65.3643Z" fill="#B4B5CF"/>
<path d="M141.184 64.2255C140.452 64.4288 139.842 64.8355 139.842 65.1202C139.842 65.7303 141.672 67.5198 142.973 68.2112C145.21 69.35 148.383 68.0892 147.773 66.259C147.163 64.2662 144.194 63.3714 141.184 64.2255ZM145.332 66.0963C146.471 66.4624 147.122 66.8284 146.878 66.9098C146.064 67.1944 142.038 66.2183 141.225 65.5676C140.493 64.9982 140.574 64.9982 141.875 65.2016C142.648 65.3643 144.234 65.771 145.332 66.0963Z" fill="#B4B5CF"/>
<path d="M66.4307 65.8523C67.2034 69.8787 68.3422 71.3835 70.8231 71.7902C73.5074 72.1969 74.3615 70.2447 72.7346 67.5198C71.8806 66.0963 70.3351 65.2829 67.6915 64.7949L66.146 64.4695L66.4307 65.8523ZM71.3112 68.9026C72.1653 69.9194 72.7346 70.8141 72.6126 70.9361C72.3686 71.1802 67.0408 65.8523 67.0408 65.3236C67.0408 64.7135 69.725 66.9504 71.3112 68.9026Z" fill="#B4B5CF"/>
<path d="M156.434 65.1609C153.953 66.0556 152.937 66.9504 152.408 68.5772C152.042 69.7973 152.083 70.3667 152.449 71.0988C152.855 71.8715 153.181 71.9936 154.563 71.7902C156.678 71.5055 158.02 70.204 158.752 67.6825C159.769 64.3068 159.525 64.0628 156.434 65.1609ZM158.102 66.0963C154.889 69.7973 153.262 71.2615 153.262 70.4074C153.303 69.716 158.183 64.9982 158.875 64.9982C158.997 64.9982 158.671 65.4862 158.102 66.0963Z" fill="#B4B5CF"/>
<path d="M84.1227 68.2519C83.6754 68.5366 83.6347 68.74 83.96 69.0653C84.6108 69.7161 86.3596 69.3907 86.3596 68.6586C86.3596 67.9266 84.9768 67.6825 84.1227 68.2519Z" fill="#B4B5CF"/>
<path d="M139.231 68.2519C138.824 68.9027 139.394 69.472 140.41 69.472C141.59 69.472 141.997 69.0653 141.427 68.3739C140.898 67.7639 139.597 67.6825 139.231 68.2519Z" fill="#B4B5CF"/>
<path d="M63.7876 68.984C63.7876 70.0007 64.5603 70.6921 65.6991 70.6921C66.8786 70.6921 67.0006 69.2687 65.8618 68.6586C64.6417 68.0485 63.7876 68.1706 63.7876 68.984Z" fill="#B4B5CF"/>
<path d="M159.688 68.6993C158.55 69.35 158.753 70.6921 159.933 70.6921C161.031 70.6921 162.332 69.6347 162.088 68.9026C161.885 68.2926 160.543 68.1706 159.688 68.6993Z" fill="#B4B5CF"/>
<path d="M76.9645 70.8549C74.5649 73.2544 75.5003 75.166 79.0387 75.166C80.8689 75.166 81.1129 75.0439 83.2684 72.8884L85.546 70.5702L84.1225 70.0414C83.3498 69.7568 81.7229 69.5127 80.5435 69.5127C78.5913 69.4721 78.1846 69.6347 76.9645 70.8549ZM83.9192 71.0582C83.6345 71.5463 80.3808 72.6037 78.2253 72.9291C76.8018 73.1324 76.7204 73.1324 77.4118 72.685C78.2253 72.1563 82.6584 70.7735 83.6345 70.7328C83.9192 70.6922 84.0818 70.8549 83.9192 71.0582Z" fill="#B4B5CF"/>
<path d="M141.997 69.9194C140.004 70.4888 140.37 71.5056 143.42 74.0272C145.82 76.02 150.009 75.3693 150.009 72.9697C150.009 70.2041 146.145 68.74 141.997 69.9194ZM145.129 71.5463C148.708 72.5224 149.968 73.3764 147.162 72.9291C145.21 72.6037 142.322 71.6276 141.712 71.0175C141.102 70.4888 141.794 70.6108 145.129 71.5463Z" fill="#B4B5CF"/>
<path d="M63.177 72.4004C64.5191 76.8335 68.3015 79.5177 71.1484 78.0129C72.2466 77.4029 72.1652 75.3286 70.9044 73.7018C69.725 72.197 67.8948 71.5056 64.8852 71.5056C63.055 71.5056 62.933 71.5463 63.177 72.4004ZM67.4474 73.9052C69.9283 75.3693 71.6365 76.7928 70.9451 76.7928C70.4164 76.7928 67.6101 75.2066 65.6172 73.7832C62.8923 71.831 64.0717 71.9123 67.4474 73.9052Z" fill="#B4B5CF"/>
<path d="M157.452 71.7902C156.191 72.0342 154.158 74.0271 153.832 75.3692C153.06 78.3788 156.801 79.4363 159.689 76.996C160.787 76.0606 162.617 72.8883 162.617 71.9122C162.617 71.5055 159.282 71.4242 157.452 71.7902ZM160.787 73.3357C159.242 74.5965 154.89 76.9554 154.646 76.6707C154.442 76.508 157.249 74.5151 159.974 72.8476C161.478 71.9529 162.048 72.2782 160.787 73.3357Z" fill="#B4B5CF"/>
<path d="M78.7135 76.1014C77.8594 76.3861 76.7206 76.9961 76.1919 77.5249C74.9311 78.7043 74.2397 81.1039 74.8091 82.1207C75.6632 83.7475 79.2015 83.5848 81.0317 81.8766C82.0891 80.9005 84.1227 77.1182 84.1227 76.0607C84.1227 75.4507 80.869 75.4507 78.7135 76.1014ZM83.1059 76.7114C80.2996 79.1517 76.5579 81.5513 76.1512 81.1446C75.7038 80.7378 82.0485 76.3861 83.1059 76.3861C83.3499 76.3861 83.3499 76.5081 83.1059 76.7114Z" fill="#B4B5CF"/>
<path d="M141.468 76.02C141.509 77.1181 143.176 80.2904 144.397 81.5512C146.471 83.6661 149.968 83.8694 150.863 81.9173C151.595 80.3718 150.131 77.5248 148.138 76.5894C146.105 75.6133 141.468 75.2066 141.468 76.02ZM148.464 80.1684L150.212 81.7546L148.179 80.6158C145.779 79.2737 142.282 76.7521 142.282 76.3047C142.282 75.8166 146.633 78.5009 148.464 80.1684Z" fill="#B4B5CF"/>
<path d="M64.3974 79.111C62.5266 79.5177 60.9404 80.1278 60.9404 80.4125C60.9404 81.0225 64.2754 84.5609 65.4549 85.1303C67.2851 86.1063 69.766 85.903 70.9047 84.7235C72.1655 83.5034 72.1655 83.0967 71.0268 81.3885C69.644 79.4364 67.041 78.5009 64.3974 79.111ZM67.0817 81.6732C69.1559 82.3646 70.9861 83.0154 71.1081 83.1781C71.7588 83.9101 62.6079 81.4292 61.8352 80.6565C61.2658 80.0871 63.706 80.5751 67.0817 81.6732Z" fill="#B4B5CF"/>
<path d="M84.0412 79.2737C83.6344 79.4771 83.3091 80.0465 83.3091 80.4532C83.3091 81.0632 83.5938 81.2666 84.4479 81.2666C85.7493 81.2666 86.5627 80.6159 86.5627 79.5584C86.5627 78.745 85.2206 78.5823 84.0412 79.2737Z" fill="#B4B5CF"/>
<path d="M139.028 79.6398C139.028 80.4939 140.126 81.2666 141.427 81.2666C141.997 81.2666 142.281 81.0226 142.281 80.5345C142.281 79.4771 141.468 78.8264 140.167 78.8264C139.313 78.8264 139.028 79.0297 139.028 79.6398Z" fill="#B4B5CF"/>
<path d="M156.924 79.5583C155.663 80.1684 153.67 82.4866 153.67 83.3C153.67 83.4627 153.995 84.0321 154.402 84.5202C154.931 85.1709 155.703 85.4963 157.168 85.6183C158.835 85.781 159.445 85.6183 160.787 84.7235C162.414 83.6254 164.041 81.8766 164.488 80.7378C164.651 80.2497 164.204 79.9244 162.577 79.477C159.811 78.6636 158.672 78.6636 156.924 79.5583ZM162.984 81.0632C161.804 81.7139 156.273 83.3 155.297 83.3C153.548 83.2594 161.072 80.5344 163.024 80.4938H164.041L162.984 81.0632Z" fill="#B4B5CF"/>
<path d="M81.7229 83.0154C80.9502 83.2594 79.5267 84.2355 78.5506 85.1303C76.9644 86.6758 76.8018 87.0011 76.8018 88.8313C76.8018 91.1902 77.2898 91.8409 79.0793 91.8409C81.9263 91.8409 84.5699 88.628 85.1392 84.3982C85.3833 82.4867 85.3833 82.4867 84.2445 82.5274C83.6344 82.568 82.4957 82.7714 81.7229 83.0154ZM83.3497 84.8049C80.8282 87.9366 78.0219 90.6208 78.0219 89.9294C78.0219 89.36 83.6751 83.3001 84.2038 83.3001C84.4072 83.3001 84.0411 83.9915 83.3497 84.8049Z" fill="#B4B5CF"/>
<path d="M140.776 84.9269C141.021 87.7738 141.997 89.6447 143.908 90.9055C145.454 91.9629 147.65 92.1256 148.382 91.2309C148.992 90.4988 149.033 88.0585 148.423 86.6351C147.65 84.8049 143.664 82.4867 141.346 82.4867C140.614 82.4867 140.573 82.69 140.776 84.9269ZM147.569 89.8887C147.813 90.3768 146.552 89.3193 144.762 87.4485C142.932 85.5776 141.468 83.8288 141.468 83.5848C141.509 82.9747 146.918 88.5873 147.569 89.8887Z" fill="#B4B5CF"/>
<path d="M61.4282 86.0249C61.5096 86.5537 61.9163 86.757 62.9737 86.757C65.0479 86.757 64.9259 85.5776 62.8517 85.4149C61.5096 85.2929 61.3062 85.3742 61.4282 86.0249Z" fill="#B4B5CF"/>
<path d="M161.396 86.147C161.396 86.7571 161.681 86.9604 162.535 86.9604C163.145 86.9604 163.877 86.7978 164.203 86.5944C165.098 86.025 164.325 85.3336 162.779 85.3336C161.681 85.3336 161.396 85.4963 161.396 86.147Z" fill="#B4B5CF"/>
<path d="M63.5027 87.9772C62.3233 88.5059 61.3472 89.116 61.3472 89.3193C61.3472 89.8074 63.34 91.5969 65.0075 92.6136C67.8951 94.3218 72.735 93.183 72.735 90.7835C72.735 87.2451 68.0985 85.8216 63.5027 87.9772ZM70.0914 90.0107L72.5316 90.5394L69.8067 90.5801C66.9597 90.6208 63.0553 89.9701 62.4046 89.36C61.9166 88.9126 66.8784 89.3193 70.0914 90.0107Z" fill="#B4B5CF"/>
<path d="M154.726 87.7739C153.059 88.8313 152.286 90.3768 152.856 91.4342C153.466 92.6137 155.418 93.4678 157.451 93.4678C159.322 93.4678 161.966 92.085 163.755 90.1328L164.691 89.116L162.291 88.0586C159.322 86.7164 156.435 86.5944 154.726 87.7739ZM163.186 89.4007C162.576 90.0108 158.712 90.6208 155.743 90.5802C153.14 90.5395 153.1 90.5395 154.686 90.1328C155.581 89.9294 157.614 89.6041 159.16 89.4414C163.43 88.9533 163.633 88.9533 163.186 89.4007Z" fill="#B4B5CF"/>
<path d="M86.9283 88.7499C83.6747 90.0514 82.2919 91.1902 81.3158 93.183C80.0957 95.7046 80.299 98.2262 81.8445 99.243C83.5933 100.422 87.2537 98.6736 88.7179 95.9486C90.1007 93.3457 90.6294 87.7332 89.4499 87.7738C89.3279 87.7738 88.1891 88.2212 86.9283 88.7499ZM89.1652 89.0753C87.9044 91.2308 85.5455 94.4438 83.9187 96.1113L82.0479 98.1449L82.9833 96.4774C83.9594 94.7285 88.8399 88.5872 89.2466 88.5872C89.3686 88.5872 89.3279 88.8313 89.1652 89.0753Z" fill="#B4B5CF"/>
<path d="M135.815 90.7021C135.856 95.0132 136.791 97.0874 139.435 98.7142C141.347 99.853 143.665 99.853 144.478 98.6736C145.902 96.64 144.763 92.3696 142.323 90.6208C141.103 89.7667 138.418 88.5059 136.71 87.9772C135.815 87.7331 135.775 87.7738 135.815 90.7021ZM141.957 95.2165C142.851 96.518 143.502 97.6975 143.38 97.8195C143.055 98.1042 138.418 92.3289 137.402 90.4174L136.547 88.7906L138.418 90.8241C139.476 91.9222 141.062 93.9151 141.957 95.2165Z" fill="#B4B5CF"/>
<path d="M90.9552 92.451C90.5892 93.2237 90.5892 93.5898 90.9552 93.9558C91.5653 94.5659 93.0701 93.2644 93.0701 92.1663C93.0701 91.0275 91.5246 91.2309 90.9552 92.451Z" fill="#B4B5CF"/>
<path d="M132.521 92.1663C132.521 93.2644 134.026 94.5659 134.636 93.9558C135.002 93.5898 135.002 93.2237 134.636 92.451C134.066 91.2309 132.521 91.0275 132.521 92.1663Z" fill="#B4B5CF"/>
<path d="M68.2612 94.4031C65.5362 95.1352 62.8927 96.64 63.2587 97.2907C63.7874 98.1448 66.309 100.219 67.8138 100.992C69.4406 101.805 72.5723 101.927 73.9957 101.195C75.2565 100.544 76.3546 99.1616 76.3953 98.2668C76.3953 96.9654 74.0771 94.8098 72.1656 94.3218C71.1488 94.0777 70.2947 93.8744 70.2134 93.9151C70.132 93.9151 69.2779 94.1591 68.2612 94.4031ZM72.0436 97.6974C73.5484 97.9821 74.9312 98.3482 75.0939 98.5108C75.5006 98.9582 68.5052 98.3075 66.0243 97.7381L63.9908 97.2094L66.6344 97.1687C68.0985 97.1687 70.4981 97.4127 72.0436 97.6974Z" fill="#B4B5CF"/>
<path d="M92.0535 95.0539C88.2305 97.2908 86.563 99.5684 86.563 102.578C86.563 106.686 87.9051 106.198 90.7521 100.992C92.0129 98.6736 93.0703 96.5994 93.0703 96.4367C93.0703 96.2334 93.4363 95.8674 93.9244 95.5827C94.4124 95.2573 94.6565 95.2166 94.4938 95.4606C94.3718 95.7047 94.5751 95.908 95.0225 95.908C95.6326 95.908 95.7546 95.7047 95.5919 94.8913C95.3479 93.5491 94.5751 93.5898 92.0535 95.0539Z" fill="#B4B5CF"/>
<path d="M130.081 94.8912C130.081 95.4606 130.284 95.908 130.487 95.908C130.731 95.908 130.894 95.7047 130.894 95.5013C130.894 95.2573 131.219 95.2979 131.707 95.5826C132.155 95.8673 132.521 96.274 132.521 96.4367C132.521 96.6401 133.253 98.0229 134.148 99.487C135.002 100.992 136.018 102.944 136.385 103.839C136.995 105.425 136.995 105.425 136.303 104.53C135.896 104.001 134.88 102.456 134.066 101.073L132.521 98.5923V101.968V105.303L134.27 106.076C135.246 106.523 136.425 106.767 136.913 106.604C138.987 106.076 139.72 101.724 138.174 99.2023C137.157 97.4942 136.181 96.6401 133.538 95.0946C130.975 93.5898 130.081 93.5084 130.081 94.8912Z" fill="#B4B5CF"/>
<path d="M153.14 94.4438C151.269 95.1352 150.537 95.7453 149.764 97.2501C149.195 98.2669 149.195 98.5109 149.764 99.4056C150.13 99.9344 150.863 100.666 151.432 101.032C152.774 101.887 155.987 101.887 157.777 100.992C159.444 100.138 162.616 97.6161 162.616 97.1281C162.616 96.5587 159.688 95.0132 157.533 94.4438C155.092 93.7524 155.092 93.7524 153.14 94.4438ZM159.485 97.7381C156.963 98.3482 150.09 98.9583 150.497 98.5109C151.025 98.0228 156.109 97.2094 158.956 97.2094H161.6L159.485 97.7381Z" fill="#B4B5CF"/>
<path d="M94.6969 102.212V106.889H76.5985H58.5V128.445V150H112.999H167.497V130.681V111.363H149.196H130.894V104.449V97.5348H112.795H94.6969V102.212ZM130.487 121.978C130.487 134.748 130.324 145.079 130.121 144.957C129.958 144.835 129.674 134.708 129.511 122.466C129.308 110.224 129.104 100.097 128.982 99.9751C128.901 99.8937 122.068 99.6904 113.812 99.5683C105.556 99.4463 98.6826 99.243 98.52 99.0396C98.3573 98.8769 105.475 98.7549 114.341 98.7549H130.487V121.978ZM118.286 116.406V125.964L119.831 126.086L121.336 126.208V128.445V130.681L114.341 130.803L107.305 130.885V128.445V126.004H109.135H110.965V119.904C110.965 116.528 110.843 113.803 110.68 113.803C110.477 113.844 109.908 114.088 109.338 114.413C108.769 114.739 108.118 114.983 107.834 115.023C107.386 115.023 105.8 111.485 106.125 111.241C106.207 111.159 107.101 110.631 108.118 110.061C109.135 109.492 110.396 108.516 110.925 107.947C111.819 106.97 112.185 106.889 115.114 106.889H118.286V116.406ZM94.2495 118.765C94.1682 131.291 93.6801 148.821 93.4768 145.73C93.4361 144.591 93.3141 143.411 93.2734 143.086C93.2328 142.761 93.1514 134.911 93.1108 125.679L93.0701 108.923H83.0244C77.4525 108.923 70.0098 108.801 66.4308 108.597L59.9235 108.313L65.8207 108.109C69.0744 107.987 76.8018 107.865 83.0244 107.784L94.2902 107.662L94.2495 118.765ZM167.05 123.645C167.009 129.99 166.887 138.002 166.725 141.459L166.481 147.763L166.196 137.595C165.993 131.983 165.871 124.255 165.871 120.392V113.396H151.27C143.258 113.396 136.059 113.274 135.327 113.071C134.025 112.786 143.542 112.502 160.299 112.258L167.091 112.176L167.05 123.645ZM81.0722 115.389C84.4072 116.894 86.1154 119.985 85.6273 123.645C85.3427 125.882 84.4072 127.062 81.0316 129.38C79.4861 130.437 77.4932 132.024 76.5985 132.918L74.9716 134.545H77.9406H80.8689V133.122V131.698H83.9192H86.9695V135.359V139.019H77.6152H68.261V136.416C68.261 134.098 68.383 133.65 69.7251 131.861C70.5385 130.763 72.4094 128.933 73.8735 127.834C78.754 124.093 79.2827 123.523 79.1607 122.385C78.998 121.083 77.3305 120.107 75.9071 120.432C75.297 120.595 74.2396 121.205 73.5482 121.815L72.2467 122.873L70.3758 121.002L68.505 119.09L69.8878 117.667C72.5721 114.901 77.7372 113.844 81.0722 115.389ZM154.483 120.066C157.858 121.693 159.16 126.045 157.126 129.014L156.11 130.559L157.126 131.739C159.567 134.667 159.445 138.043 156.801 140.808C155.012 142.679 152.043 143.899 149.358 143.899C146.837 143.899 141.428 141.337 141.468 140.117C141.509 139.873 142.2 138.856 143.054 137.88L144.6 136.091L146.145 137.148C147.772 138.246 149.887 138.531 151.27 137.799C151.839 137.473 152.043 136.945 152.043 135.725C152.043 134.382 151.88 134.057 150.985 133.732C150.416 133.488 149.236 133.325 148.342 133.325H146.755V131.332V129.38L148.789 129.177C149.887 129.055 151.066 128.729 151.433 128.445C152.246 127.753 152.205 125.842 151.351 124.988C150.456 124.093 147.487 124.377 146.308 125.435C145.454 126.208 145.413 126.167 143.664 124.255C142.688 123.157 141.956 122.1 142.119 121.897C142.526 121.205 146.105 119.334 147.528 119.09C149.684 118.684 152.409 119.05 154.483 120.066Z" fill="#B4B5CF"/>
<path d="M92.4604 99.5277C92.3384 99.9344 91.525 101.399 90.6302 102.781L89.0034 105.262H91.037H93.0705V102.009C93.0705 98.7143 92.9078 98.1042 92.4604 99.5277Z" fill="#B4B5CF"/>
<path d="M72.9384 102.537C71.5556 103.066 68.668 104.815 68.668 105.1C68.668 105.222 71.3929 105.262 74.7686 105.222C80.6658 105.181 80.8285 105.14 80.4218 104.367C79.8931 103.351 76.9648 102.009 75.3786 102.049C74.7279 102.049 73.5891 102.293 72.9384 102.537Z" fill="#B4B5CF"/>
<path d="M147.731 102.578C146.145 103.269 144.722 104.774 144.722 105.75C144.722 106.848 147.04 109.207 148.667 109.777C150.7 110.427 153.181 110.061 156.394 108.516L159.16 107.214L157.248 105.506C153.954 102.497 150.334 101.398 147.731 102.578ZM153.141 105.913C155.215 106.279 157.045 106.726 157.167 106.93C157.452 107.377 153.873 107.052 149.806 106.238C148.26 105.913 146.837 105.669 146.674 105.669C146.471 105.669 146.349 105.506 146.349 105.344C146.349 104.937 148.301 105.1 153.141 105.913Z" fill="#B4B5CF"/>
<path d="M66.2278 103.025C65.5771 103.839 66.0651 104.449 67.4073 104.449C68.668 104.449 69.7255 103.513 69.2781 102.822C68.9121 102.212 66.7972 102.334 66.2278 103.025Z" fill="#B4B5CF"/>
<path d="M156.272 102.903C155.906 103.473 157.208 104.449 158.387 104.449C159.567 104.449 159.973 103.798 159.363 103.025C158.753 102.293 156.679 102.212 156.272 102.903Z" fill="#B4B5CF"/>
<path d="M140.858 109.533C139.72 110.021 139.882 110.061 143.502 110.102C147.04 110.102 147.284 110.061 146.349 109.533C145.047 108.801 142.445 108.801 140.858 109.533Z" fill="#B4B5CF"/>
<defs>
<filter id="filter0_d_2575_2150" x="0.5" y="0" width="224" height="224" filterUnits="userSpaceOnUse" color-interpolation-filters="sRGB">
<feFlood flood-opacity="0" result="BackgroundImageFix"/>
<feColorMatrix in="SourceAlpha" type="matrix" values="0 0 0 0 0 0 0 0 0 0 0 0 0 0 0 0 0 0 127 0" result="hardAlpha"/>
<feOffset dy="16"/>
<feGaussianBlur stdDeviation="16"/>
<feComposite in2="hardAlpha" operator="out"/>
<feColorMatrix type="matrix" values="0 0 0 0 0 0 0 0 0 0 0 0 0 0 0 0 0 0 0.25 0"/>
<feBlend mode="normal" in2="BackgroundImageFix" result="effect1_dropShadow_2575_2150"/>
<feBlend mode="normal" in="SourceGraphic" in2="effect1_dropShadow_2575_2150" result="shape"/>
</filter>
</defs>
</svg>
