<svg width="24" height="25" viewBox="0 0 24 25" fill="none" xmlns="http://www.w3.org/2000/svg">
<g clip-path="url(#clip0_840_5777)">
<path d="M19 0.5H5C2.239 0.5 0 2.739 0 5.5V19.5C0 22.261 2.239 24.5 5 24.5H19C21.762 24.5 24 22.261 24 19.5V5.5C24 2.739 21.762 0.5 19 0.5ZM14.534 20.09C14.129 20.168 14 19.919 14 19.706V17.511C14 16.764 13.738 16.278 13.45 16.03C15.232 15.832 17.104 15.155 17.104 12.083C17.104 11.209 16.792 10.495 16.281 9.936C16.363 9.734 16.637 8.92 16.202 7.819C16.202 7.819 15.531 7.604 14.004 8.639C13.364 8.459 12.68 8.372 12 8.368C11.32 8.371 10.636 8.459 9.997 8.637C8.469 7.602 7.797 7.817 7.797 7.817C7.363 8.919 7.637 9.732 7.72 9.935C7.208 10.495 6.896 11.208 6.896 12.082C6.896 15.146 8.763 15.833 10.541 16.036C10.312 16.236 10.105 16.588 10.033 17.106C9.576 17.31 8.419 17.663 7.705 16.44C7.705 16.44 7.282 15.672 6.478 15.615C6.478 15.615 5.698 15.605 6.423 16.102C6.423 16.102 6.948 16.348 7.312 17.272C7.312 17.272 7.775 18.7 10 18.216V19.705C10 19.916 9.871 20.164 9.472 20.09C6.292 19.033 4 16.034 4 12.5C4 8.081 7.582 4.5 12 4.5C16.418 4.5 20 8.081 20 12.5C20 16.033 17.711 19.031 14.534 20.09Z" fill="#636472"/>
</g>
<defs>
<clipPath id="clip0_840_5777">
<rect width="24" height="24" fill="white" transform="translate(0 0.5)"/>
</clipPath>
</defs>
</svg>
