<svg width="49" height="48" viewBox="0 0 49 48" fill="none" xmlns="http://www.w3.org/2000/svg">
<g clip-path="url(#clip0_37_256)">
<path opacity="0.991" fill-rule="evenodd" clip-rule="evenodd" d="M24.7291 7.58311C30.6054 10.2805 36.4817 12.9778 42.358 15.6752C42.1512 16.1802 41.9444 16.6852 41.7376 17.1901C43.2873 17.8895 44.8285 18.6089 46.3614 19.3486C46.931 19.7278 47.1869 20.2652 47.1291 20.9607C46.4342 22.6575 45.7394 24.3542 45.0445 26.0509C43.0159 29.2261 40.2344 30.3729 36.6999 29.4913C35.2128 33.0299 32.6801 35.1188 29.1018 35.758C28.0631 35.8923 25.1396 35.9304 24.1087 35.758C24.022 36.966 23.9352 38.174 23.8485 39.382C25.0613 39.9626 24.5245 40.4862 25.7372 41.0668C25.7829 40.469 26.1776 41.4421 25.7372 41.0668C25.6385 42.4603 26.5953 41.4162 26.4836 42.8058C20.6073 40.1084 29.9851 45.5032 24.1088 42.8058C24.9905 41.7697 23.2155 44.7081 24.1087 43.6793C29.8459 47.0425 29.0869 44.5724 23.1245 41.5658C24.3538 42.1061 20.876 35.1605 22.1053 35.7008C22.8789 34.8081 21.3317 34.8069 22.1053 33.9142C18.8969 31.1634 15.702 27.545 16.4701 23.2486C16.6175 22.5782 18.8009 22.025 19.071 21.3992C16.0473 19.2704 14.9367 16.3371 15.7393 12.5991C16.4341 10.9024 17.129 9.20565 17.8238 7.50893C18.2639 6.98886 18.8093 6.81929 19.4601 7.00022C21.0178 7.67924 22.5673 8.37851 24.1087 9.09804C24.3155 8.59306 24.5223 8.08809 24.7291 7.58311ZM19.9564 10.9354C20.9103 11.3733 21.8643 11.8112 22.8182 12.2491C22.0088 14.2533 21.1803 16.2486 20.3328 18.235C19.0356 17.0048 18.5475 15.485 18.8683 13.6754C19.2118 12.7536 19.5745 11.8402 19.9564 10.9354ZM40.4472 20.3412C41.4012 20.7791 42.3551 21.2169 43.309 21.6548C42.9463 22.5684 42.5644 23.473 42.1637 24.3686C41.1652 25.8993 39.7931 26.5653 38.0476 26.3666C38.8091 24.341 39.609 22.3326 40.4472 20.3412ZM30.8806 17.9656C30.9702 18.0515 31.0039 18.163 30.9817 18.2999C30.9832 19.3594 30.9912 20.419 31.0059 21.4785C32.0005 21.9831 31.4462 22.4876 32.4408 22.9922C31.3391 23.6622 31.7864 24.3324 30.6847 25.0025C30.4497 26.0791 30.2638 27.1696 30.1269 28.2739C30.0996 28.2853 30.0722 28.2967 30.0448 28.3082C29.3178 27.3449 29.1835 29.2595 28.4875 28.2739C27.3321 28.4097 29.0714 29.3947 27.9103 29.4913C23.2592 39.5159 18.0637 23.0211 18.0529 22.9922C18.7207 22.1315 22.5428 17.8255 23.1245 16.9081C22.8335 15.5987 25.6954 20.3606 25.4043 19.0512C26.432 19.475 27.4597 19.8987 28.4875 20.3225C29.2864 19.5359 30.0841 18.7503 30.8806 17.9656Z" fill="#18578F"/>
</g>
<g clip-path="url(#clip1_37_256)">
<path opacity="0.991" fill-rule="evenodd" clip-rule="evenodd" d="M19.9907 4.05275C15.2071 6.9733 10.4236 9.89381 5.63998 12.8144C5.86389 13.2254 6.08781 13.6365 6.31172 14.0476C5.04913 14.8075 3.79559 15.5838 2.55109 16.3764C2.09833 16.7604 1.92891 17.2473 2.04284 17.8371C2.79519 19.2183 3.54753 20.5995 4.29987 21.9807C6.3316 24.4898 8.82035 25.1834 11.7662 24.0613C13.3678 26.9379 14.6745 27.8651 17.7987 28.0411C18.7008 28.0483 17.5019 20.4424 18.369 20.1877C18.5552 21.2134 29.0179 18.4652 29.2041 19.4909C28.2191 20.1141 26.9824 30.4235 25.9974 31.0468C25.9029 30.5394 25.6549 31.4139 25.9974 31.0468C26.211 32.2301 21.526 33.2267 21.7503 34.4053C26.5339 31.4847 19.0009 37.0793 23.7845 34.1587C22.9333 33.3628 24.7259 35.6954 23.8655 34.907C19.2628 38.3833 19.6841 36.1888 24.5128 32.9944C23.5098 33.5848 28.1506 28.5908 27.1477 29.1812C26.4024 28.4969 30.3305 28.3576 29.5852 27.6733C32.0787 24.9839 29.5719 20.2142 28.5161 16.6138C28.3277 16.0549 26.4063 15.8077 26.117 15.2997C28.5098 13.1623 29.1894 10.5344 28.1557 7.41592C27.4033 6.03472 26.651 4.65352 25.8986 3.27232C25.4735 2.87253 24.9906 2.78391 24.45 3.00645C23.1786 3.74978 21.9161 4.50963 20.6625 5.28597C20.4386 4.8749 20.2146 4.46382 19.9907 4.05275ZM24.3893 6.42872C23.6128 6.90283 22.8362 7.37694 22.0597 7.85106C22.9386 9.48375 23.8331 11.1068 24.743 12.7204C25.7402 11.5319 26.0176 10.1794 25.5752 8.66273C25.1955 7.90878 24.8002 7.16409 24.3893 6.42872ZM7.70892 16.6127C6.93235 17.0868 6.15583 17.5609 5.37926 18.035C5.77462 18.7799 6.18545 19.5151 6.61168 20.2406C7.60874 21.4481 8.84566 21.8761 10.3224 21.5246C9.48249 19.8687 8.61132 18.2314 7.70892 16.6127Z" fill="#18578F"/>
</g>
<g clip-path="url(#clip2_37_256)">
<path opacity="0.991" fill-rule="evenodd" clip-rule="evenodd" d="M14.1524 11.9436C20.5573 11.9436 26.9621 11.9436 33.367 11.9436C33.367 12.494 33.367 13.0444 33.367 13.5948C35.0515 13.5838 36.7359 13.5948 38.4202 13.6278C39.0853 13.7359 39.522 14.1212 39.7303 14.7836C39.7303 16.633 39.7303 18.4823 39.7303 20.3316C39.0622 24.0992 36.9411 26.3227 33.367 27.0024C33.3321 30.8753 31.7933 33.8584 28.7505 35.9519C27.848 36.5125 26.8914 36.9307 25.8808 37.2068C26.2551 38.3516 26.6294 39.4964 27.0037 40.6412C28.3346 40.6632 29.6655 40.6853 30.9964 40.7073C31.5414 40.8661 31.9054 41.2293 32.0881 41.7971C32.5211 43.1171 32.9474 44.438 33.367 45.7599C26.9621 45.7599 20.5573 45.7599 14.1524 45.7599C14.5721 44.438 14.9983 43.1171 15.4313 41.7971C15.614 41.2293 15.978 40.8661 16.523 40.7073C17.8539 40.6853 19.1848 40.6632 20.5157 40.6412C20.89 39.4964 21.2643 38.3516 21.6386 37.2068C17.6614 36.0342 15.2179 33.3152 14.3084 29.0499C14.1917 28.3728 14.1397 27.6903 14.1524 27.0024C10.5784 26.3227 8.45726 24.0992 7.78912 20.3316C7.78912 18.4823 7.78912 16.633 7.78912 14.7836C7.99745 14.1212 8.43415 13.7359 9.09921 13.6278C10.7835 13.5948 12.4679 13.5838 14.1524 13.5948C14.1524 13.0444 14.1524 12.494 14.1524 11.9436ZM11.0331 17.0293C12.0729 17.0293 13.1126 17.0293 14.1524 17.0293C14.1628 19.209 14.1524 21.3885 14.1212 23.568C12.4689 22.9856 11.4499 21.7967 11.0643 20.0014C11.0332 19.0109 11.0228 18.0202 11.0331 17.0293ZM33.367 17.0293C34.4068 17.0293 35.4465 17.0293 36.4863 17.0293C36.4967 18.0202 36.4863 19.0109 36.4551 20.0014C36.1142 21.8264 35.1056 23.0152 33.4294 23.568C33.367 21.3889 33.3462 19.2093 33.367 17.0293ZM23.6973 18.8786C23.8118 18.9197 23.8846 19.0078 23.9157 19.1428C24.3151 20.1142 24.7206 21.0829 25.1322 22.0489C26.2343 22.0929 27.3364 22.1369 28.4386 22.181C27.6796 23.2597 26.9206 24.3385 26.1615 25.4173C26.3505 26.504 26.5897 27.5828 26.879 28.6536C26.8582 28.6756 26.8374 28.6977 26.8166 28.7197C25.7876 28.142 24.7687 27.5476 23.7597 26.9364C22.7508 27.5476 21.7318 28.142 20.7028 28.7197C20.6821 28.6977 20.6612 28.6756 20.6405 28.6536C20.9297 27.5828 21.1689 26.504 21.3579 25.4173C20.5988 24.3385 19.8399 23.2597 19.0808 22.181C20.183 22.1369 21.2851 22.0929 22.3872 22.0489C22.8247 20.9907 23.2614 19.934 23.6973 18.8786Z" fill="#0E3454"/>
</g>
<defs>
<clipPath id="clip0_37_256">
<rect width="32.2452" height="33.5266" fill="white" transform="matrix(0.908827 0.417173 -0.37898 0.925405 19.1943 3.52252)"/>
</clipPath>
<clipPath id="clip1_37_256">
<rect width="27.9505" height="28.76" fill="white" transform="matrix(-0.853501 0.52109 0.478342 0.878173 24.3555 0)"/>
</clipPath>
<clipPath id="clip2_37_256">
<rect width="31.9412" height="33.8163" fill="white" transform="translate(7.82031 11.9766)"/>
</clipPath>
</defs>
</svg>
