<svg width="49" height="48" viewBox="0 0 49 48" fill="none" xmlns="http://www.w3.org/2000/svg">
<g id="Win-icon 1">
<path id="Vector" d="M24.4848 2.86682C24.2305 2.87079 23.9882 2.97549 23.811 3.15793C23.6339 3.34037 23.5363 3.58565 23.5398 3.83994V8.63994C23.538 8.76715 23.5615 8.89345 23.6089 9.0115C23.6564 9.12955 23.7268 9.237 23.8161 9.32759C23.9055 9.41819 24.0119 9.49012 24.1293 9.53923C24.2466 9.58833 24.3726 9.61361 24.4998 9.61361C24.627 9.61361 24.753 9.58833 24.8704 9.53923C24.9877 9.49012 25.0942 9.41819 25.1835 9.32759C25.2728 9.237 25.3432 9.12955 25.3907 9.0115C25.4381 8.89345 25.4616 8.76715 25.4598 8.63994V3.83994C25.4616 3.7115 25.4375 3.58402 25.3891 3.46504C25.3407 3.34605 25.269 3.23799 25.178 3.14725C25.0871 3.05651 24.9789 2.98494 24.8598 2.93677C24.7408 2.8886 24.6132 2.86481 24.4848 2.86682ZM11.0092 9.59244C10.8099 9.60055 10.6181 9.67052 10.4604 9.79264C10.3027 9.91475 10.1869 10.0829 10.1292 10.2739C10.0715 10.4648 10.0746 10.6689 10.1383 10.858C10.2019 11.047 10.3228 11.2115 10.4842 11.3287L14.3242 14.2087C14.5281 14.3614 14.7842 14.4268 15.0364 14.3906C15.2885 14.3543 15.5159 14.2195 15.6686 14.0156C15.8212 13.8117 15.8866 13.5555 15.8504 13.3034C15.8142 13.0513 15.6793 12.8239 15.4754 12.6712L11.6354 9.79119C11.4566 9.65335 11.2348 9.58298 11.0092 9.59244ZM37.9623 9.59244C37.7462 9.5895 37.5355 9.65952 37.3642 9.79119L33.5242 12.6712C33.4232 12.7468 33.3382 12.8415 33.2738 12.95C33.2095 13.0585 33.1671 13.1785 33.1492 13.3034C33.1313 13.4282 33.1381 13.5554 33.1693 13.6776C33.2005 13.7998 33.2555 13.9146 33.3311 14.0156C33.4066 14.1165 33.5014 14.2016 33.6099 14.2659C33.7183 14.3303 33.8384 14.3726 33.9632 14.3906C34.0881 14.4085 34.2152 14.4017 34.3374 14.3705C34.4596 14.3393 34.5745 14.2843 34.6754 14.2087L38.5154 11.3287C38.6785 11.21 38.8 11.043 38.8628 10.8514C38.9256 10.6597 38.9264 10.4532 38.8652 10.261C38.804 10.0689 38.6838 9.90089 38.5218 9.78088C38.3597 9.66087 38.164 9.59494 37.9623 9.59244ZM24.4998 11.5199C21.6198 11.5199 19.3158 12.4799 18.7398 14.3999C18.4985 15.1237 17.2384 22.2953 16.7729 24.9599H7.2198C6.1638 24.9599 5.2998 25.8239 5.2998 26.8799V43.1999C5.2998 44.2559 6.1638 45.1199 7.2198 45.1199H41.7798C42.8358 45.1199 43.6998 44.2559 43.6998 43.1999V26.8799C43.6998 25.8239 42.8358 24.9599 41.7798 24.9599H32.2379C31.8018 22.3546 30.659 15.5974 30.2598 14.3999C29.6838 12.4799 27.3798 11.5199 24.4998 11.5199ZM24.4998 13.4399C26.1318 13.4399 28.0514 13.8236 28.4354 14.9756C28.7234 15.7436 29.5878 20.8319 30.2598 24.9599H18.7398C19.5078 20.7359 20.3722 15.5516 20.5642 14.9756C20.8522 14.0156 22.3878 13.4399 24.4998 13.4399ZM8.1798 21.1199C8.05259 21.1181 7.92629 21.1416 7.80824 21.1891C7.69019 21.2365 7.58275 21.3069 7.49215 21.3963C7.40156 21.4856 7.32962 21.592 7.28052 21.7094C7.23142 21.8268 7.20613 21.9527 7.20613 22.0799C7.20613 22.2072 7.23142 22.3331 7.28052 22.4505C7.32962 22.5679 7.40156 22.6743 7.49215 22.7636C7.58275 22.8529 7.69019 22.9234 7.80824 22.9708C7.92629 23.0182 8.05259 23.0417 8.1798 23.0399H12.9798C13.107 23.0417 13.2333 23.0182 13.3514 22.9708C13.4694 22.9234 13.5769 22.8529 13.6675 22.7636C13.758 22.6743 13.83 22.5679 13.8791 22.4505C13.9282 22.3331 13.9535 22.2072 13.9535 22.0799C13.9535 21.9527 13.9282 21.8268 13.8791 21.7094C13.83 21.592 13.758 21.4856 13.6675 21.3963C13.5769 21.3069 13.4694 21.2365 13.3514 21.1891C13.2333 21.1416 13.107 21.1181 12.9798 21.1199H8.1798ZM36.0198 21.1199C35.8926 21.1181 35.7663 21.1416 35.6482 21.1891C35.5302 21.2365 35.4228 21.3069 35.3322 21.3963C35.2416 21.4856 35.1696 21.592 35.1205 21.7094C35.0714 21.8268 35.0461 21.9527 35.0461 22.0799C35.0461 22.2072 35.0714 22.3331 35.1205 22.4505C35.1696 22.5679 35.2416 22.6743 35.3322 22.7636C35.4228 22.8529 35.5302 22.9234 35.6482 22.9708C35.7663 23.0182 35.8926 23.0417 36.0198 23.0399H40.8198C40.947 23.0417 41.0733 23.0182 41.1914 22.9708C41.3094 22.9234 41.4169 22.8529 41.5075 22.7636C41.598 22.6743 41.67 22.5679 41.7191 22.4505C41.7682 22.3331 41.7935 22.2072 41.7935 22.0799C41.7935 21.9527 41.7682 21.8268 41.7191 21.7094C41.67 21.592 41.598 21.4856 41.5075 21.3963C41.4169 21.3069 41.3094 21.2365 41.1914 21.1891C41.0733 21.1416 40.947 21.1181 40.8198 21.1199H36.0198ZM10.0998 29.7599H12.0198C12.0198 29.7599 13.7478 36.8639 13.9398 37.9199C14.1318 36.7679 15.8598 29.7599 15.8598 29.7599H17.7798C17.7798 29.7599 19.5078 36.6727 19.6998 37.7287C19.8918 36.5767 21.6198 29.7599 21.6198 29.7599H23.5398L20.6598 40.3199H18.7398C18.7398 40.3199 16.9158 33.1207 16.8198 31.9687C16.6278 33.1207 14.8998 40.3199 14.8998 40.3199H12.9798L10.0998 29.7599ZM24.4998 29.7599H26.4198V40.3199H24.4998V29.7599ZM28.3398 29.7599H30.2598H30.5486C30.5486 29.7599 34.3878 36.4799 35.0598 37.4399V29.7599H35.1554H36.9798V40.3199H35.0598H34.9642C34.9642 40.3199 31.4118 34.5599 30.2598 32.6399V40.3199H30.0686H28.3398V29.7599Z" fill="#0E3454"/>
</g>
</svg>
