<svg width="13" height="12" viewBox="0 0 13 12" fill="none" xmlns="http://www.w3.org/2000/svg">
<g id="fi-ss-mode-landscape" clip-path="url(#clip0_1800_56074)">
<path id="Vector" d="M8.98633 5.00015C9.81476 5.00015 10.4863 4.32858 10.4863 3.50015C10.4863 2.67173 9.81476 2.00015 8.98633 2.00015C8.1579 2.00015 7.48633 2.67173 7.48633 3.50015C7.48633 4.32858 8.1579 5.00015 8.98633 5.00015Z" fill="#374957"/>
<path id="Vector_2" d="M2.98633 9.49984C2.98633 9.63245 3.03901 9.75963 3.13277 9.85339C3.22654 9.94716 3.35372 9.99984 3.48633 9.99984H10.9863V9.29284L6.54683 4.85334C6.26554 4.57213 5.88407 4.41416 5.48633 4.41416C5.08858 4.41416 4.70712 4.57213 4.42583 4.85334L2.98633 6.29284V9.49984Z" fill="#374957"/>
<path id="Vector_3" d="M11.4863 12.0002H8.98633V11.0002H11.4863C11.6189 11.0002 11.7461 10.9475 11.8399 10.8537C11.9336 10.76 11.9863 10.6328 11.9863 10.5002V8.00018H12.9863V10.5002C12.9863 10.898 12.8283 11.2795 12.547 11.5608C12.2657 11.8421 11.8841 12.0002 11.4863 12.0002Z" fill="#374957"/>
<path id="Vector_4" d="M1.98633 4H0.986328V1.5C0.986328 1.10218 1.14436 0.720644 1.42567 0.43934C1.70697 0.158035 2.0885 0 2.48633 0L4.98633 0V1H2.48633C2.35372 1 2.22654 1.05268 2.13277 1.14645C2.03901 1.24021 1.98633 1.36739 1.98633 1.5V4Z" fill="#374957"/>
<path id="Vector_5" d="M4.98633 12.0002H2.48633C2.0885 12.0002 1.70697 11.8421 1.42567 11.5608C1.14436 11.2795 0.986328 10.898 0.986328 10.5002L0.986328 8.00018H1.98633V10.5002C1.98633 10.6328 2.03901 10.76 2.13277 10.8537C2.22654 10.9475 2.35372 11.0002 2.48633 11.0002H4.98633V12.0002Z" fill="#374957"/>
<path id="Vector_6" d="M12.9863 4H11.9863V1.5C11.9863 1.36739 11.9336 1.24021 11.8399 1.14645C11.7461 1.05268 11.6189 1 11.4863 1H8.98633V0H11.4863C11.8841 0 12.2657 0.158035 12.547 0.43934C12.8283 0.720644 12.9863 1.10218 12.9863 1.5V4Z" fill="#374957"/>
</g>
<defs>
<clipPath id="clip0_1800_56074">
<rect width="12" height="12" fill="white" transform="translate(0.986328)"/>
</clipPath>
</defs>
</svg>
