<svg width="20" height="20" viewBox="0 0 20 20" fill="none" xmlns="http://www.w3.org/2000/svg">
<path d="M15 0H5C2 0 0 2 0 5V11C0 14 2 16 5 16H9L13.45 18.96C13.6002 19.0601 13.7747 19.1176 13.955 19.1263C14.1353 19.135 14.3145 19.0945 14.4736 19.0093C14.6328 18.9241 14.7658 18.7973 14.8585 18.6425C14.9512 18.4876 15.0001 18.3105 15 18.13V16C18 16 20 14 20 11V5C20 2 18 0 15 0ZM13.5 8.82H6.5C6.09 8.82 5.75 8.48 5.75 8.07C5.75 7.66 6.09 7.32 6.5 7.32H13.5C13.91 7.32 14.25 7.66 14.25 8.07C14.25 8.48 13.91 8.82 13.5 8.82Z" />
</svg>
