<svg width="14" height="14" viewBox="0 0 14 14" fill="none" xmlns="http://www.w3.org/2000/svg">
<path d="M13 0.99997C12.8125 0.812499 12.5581 0.707184 12.293 0.707184C12.0278 0.707184 11.7735 0.812499 11.586 0.99997L6.99998 5.58597L2.41398 0.99997C2.22645 0.812499 1.97214 0.707184 1.70698 0.707184C1.44181 0.707184 1.18751 0.812499 0.999978 0.99997C0.812507 1.1875 0.707191 1.44181 0.707191 1.70697C0.707191 1.97213 0.812507 2.22644 0.999978 2.41397L5.58598 6.99997L0.999978 11.586C0.812507 11.7735 0.707191 12.0278 0.707191 12.293C0.707191 12.5581 0.812507 12.8124 0.999978 13C1.18751 13.1874 1.44181 13.2928 1.70698 13.2928C1.97214 13.2928 2.22645 13.1874 2.41398 13L6.99998 8.41397L11.586 13C11.7735 13.1874 12.0278 13.2928 12.293 13.2928C12.5581 13.2928 12.8125 13.1874 13 13C13.1875 12.8124 13.2928 12.5581 13.2928 12.293C13.2928 12.0278 13.1875 11.7735 13 11.586L8.41398 6.99997L13 2.41397C13.1875 2.22644 13.2928 1.97213 13.2928 1.70697C13.2928 1.44181 13.1875 1.1875 13 0.99997V0.99997Z" fill="#B4B5CF"/>
</svg>
