<svg width="12" height="13" viewBox="0 0 12 13" fill="none" xmlns="http://www.w3.org/2000/svg">
<path d="M6.00022 8.49923C7.10438 8.49923 7.99947 7.60413 7.99947 6.49998C7.99947 5.39583 7.10438 4.50073 6.00022 4.50073C4.89607 4.50073 4.00098 5.39583 4.00098 6.49998C4.00098 7.60413 4.89607 8.49923 6.00022 8.49923Z" fill="#808080"/>
<path d="M11.6334 5.21004C10.8582 3.94751 9.09484 1.82928 5.99999 1.82928C2.90514 1.82928 1.14179 3.94751 0.366579 5.21004C-0.122193 6.0006 -0.122193 6.99951 0.366579 7.79009C1.14179 9.05262 2.90514 11.1708 5.99999 11.1708C9.09484 11.1708 10.8582 9.05262 11.6334 7.79009C12.1222 6.99951 12.1222 6.0006 11.6334 5.21004ZM5.99999 9.49894C4.34376 9.49894 3.0011 8.15628 3.0011 6.50005C3.0011 4.84382 4.34376 3.50116 5.99999 3.50116C7.65622 3.50116 8.99888 4.84382 8.99888 6.50005C8.99721 8.1556 7.65554 9.49727 5.99999 9.49894Z" fill="#808080"/>
</svg>
