<svg  viewBox="0 0 18 18" fill="none" xmlns="http://www.w3.org/2000/svg">
<path opacity="0.993" fill-rule="evenodd" clip-rule="evenodd" d="M6.8287 0.16298C8.66021 0.0420333 10.3973 0.388107 12.0399 1.20121C12.7508 1.62969 13.1572 2.26552 13.259 3.10865C13.3584 4.02698 13.3504 4.94448 13.2351 5.86117C13.2621 6.1089 13.3656 6.31813 13.5458 6.48894C13.5615 7.05349 13.434 7.58468 13.1634 8.0825C12.749 8.5976 12.3347 9.11266 11.9203 9.62777C11.2087 10.63 10.9537 11.7407 11.1554 12.9598C11.4318 13.2404 11.7585 13.4416 12.1355 13.5634C13.0505 13.814 13.9749 14.0232 14.9084 14.1911C15.6923 14.4057 16.3696 14.8001 16.9403 15.3742C17.5111 16.0378 17.7422 16.8104 17.6335 17.6922C12.008 17.6922 6.38251 17.6922 0.756991 17.6922C0.673006 16.1599 1.32639 15.0894 2.71715 14.4809C3.5178 14.166 4.34647 13.9568 5.20321 13.8531C5.86426 13.7325 6.48577 13.5072 7.06775 13.1771C7.16896 13.0935 7.24067 12.9888 7.28289 12.8632C7.42273 11.6736 7.1518 10.5951 6.47014 9.62777C6.01959 9.14067 5.60523 8.62561 5.22711 8.0825C4.92396 7.5686 4.81242 7.02133 4.89245 6.44065C5.0495 6.32461 5.15306 6.17172 5.20321 5.98189C5.04104 4.98046 5.01713 3.97444 5.13149 2.96378C5.21334 2.57322 5.37269 2.21906 5.60958 1.90141C5.88204 1.64235 6.13705 1.3687 6.37452 1.08048C6.39374 1.01423 6.41764 0.949842 6.44623 0.887326C6.3608 0.717781 6.32093 0.540721 6.32671 0.356139C6.36988 0.298123 6.42563 0.257879 6.49404 0.235414C6.61529 0.226423 6.72682 0.202278 6.8287 0.16298Z" fill="#B4B5CF"/>
</svg>
