<svg width="12" height="13" viewBox="0 0 12 13" fill="none" xmlns="http://www.w3.org/2000/svg">
<path d="M11.4151 5.08556L9.4756 3.14606C9.27697 2.95422 8.96045 2.95973 8.76861 3.15836C8.58146 3.35212 8.58146 3.65931 8.76861 3.85307L10.7081 5.79257C10.7657 5.85133 10.8161 5.91681 10.8581 5.98757C10.8506 5.98757 10.8446 5.98356 10.8371 5.98356L2.99511 5.99957C2.71897 5.99957 2.49512 6.22342 2.49512 6.49956C2.49512 6.7757 2.71897 6.99956 2.99511 6.99956L10.8341 6.98355C10.8481 6.98355 10.8596 6.97654 10.8731 6.97556C10.8288 7.06014 10.7725 7.13793 10.7061 7.20656L8.76662 9.14606C8.56798 9.33789 8.56248 9.65442 8.75431 9.85305C8.94615 10.0517 9.26267 10.0572 9.4613 9.86535C9.46548 9.86132 9.46958 9.85722 9.47361 9.85305L11.4131 7.91355C12.1939 7.13254 12.1939 5.86654 11.4131 5.08556H11.4151Z" fill="#8E3928"/>
<path d="M3.50097 11.5H2.50096C1.67254 11.5 1.00096 10.8284 1.00096 9.99999V3.00001C1.00096 2.17159 1.67254 1.50001 2.50096 1.50001H3.50097C3.77711 1.50001 4.00096 1.27616 4.00096 1.00002C4.00096 0.723875 3.77713 0.5 3.50097 0.5H2.50096C1.12096 0.501664 0.00264062 1.61998 0.000976562 3.00001V10C0.00264062 11.38 1.12096 12.4984 2.50098 12.5H3.50099C3.77713 12.5 4.00098 12.2761 4.00098 12C4.00098 11.7239 3.77713 11.5 3.50097 11.5Z" fill="#8E3928"/>
</svg>
