<svg width="25" height="24" viewBox="0 0 25 24" fill="none" xmlns="http://www.w3.org/2000/svg">
<path opacity="0.992" fill-rule="evenodd" clip-rule="evenodd" d="M24.5 22.2406C24.5 22.2565 24.5 22.2723 24.5 22.2882C24.451 23.0318 24.0864 23.5588 23.4063 23.8692C23.2023 23.9394 22.9962 23.9829 22.7881 24C22.7722 24 22.7564 24 22.7405 24C22.3576 23.9793 22.0089 23.8564 21.6943 23.6315C19.7089 21.6462 17.7235 19.661 15.7382 17.6758C13.56 19.1656 11.1625 19.7005 8.5456 19.2806C5.73964 18.7312 3.5561 17.269 1.99502 14.8941C0.497512 12.4246 0.125004 9.79341 0.877497 7.00067C1.89828 3.8164 3.97879 1.64889 7.11897 0.498134C10.0291 -0.409592 12.7873 -0.076738 15.3934 1.4967C17.9279 3.17036 19.414 5.52014 19.8516 8.54607C20.1212 10.9905 19.5624 13.2214 18.1753 15.2388C20.1607 17.224 22.1461 19.2093 24.1315 21.1945C24.3564 21.5091 24.4793 21.8578 24.5 22.2406ZM10.1149 3.43438C12.1859 3.45751 13.8701 4.26587 15.1675 5.85946C16.4201 7.57313 16.7688 9.45932 16.2137 11.518C15.6029 13.4047 14.3863 14.7401 12.5639 15.5241C10.5681 16.2621 8.65799 16.0877 6.83365 15.0011C4.78495 13.5943 3.82989 11.6408 3.96851 9.14045C4.21011 7.02695 5.22858 5.41417 7.02387 4.30218C7.98391 3.75318 9.01427 3.46391 10.1149 3.43438Z" fill="#1F272E"/>
</svg>
