<svg width="24" height="24" viewBox="0 0 24 24" fill="none" xmlns="http://www.w3.org/2000/svg">
<g id="fi-seach">
<path id="Vector" opacity="0.992" fill-rule="evenodd" clip-rule="evenodd" d="M24 22.2406C24 22.2565 24 22.2723 24 22.2882C23.951 23.0318 23.5864 23.5588 22.9063 23.8692C22.7023 23.9394 22.4962 23.9829 22.2881 24C22.2722 24 22.2564 24 22.2405 24C21.8576 23.9793 21.5089 23.8564 21.1943 23.6315C19.2089 21.6462 17.2235 19.661 15.2382 17.6758C13.06 19.1656 10.6625 19.7005 8.0456 19.2806C5.23964 18.7312 3.0561 17.269 1.49502 14.8941C-0.00248842 12.4246 -0.374996 9.79341 0.377497 7.00067C1.39828 3.8164 3.47879 1.64889 6.61897 0.498134C9.52912 -0.409592 12.2873 -0.076738 14.8934 1.4967C17.4279 3.17036 18.914 5.52014 19.3516 8.54607C19.6212 10.9905 19.0624 13.2214 17.6753 15.2388C19.6607 17.224 21.6461 19.2093 23.6315 21.1945C23.8564 21.5091 23.9793 21.8578 24 22.2406ZM9.61488 3.43438C11.6859 3.45751 13.3701 4.26587 14.6675 5.85946C15.9201 7.57313 16.2688 9.45932 15.7137 11.518C15.1029 13.4047 13.8863 14.7401 12.0639 15.5241C10.0681 16.2621 8.15799 16.0877 6.33365 15.0011C4.28495 13.5943 3.32989 11.6408 3.46851 9.14045C3.71011 7.02695 4.72858 5.41417 6.52387 4.30218C7.48391 3.75318 8.51427 3.46391 9.61488 3.43438Z" fill="#4C4C57"/>
</g>
</svg>
