<svg width="12" height="13" viewBox="0 0 12 13" fill="none" xmlns="http://www.w3.org/2000/svg">
<path d="M0.803654 9.5C1.21723 10.2178 2.13441 10.4644 2.85221 10.0508C2.8527 10.0505 2.85317 10.0503 2.85366 10.05L3.07615 9.92148C3.49615 10.2808 3.97892 10.5595 4.50015 10.7435V11C4.50015 11.8284 5.17172 12.5 6.00015 12.5C6.82857 12.5 7.50015 11.8284 7.50015 11V10.7435C8.02144 10.5592 8.50423 10.2802 8.92414 9.92049L9.14764 10.0495C9.8656 10.4637 10.7834 10.2175 11.1976 9.49948C11.6119 8.78152 11.3656 7.86369 10.6476 7.44948L10.4256 7.32148C10.5256 6.77771 10.5256 6.22027 10.4256 5.67648L10.6476 5.54848C11.3656 5.13427 11.6119 4.21646 11.1976 3.49848C10.7834 2.78052 9.86562 2.53426 9.14764 2.94847L8.92515 3.07698C8.50472 2.71808 8.02163 2.43992 7.50015 2.2565V2C7.50015 1.17158 6.82857 0.5 6.00015 0.5C5.17172 0.5 4.50015 1.17158 4.50015 2V2.2565C3.97885 2.44079 3.49606 2.71979 3.07615 3.07951L2.85265 2.95002C2.13467 2.53578 1.21686 2.78204 0.802647 3.5C0.388436 4.21796 0.63467 5.1358 1.35265 5.55001L1.57465 5.678C1.47472 6.22177 1.47472 6.77921 1.57465 7.32301L1.35265 7.451C0.636662 7.86631 0.391225 8.78234 0.803654 9.5ZM6.00015 4.50001C7.10471 4.50001 8.00014 5.39544 8.00014 6.5C8.00014 7.60456 7.10471 8.49999 6.00015 8.49999C4.89558 8.49999 4.00015 7.60456 4.00015 6.5C4.00015 5.39544 4.89558 4.50001 6.00015 4.50001Z" fill="#636472"/>
</svg>
