<svg width="17" height="18" viewBox="0 0 17 18" fill="none" xmlns="http://www.w3.org/2000/svg">
<g id="Group">
<path id="Vector" d="M0.955115 13.5C1.57548 14.5767 2.95125 14.9466 4.02795 14.3262C4.02869 14.3258 4.02939 14.3254 4.03013 14.325L4.36387 14.1322C4.99387 14.6712 5.71801 15.0892 6.49985 15.3652V15.75C6.49985 16.9926 7.50722 18 8.74985 18C9.99249 18 10.9999 16.9926 10.9999 15.75V15.3652C11.7818 15.0888 12.506 14.6703 13.1358 14.1307L13.4711 14.3242C14.548 14.9456 15.9248 14.5762 16.5461 13.4992C17.1674 12.4223 16.7981 11.0455 15.7211 10.4242L15.3881 10.2322C15.538 9.41657 15.538 8.58041 15.3881 7.76472L15.7211 7.57273C16.798 6.95141 17.1674 5.57469 16.5461 4.49771C15.9248 3.42077 14.5481 3.05139 13.4711 3.6727L13.1374 3.86546C12.5067 3.32712 11.7821 2.90988 10.9999 2.63475V2.25C10.9999 1.00737 9.99249 0 8.74985 0C7.50722 0 6.49985 1.00737 6.49985 2.25V2.63475C5.71791 2.91118 4.99372 3.32968 4.36387 3.86926L4.02862 3.67502C2.95164 3.05367 1.57492 3.42306 0.953604 4.5C0.332287 5.57694 0.701639 6.9537 1.77862 7.57501L2.11162 7.767C1.96171 8.58266 1.96171 9.41882 2.11162 10.2345L1.77862 10.4265C0.704627 11.0495 0.336471 12.4235 0.955115 13.5ZM8.74985 6.00001C10.4067 6.00001 11.7498 7.34316 11.7498 9C11.7498 10.6568 10.4067 12 8.74985 12C7.09301 12 5.74987 10.6568 5.74987 9C5.74987 7.34316 7.09301 6.00001 8.74985 6.00001Z" fill="#B4B5CF"/>
</g>
</svg>
