<svg width="19" height="25" viewBox="0 0 19 25" fill="none" xmlns="http://www.w3.org/2000/svg">
<g clip-path="url(#clip0_25_214)">
<g clip-path="url(#clip1_25_214)">
<path d="M5.5 0.5C4.1744 0.501588 2.90356 1.02888 1.96622 1.96622C1.02888 2.90356 0.501588 4.1744 0.5 5.5V23.5C0.500141 23.6819 0.549886 23.8603 0.643882 24.016C0.737877 24.1717 0.872562 24.2989 1.03344 24.3837C1.19431 24.4686 1.37529 24.508 1.55688 24.4976C1.73847 24.4873 1.9138 24.4276 2.064 24.325L4.17 22.886L6.276 24.325C6.44239 24.4389 6.63934 24.4999 6.841 24.4999C7.04266 24.4999 7.23961 24.4389 7.406 24.325L9.506 22.886L11.606 24.325C11.7725 24.4392 11.9696 24.5003 12.1715 24.5003C12.3734 24.5003 12.5705 24.4392 12.737 24.325L14.837 22.887L16.937 24.324C17.0871 24.4263 17.2623 24.4857 17.4436 24.496C17.625 24.5062 17.8057 24.4669 17.9664 24.3821C18.127 24.2974 18.2616 24.1706 18.3556 24.0151C18.4496 23.8597 18.4996 23.6816 18.5 23.5V5.5C18.4984 4.1744 17.9711 2.90356 17.0338 1.96622C16.0964 1.02888 14.8256 0.501588 13.5 0.5L5.5 0.5ZM11.5 14.5H5.5C5.23478 14.5 4.98043 14.3946 4.79289 14.2071C4.60536 14.0196 4.5 13.7652 4.5 13.5C4.5 13.2348 4.60536 12.9804 4.79289 12.7929C4.98043 12.6054 5.23478 12.5 5.5 12.5H11.5C11.7652 12.5 12.0196 12.6054 12.2071 12.7929C12.3946 12.9804 12.5 13.2348 12.5 13.5C12.5 13.7652 12.3946 14.0196 12.2071 14.2071C12.0196 14.3946 11.7652 14.5 11.5 14.5ZM14.5 9.5C14.5 9.76522 14.3946 10.0196 14.2071 10.2071C14.0196 10.3946 13.7652 10.5 13.5 10.5H5.5C5.23478 10.5 4.98043 10.3946 4.79289 10.2071C4.60536 10.0196 4.5 9.76522 4.5 9.5C4.5 9.23478 4.60536 8.98043 4.79289 8.79289C4.98043 8.60536 5.23478 8.5 5.5 8.5H13.5C13.7652 8.5 14.0196 8.60536 14.2071 8.79289C14.3946 8.98043 14.5 9.23478 14.5 9.5Z" fill="#808193"/>
</g>
</g>
<defs>
<clipPath id="clip0_25_214">
<rect width="19" height="25" rx="4" fill="white"/>
</clipPath>
<clipPath id="clip1_25_214">
<rect width="24" height="24" fill="white" transform="translate(-2.5 0.5)"/>
</clipPath>
</defs>
</svg>
