<svg  viewBox="0 0 21 24"  xmlns="http://www.w3.org/2000/svg">
<path opacity="0.945" fill-rule="evenodd" clip-rule="evenodd" d="M10.1728 5.72165C10.3071 5.70079 10.4243 5.73206 10.5244 5.8154C10.6512 6.07687 10.784 6.33469 10.9228 6.58884C11.2197 6.63572 11.5166 6.68259 11.8134 6.72947C11.9677 6.83878 11.9911 6.97158 11.8837 7.1279C11.6415 7.30758 11.4306 7.51851 11.2509 7.76072C11.3152 8.01347 11.3621 8.27128 11.3916 8.53415C11.3991 8.76872 11.2898 8.85469 11.0634 8.79197C10.8167 8.66067 10.5666 8.54348 10.3134 8.4404C10.0602 8.54348 9.81018 8.66067 9.56343 8.79197C9.44507 8.83397 9.34349 8.81053 9.25874 8.72165C9.2443 8.39423 9.2834 8.07394 9.37593 7.76072C9.19626 7.51851 8.98532 7.30758 8.74312 7.1279C8.63573 6.97158 8.65916 6.83878 8.81343 6.72947C9.11108 6.68765 9.40799 6.64078 9.70405 6.58884C9.85494 6.29479 10.0112 6.00572 10.1728 5.72165Z" />
<path opacity="0.98" fill-rule="evenodd" clip-rule="evenodd" d="M3.28217 0.00292956C7.96972 -0.00488263 12.6572 0.00292956 17.3447 0.0263671C17.4973 0.10076 17.5989 0.217945 17.6494 0.37793C17.6929 0.881367 17.6772 1.38136 17.6025 1.87793C17.3923 2.09339 17.1345 2.17151 16.829 2.1123C16.829 2.51856 16.829 2.9248 16.829 3.33105C17.5657 3.31139 18.3001 3.33482 19.0322 3.40137C19.8257 3.7141 20.1851 4.30004 20.1103 5.15918C19.9902 7.8927 18.7871 9.99424 16.5009 11.4639C15.5865 12.0031 14.6021 12.3468 13.5478 12.4951C12.9651 13.1302 12.262 13.5755 11.4384 13.8311C11.6355 14.9103 11.8386 15.9884 12.0478 17.0654C12.5637 17.0576 13.0793 17.0654 13.5947 17.0889C13.8257 17.1792 13.9741 17.3433 14.04 17.5811C14.0634 17.8619 14.0712 18.1431 14.0634 18.4248C11.5634 18.4248 9.0634 18.4248 6.56342 18.4248C6.55564 18.1431 6.56347 17.8619 6.58686 17.5811C6.65276 17.3433 6.80117 17.1792 7.03217 17.0889C7.54756 17.0654 8.06318 17.0576 8.57904 17.0654C8.783 15.9909 9.00176 14.9206 9.23529 13.8545C8.40687 13.5725 7.68814 13.1194 7.07904 12.4951C4.17697 12.0251 2.15355 10.4392 1.00873 7.7373C0.608442 6.7106 0.452194 5.64809 0.539981 4.5498C0.671995 3.96552 1.02356 3.58271 1.59467 3.40137C2.32674 3.33482 3.06111 3.31139 3.79779 3.33105C3.79779 2.9248 3.79779 2.51856 3.79779 2.1123C3.43887 2.19712 3.16545 2.08774 2.97748 1.78418C2.93385 1.26514 2.94947 0.749517 3.02436 0.237305C3.10545 0.148153 3.19137 0.0700274 3.28217 0.00292956ZM9.79779 3.89355C11.7756 3.78643 13.049 4.67707 13.6181 6.56543C13.863 8.22396 13.2614 9.46615 11.8134 10.292C10.1411 10.9657 8.72703 10.6142 7.57123 9.2373C6.74553 7.9519 6.72992 6.65501 7.52436 5.34668C8.09515 4.5641 8.85293 4.07974 9.79779 3.89355ZM5.95404 11.0654C4.1974 10.4263 2.92399 9.25441 2.13373 7.5498C1.80136 6.75518 1.62168 5.92709 1.59467 5.06543C1.57022 4.80973 1.66397 4.6144 1.87592 4.47949C2.54761 4.45605 3.2195 4.44823 3.89154 4.45605C4.109 6.8112 4.79647 9.01432 5.95404 11.0654ZM14.6728 11.0654C15.8305 9.01399 16.518 6.81087 16.7353 4.45605C17.4073 4.44823 18.0792 4.45605 18.7509 4.47949C18.9629 4.6144 19.0566 4.80973 19.0322 5.06543C18.8946 7.58421 17.7384 9.46704 15.5634 10.7139C15.2756 10.858 14.9787 10.9751 14.6728 11.0654Z" />
<path opacity="0.984" fill-rule="evenodd" clip-rule="evenodd" d="M5.62591 19.0811C8.81552 19.0583 12.003 19.0817 15.1884 19.1514C15.4491 19.2715 15.6288 19.4668 15.7275 19.7373C15.7509 20.6591 15.7587 21.581 15.7509 22.503C17.2822 22.4951 18.8135 22.503 20.3447 22.5264C20.5399 22.5726 20.6337 22.6976 20.6259 22.9014C20.6352 23.0549 20.5728 23.1642 20.4384 23.2295C13.6884 23.2608 6.93841 23.2608 0.188412 23.2295C0.0540636 23.1642 -0.00843487 23.0549 0.000912 22.9014C-0.00687394 22.6976 0.0868761 22.5726 0.282162 22.5264C1.81333 22.503 3.3446 22.4951 4.87591 22.503C4.86808 21.581 4.87591 20.6591 4.89935 19.7373C5.03421 19.3911 5.27641 19.1724 5.62591 19.0811Z" />
</svg>
