<svg width="40" height="40" viewBox="0 0 40 40" fill="none" xmlns="http://www.w3.org/2000/svg">
<path d="M18.9572 20.354C18.9106 20.3076 18.8737 20.2524 18.8485 20.1916C18.8233 20.1309 18.8103 20.0658 18.8103 20C18.8103 19.9342 18.8233 19.8691 18.8485 19.8084C18.8737 19.7476 18.9106 19.6925 18.9572 19.646L23.5432 15.061C23.8246 14.7797 23.9827 14.3982 23.9828 14.0004C23.9829 13.6025 23.8249 13.2209 23.5437 12.9395C23.2624 12.6581 22.8809 12.5 22.483 12.4999C22.0852 12.4998 21.7036 12.6577 21.4222 12.939L16.8362 17.525C16.1809 18.182 15.813 19.0721 15.813 20C15.813 20.9279 16.1809 21.818 16.8362 22.475L21.4222 27.061C21.7036 27.3423 22.0852 27.5002 22.483 27.5001C22.8809 27.5 23.2624 27.3419 23.5437 27.0605C23.8249 26.7791 23.9829 26.3975 23.9828 25.9997C23.9827 25.6018 23.8246 25.2203 23.5432 24.939L18.9572 20.354Z" fill="#B4B5CF"/>
</svg>
