<svg fill="#4C4C57" xmlns="http://www.w3.org/2000/svg" xmlns:xlink="http://www.w3.org/1999/xlink" version="1.1" x="0px" y="0px" viewBox="0 0 32 40" style="enable-background:new 0 0 32 32;" xml:space="preserve"><g id="false"><g><path d="M16,20.1c-4.8,0-9.6-1.5-14.3-4.4c-0.7-0.4-0.9-1.4-0.5-2.1c0.4-0.7,1.4-0.9,2.1-0.5c8.4,5.2,17,5.2,25.4,0    c0.7-0.4,1.6-0.2,2.1,0.5c0.4,0.7,0.2,1.6-0.5,2.1C25.6,18.7,20.8,20.1,16,20.1z"/></g><g><path d="M27.5,22c-0.4,0-0.8-0.1-1.1-0.4l-2-2c-0.6-0.6-0.6-1.5,0-2.1s1.5-0.6,2.1,0l2,2c0.6,0.6,0.6,1.5,0,2.1    C28.3,21.9,27.9,22,27.5,22z"/></g><g><path d="M16,25c-0.8,0-1.5-0.7-1.5-1.5v-3c0-0.8,0.7-1.5,1.5-1.5s1.5,0.7,1.5,1.5v3C17.5,24.3,16.8,25,16,25z"/></g><g><path d="M4.5,22c-0.4,0-0.8-0.1-1.1-0.4c-0.6-0.6-0.6-1.5,0-2.1l2-2c0.6-0.6,1.5-0.6,2.1,0s0.6,1.5,0,2.1l-2,2    C5.3,21.9,4.9,22,4.5,22z"/></g></g>


</svg>