<svg width="24" height="20" viewBox="0 0 24 20" fill="none" xmlns="http://www.w3.org/2000/svg">
<path d="M12 13.9984C14.2083 13.9984 15.9985 12.2082 15.9985 9.99993C15.9985 7.79162 14.2083 6.00143 12 6.00143C9.79165 6.00143 8.00146 7.79162 8.00146 9.99993C8.00146 12.2082 9.79165 13.9984 12 13.9984Z" fill="#4C4C57"/>
<path d="M23.2668 7.42006C21.7164 4.895 18.1897 0.658554 12 0.658554C5.81027 0.658554 2.28358 4.895 0.733158 7.42006C-0.244386 9.00118 -0.244386 10.999 0.733158 12.5802C2.28358 15.1052 5.81027 19.3417 12 19.3417C18.1897 19.3417 21.7164 15.1052 23.2668 12.5802C24.2443 10.999 24.2443 9.00118 23.2668 7.42006ZM12 15.9979C8.68752 15.9979 6.0022 13.3125 6.0022 10.0001C6.0022 6.68763 8.68752 4.00231 12 4.00231C15.3124 4.00231 17.9978 6.68763 17.9978 10.0001C17.9944 13.3112 15.3111 15.9945 12 15.9979Z" fill="#4C4C57"/>
</svg>
